<?xml version="1.0" encoding="UTF-8" standalone="no"?>
<!-- Generator: Adobe Illustrator 22.1.0, SVG Export Plug-In . SVG Version: 6.00 Build 0)  -->

<svg
   version="1.1"
   id="Layer_1"
   x="0px"
   y="0px"
   viewBox="0 0 500 500"
   xml:space="preserve"
   sodipodi:docname="vast-no-text-500x500.svg"
   inkscape:export-filename="H:\.shortcut-targets-by-id\173upaT1Jd8h0J_2csJh1LqcMFUmem-nD\VAST PROJECT\WP6 - DISSEMINATION\VAST VISUALS\Logo\vast-no-text-500x500.png"
   inkscape:export-xdpi="96"
   inkscape:export-ydpi="96"
   width="500"
   height="500"
   inkscape:version="1.1.2 (b8e25be833, 2022-02-05)"
   xmlns:inkscape="http://www.inkscape.org/namespaces/inkscape"
   xmlns:sodipodi="http://sodipodi.sourceforge.net/DTD/sodipodi-0.dtd"
   xmlns="http://www.w3.org/2000/svg"
   xmlns:svg="http://www.w3.org/2000/svg"><defs
   id="defs63" /><sodipodi:namedview
   id="namedview61"
   pagecolor="#ffffff"
   bordercolor="#666666"
   borderopacity="1.0"
   inkscape:pageshadow="2"
   inkscape:pageopacity="0.0"
   inkscape:pagecheckerboard="0"
   showgrid="false"
   width="451px"
   inkscape:zoom="1.5208438"
   inkscape:cx="148.27295"
   inkscape:cy="124.27312"
   inkscape:window-width="2560"
   inkscape:window-height="1377"
   inkscape:window-x="-8"
   inkscape:window-y="-8"
   inkscape:window-maximized="1"
   inkscape:current-layer="g58" />
<style
   type="text/css"
   id="style2">
	.st0{fill:#4F4946;}
</style>
<g
   id="g58">
	
	<g
   id="g56"
   transform="matrix(1.3650848,0,0,1.5211596,-2.0749952,113.09564)"
   inkscape:export-filename="H:\.shortcut-targets-by-id\173upaT1Jd8h0J_2csJh1LqcMFUmem-nD\VAST PROJECT\WP6 - DISSEMINATION\VAST VISUALS\Logo\g56.png"
   inkscape:export-xdpi="96"
   inkscape:export-ydpi="96">
		<path
   class="st0"
   d="M 359,14.4 H 238.8 c -22.7,0 -41.1,18.4 -41.1,41.1 0,27.8 21.7,35.1 39.2,41 18.5,6.2 29.9,10.9 29.9,28 0,15.4 -12.5,27.9 -27.9,27.9 -10.7,0 -20.3,-6 -25.1,-15.6 0,0 0,0 0,-0.1 C 212.8,135 154.3,18 154.3,18 c -1.1,-2.2 -3.4,-3.7 -5.9,-3.7 -4.1,0 -4.6,1.1 -8.9,9.6 L 79.4,144.2 16.3,18 c -1.6,-3.3 -5.6,-4.6 -8.9,-3 -3.3,1.6 -4.6,5.6 -3,8.9 l 69,138 c 1.1,2.2 3.4,3.7 5.9,3.7 2.5,0 4.8,-1.4 5.9,-3.7 0,0 46.4,-92.8 63.1,-126.2 l 51,101.8 c 1.1,2.1 1.9,3.8 2.6,5 h -0.1 c 7,14.2 21.1,23 36.9,23 22.7,0 41.1,-18.5 41.1,-41.2 0,-27.5 -21.6,-34.7 -38.9,-40.6 -18.7,-6.3 -30.2,-11 -30.2,-28.5 0,-15.4 12.5,-27.9 27.9,-27.9 h 62.1 l 0.3,131.4 c 0,3.6 3,6.6 6.6,6.6 0,0 0,0 0,0 3.7,0 6.6,-3 6.6,-6.6 L 313.9,27.3 H 359 c 3.7,0 6.6,-3 6.6,-6.6 0,-3.4 -3,-6.3 -6.6,-6.3 z"
   id="path52" />
		<path
   class="st0"
   d="m 148.4,101.5 c -17.7,0 -32.1,14.3 -32.1,32.1 0,17.8 14.4,32.1 32.1,32.1 17.7,0 32.1,-14.4 32.1,-32.1 0,-17.7 -14.4,-32.1 -32.1,-32.1 z m 0,50.9 c -10.4,0 -18.8,-8.4 -18.8,-18.8 0,-10.4 8.4,-18.8 18.8,-18.8 10.4,0 18.8,8.4 18.8,18.8 0,10.4 -8.4,18.8 -18.8,18.8 z"
   id="path54" />
	</g>
</g>
</svg>
