<svg width="1280" height="720" xmlns="http://www.w3.org/2000/svg" xmlns:xlink="http://www.w3.org/1999/xlink" overflow="hidden"><defs><clipPath id="clip0"><rect x="480" y="40" width="94" height="90"/></clipPath><clipPath id="clip1"><rect x="480" y="40" width="94" height="90"/></clipPath><clipPath id="clip2"><rect x="480" y="40" width="94" height="90"/></clipPath><clipPath id="clip3"><rect x="917" y="40" width="94" height="90"/></clipPath><clipPath id="clip4"><rect x="917" y="40" width="94" height="90"/></clipPath><clipPath id="clip5"><rect x="917" y="40" width="94" height="90"/></clipPath><clipPath id="clip6"><rect x="701" y="215" width="94" height="89"/></clipPath><clipPath id="clip7"><rect x="701" y="215" width="94" height="89"/></clipPath><clipPath id="clip8"><rect x="701" y="215" width="94" height="89"/></clipPath><clipPath id="clip9"><rect x="265" y="215" width="94" height="89"/></clipPath><clipPath id="clip10"><rect x="265" y="215" width="94" height="89"/></clipPath><clipPath id="clip11"><rect x="265" y="215" width="94" height="89"/></clipPath><clipPath id="clip12"><rect x="44" y="389" width="94" height="90"/></clipPath><clipPath id="clip13"><rect x="44" y="389" width="94" height="90"/></clipPath><clipPath id="clip14"><rect x="44" y="389" width="94" height="90"/></clipPath><clipPath id="clip15"><rect x="480" y="389" width="94" height="90"/></clipPath><clipPath id="clip16"><rect x="480" y="389" width="94" height="90"/></clipPath><clipPath id="clip17"><rect x="480" y="389" width="94" height="90"/></clipPath><clipPath id="clip18"><rect x="917" y="389" width="94" height="90"/></clipPath><clipPath id="clip19"><rect x="917" y="389" width="94" height="90"/></clipPath><clipPath id="clip20"><rect x="917" y="389" width="94" height="90"/></clipPath><clipPath id="clip21"><rect x="838" y="545" width="95" height="94"/></clipPath><clipPath id="clip22"><rect x="838" y="545" width="95" height="94"/></clipPath><clipPath id="clip23"><rect x="838" y="545" width="95" height="94"/></clipPath><clipPath id="clip24"><rect x="1175" y="545" width="74" height="94"/></clipPath><clipPath id="clip25"><rect x="1175" y="545" width="74" height="94"/></clipPath><clipPath id="clip26"><rect x="1175" y="545" width="74" height="94"/></clipPath><linearGradient x1="83.2594" y1="38.7011" x2="101.645" y2="20.313" gradientUnits="userSpaceOnUse" spreadMethod="pad" id="fill27"><stop offset="0" stop-color="#968C88" stop-opacity="0.8"/><stop offset="0.105" stop-color="#A19692" stop-opacity="0.8"/><stop offset="0.241" stop-color="#B5A9A5" stop-opacity="0.8"/><stop offset="1" stop-color="#B5A9A5" stop-opacity="0.8"/></linearGradient><linearGradient x1="51.4605" y1="-22.9226" x2="51.4605" y2="129.597" gradientUnits="userSpaceOnUse" spreadMethod="pad" id="fill28"><stop offset="0" stop-color="#EFEBE9"/><stop offset="0.252" stop-color="#EFEBE9"/><stop offset="0.584" stop-color="#E4E1DA"/><stop offset="1" stop-color="#D9D8CB"/></linearGradient><linearGradient x1="57.8436" y1="43.9741" x2="85.9317" y2="15.886" gradientUnits="userSpaceOnUse" spreadMethod="pad" id="fill29"><stop offset="0" stop-color="#EFEBE9" stop-opacity="0"/><stop offset="0.235" stop-color="#D1CFC9" stop-opacity="0.323"/><stop offset="0.385" stop-color="#C3C1BA" stop-opacity="0.529"/><stop offset="0.403" stop-color="#C0BEB5" stop-opacity="0.542"/><stop offset="0.514" stop-color="#B0AE9E" stop-opacity="0.618"/><stop offset="0.633" stop-color="#A5A28D" stop-opacity="0.699"/><stop offset="0.763" stop-color="#9E9B83" stop-opacity="0.788"/><stop offset="0.927" stop-color="#9C9980" stop-opacity="0.9"/><stop offset="1" stop-color="#9C9980" stop-opacity="0.9"/></linearGradient><linearGradient x1="72.7336" y1="23.4888" x2="11.3404" y2="84.882" gradientUnits="userSpaceOnUse" spreadMethod="pad" id="fill30"><stop offset="0" stop-color="#968C88" stop-opacity="0.8"/><stop offset="0.126" stop-color="#A19692" stop-opacity="0.8"/><stop offset="0.288" stop-color="#B5A9A5" stop-opacity="0.8"/><stop offset="1" stop-color="#B5A9A5" stop-opacity="0.8"/></linearGradient><linearGradient x1="58.2733" y1="31.2192" x2="77.089" y2="12.4035" gradientUnits="userSpaceOnUse" spreadMethod="pad" id="fill31"><stop offset="0" stop-color="#FDFDFD"/><stop offset="0.07" stop-color="#FDFDFD"/><stop offset="0.164" stop-color="#F9F9F7"/><stop offset="0.284" stop-color="#EEEDE8"/><stop offset="0.398" stop-color="#DEDCD2"/><stop offset="0.442" stop-color="#E1DED6"/><stop offset="0.481" stop-color="#E9E6E1"/><stop offset="0.5" stop-color="#EFEBE9"/><stop offset="1" stop-color="#EFEBE9"/></linearGradient><clipPath id="clip32"><rect x="1000" y="545" width="95" height="94"/></clipPath><clipPath id="clip33"><rect x="1000" y="545" width="95" height="94"/></clipPath><clipPath id="clip34"><rect x="1000" y="545" width="95" height="94"/></clipPath></defs><g><rect x="0" y="0" width="1280" height="720" fill="#FFFFFF"/><path d="M822 441 888.292 441C889.949 441 891.292 442.343 891.292 444 891.292 445.657 889.949 447 888.292 447L822 447C820.343 447 819 445.657 819 444 819 442.343 820.343 441 822 441ZM871.804 430.909 894.246 444 871.804 457.091C870.373 457.926 868.536 457.443 867.701 456.012 866.866 454.581 867.349 452.744 868.781 451.909L886.781 441.409 886.781 446.591 868.781 436.091C867.349 435.257 866.866 433.42 867.701 431.988 868.536 430.557 870.373 430.074 871.804 430.909Z" fill="#BFBFBF"/><path d="M386 441 452.292 441C453.949 441 455.292 442.343 455.292 444 455.292 445.657 453.949 447 452.292 447L386 447C384.343 447 383 445.657 383 444 383 442.343 384.343 441 386 441ZM435.804 430.909 458.246 444 435.804 457.091C434.373 457.926 432.536 457.443 431.701 456.012 430.866 454.581 431.349 452.744 432.781 451.909L450.781 441.409 450.781 446.591 432.781 436.091C431.349 435.257 430.866 433.42 431.701 431.988 432.536 430.557 434.373 430.074 435.804 430.909Z" fill="#BFBFBF"/><rect x="458" y="47" width="340" height="95" stroke="#8BC34A" stroke-width="2" stroke-miterlimit="8" fill="none"/><rect x="807" y="47" width="15" height="95" stroke="#8BC34A" stroke-width="2" stroke-miterlimit="8" fill="#8BC34A"/><text font-family="Aptos,Aptos_MSFontService,sans-serif" font-weight="700" font-size="19" transform="translate(591.404 75)">Activity</text><text font-family="Aptos,Aptos_MSFontService,sans-serif" font-weight="400" font-size="14" transform="translate(591.404 104)">A structured experience</text><g clip-path="url(#clip0)"><g clip-path="url(#clip1)"><g clip-path="url(#clip2)"><path d="M60.3419 69.8935C60.3419 69.2871 60.3419 68.2258 60.3419 68.2258L36.6903 68.2258C36.6903 68.2258 36.6903 69.1355 36.6903 69.8935 36.6903 77.3226 34.871 83.5387 31.8387 87.7839L31.8387 89.4516 65.1936 89.4516 65.1936 87.7839C62.1613 83.5387 60.3419 77.171 60.3419 69.8935" fill="#A8A8A8" transform="matrix(1 0 0 1.00613 478.484 35.4237)"/><path d="M65.1936 89.4516 65.1936 87.7839C62.1613 83.5387 60.3419 77.171 60.3419 69.8935 60.3419 69.2871 60.3419 68.2258 60.3419 68.2258L36.6903 68.2258C36.6903 68.2258 36.8419 69.1355 36.8419 69.8935" fill="#929392" transform="matrix(1 0 0 1.00613 478.484 35.4237)"/><path d="M95.5161 64.1323C95.5161 68.529 91.7258 72.7742 87.329 72.7742L9.70323 72.7742C5.30645 72.7742 1.51613 68.6806 1.51613 64.1323L1.51613 11.8258C1.51613 7.42903 5.30645 4.54839 9.70323 4.54839L87.329 4.54839C91.7258 4.54839 95.5161 7.42903 95.5161 11.8258L95.5161 64.1323Z" fill="#D6D6D6" transform="matrix(1 0 0 1.00613 478.484 35.4237)"/><path d="M9.09677 4.54839 87.329 4.54839C91.7258 4.54839 95.5161 7.42903 95.5161 11.8258L95.5161 64.1323C95.5161 68.529 91.7258 72.7742 87.329 72.7742L47 72.7742" fill="#BCBCBC" transform="matrix(1 0 0 1.00613 478.484 35.4237)"/><path d="M87.329 4.54839 9.70323 4.54839C5.30645 4.54839 1.51613 7.42903 1.51613 11.8258L1.51613 57.6129 95.5161 57.6129 95.5161 11.8258C95.5161 7.42903 91.7258 4.54839 87.329 4.54839Z" fill="#4C5254" transform="matrix(1 0 0 1.00613 478.484 35.4237)"/><path d="M95.5161 57.6129 95.5161 11.8258C95.5161 7.42903 91.7258 4.54839 87.329 4.54839L9.70323 4.54839C5.30645 4.54839 1.66774 7.73226 1.66774 12.129" fill="#2F423F" transform="matrix(1 0 0 1.00613 478.484 35.4237)"/><path d="M51.5484 64.7387C51.5484 66.4134 50.1908 67.771 48.5161 67.771 46.8415 67.771 45.4839 66.4134 45.4839 64.7387 45.4839 63.064 46.8415 61.7065 48.5161 61.7065 50.1908 61.7065 51.5484 63.064 51.5484 64.7387Z" fill="#4C5254" transform="matrix(1 0 0 1.00613 478.484 35.4237)"/><path d="M50.6387 62.6161C51.8516 63.829 51.8516 65.6484 50.6387 66.8613 49.4258 68.0742 47.6064 68.0742 46.3935 66.8613" fill="#2F423F" transform="matrix(1 0 0 1.00613 478.484 35.4237)"/><path d="M72.7742 91.1194C72.7742 92.7871 71.4097 94 69.8935 94L25.6226 94C23.9548 94 22.7419 92.6355 22.7419 91.1194L22.7419 90.8161C22.7419 89.1484 24.1065 87.9355 25.6226 87.9355L69.8935 87.9355C71.5613 87.9355 72.7742 89.3 72.7742 90.8161L72.7742 91.1194" fill="#D6D6D6" transform="matrix(1 0 0 1.00613 478.484 35.4237)"/><path d="M25.7742 87.9355 70.8032 87.9355C72.471 87.9355 73.6839 88.9968 73.6839 90.5129 73.6839 92.1806 72.1677 93.5452 70.5 93.5452" fill="#C6C6C6" transform="matrix(1 0 0 1.00613 478.484 35.4237)"/></g></g></g><rect x="458" y="10" width="38" height="37" stroke="#8BC34A" stroke-width="2" stroke-miterlimit="8" fill="#8BC34A"/><text fill="#FFFFFF" font-family="Aptos,Aptos_MSFontService,sans-serif" font-weight="700" font-size="24" transform="translate(470.328 36)">1</text><path d="M499 59.1667C499 57.4178 500.418 56 502.167 56L552.833 56C554.582 56 556 57.4178 556 59.1667L556 71.8333C556 73.5822 554.582 75 552.833 75L502.167 75C500.418 75 499 73.5822 499 71.8333Z" fill-rule="evenodd"/><path d="M499 57.1667C499 55.4178 500.418 54 502.167 54L552.833 54C554.582 54 556 55.4178 556 57.1667L556 69.8333C556 71.5822 554.582 73 552.833 73L502.167 73C500.418 73 499 71.5822 499 69.8333Z" fill="#8BC34A" fill-rule="evenodd"/><text fill="#FFFFFF" font-family="Aptos,Aptos_MSFontService,sans-serif" font-weight="700" font-size="9" transform="translate(511.359 67)">Activity</text><g><g><g><path d="M560.836 97.843C560.735 97.843 560.635 97.843 560.434 97.7427 560.234 97.6424 560.033 97.4418 559.832 97.2412L556.121 88.6153 551.608 92.828C551.508 93.0286 551.307 93.1289 551.006 93.1289 550.906 93.1289 550.705 93.1289 550.605 93.0286 550.304 92.9283 550.003 92.5271 550.003 92.1259L550.003 70.0597C550.003 69.6585 550.204 69.2573 550.605 69.157 550.705 69.0567 550.906 69.0567 551.006 69.0567 551.207 69.0567 551.508 69.157 551.708 69.3576L567.756 84.4027C568.057 84.7036 568.157 85.1048 568.057 85.506 567.957 85.9072 567.556 86.1078 567.154 86.2081L560.836 86.8099 564.747 95.3355C564.848 95.5361 564.848 95.837 564.747 96.1379 564.647 96.3385 564.446 96.6394 564.246 96.7397L561.337 98.0436C561.136 97.843 560.936 97.843 560.836 97.843Z" fill="#E0E0E0"/><path d="M551.006 70.0597 567.054 85.1048 559.331 85.8069 563.845 95.6364 560.936 96.9403 556.623 87.0105 551.006 92.1259 551.006 70.0597M551.006 68.0537C550.705 68.0537 550.505 68.154 550.204 68.2543 549.501 68.5552 549 69.2573 549 70.0597L549 92.1259C549 92.9283 549.501 93.6304 550.204 93.9313 550.505 94.1319 550.805 94.1319 551.006 94.1319 551.508 94.1319 552.009 93.9313 552.41 93.6304L555.82 90.4208 558.93 97.7427C559.13 98.2442 559.532 98.6454 560.033 98.846 560.234 98.9463 560.535 98.9463 560.735 98.9463 561.036 98.9463 561.237 98.846 561.538 98.7457L564.446 97.4418C564.948 97.2412 565.349 96.84 565.55 96.3385 565.75 95.837 565.75 95.2352 565.55 94.834L562.24 87.6123 567.154 87.2111C567.957 87.1108 568.659 86.6093 568.86 85.9072 569.16 85.2051 568.96 84.3024 568.358 83.8009L552.31 68.7558C552.009 68.2543 551.508 68.0537 551.006 68.0537L551.006 68.0537Z" fill="#212121"/></g></g></g><rect x="894" y="47" width="341" height="95" stroke="#CDDC39" stroke-width="2" stroke-miterlimit="8" fill="none"/><rect x="1244" y="47" width="15" height="95" stroke="#CDDC39" stroke-width="2" stroke-miterlimit="8" fill="#CDDC39"/><text font-family="Aptos,Aptos_MSFontService,sans-serif" font-weight="700" font-size="19" transform="translate(1027.94 75)">Stimulus</text><text font-family="Aptos,Aptos_MSFontService,sans-serif" font-weight="400" font-size="14" transform="translate(1027.94 104)">What triggers an Activity step</text><g clip-path="url(#clip3)"><g clip-path="url(#clip4)"><g clip-path="url(#clip5)"><path d="M60.3419 69.8935C60.3419 69.2871 60.3419 68.2258 60.3419 68.2258L36.6903 68.2258C36.6903 68.2258 36.6903 69.1355 36.6903 69.8935 36.6903 77.3226 34.871 83.5387 31.8387 87.7839L31.8387 89.4516 65.1936 89.4516 65.1936 87.7839C62.1613 83.5387 60.3419 77.171 60.3419 69.8935" fill="#A8A8A8" transform="matrix(1 0 0 1.00613 915.484 35.4237)"/><path d="M65.1936 89.4516 65.1936 87.7839C62.1613 83.5387 60.3419 77.171 60.3419 69.8935 60.3419 69.2871 60.3419 68.2258 60.3419 68.2258L36.6903 68.2258C36.6903 68.2258 36.8419 69.1355 36.8419 69.8935" fill="#929392" transform="matrix(1 0 0 1.00613 915.484 35.4237)"/><path d="M95.5161 64.1323C95.5161 68.529 91.7258 72.7742 87.329 72.7742L9.70323 72.7742C5.30645 72.7742 1.51613 68.6806 1.51613 64.1323L1.51613 11.8258C1.51613 7.42903 5.30645 4.54839 9.70323 4.54839L87.329 4.54839C91.7258 4.54839 95.5161 7.42903 95.5161 11.8258L95.5161 64.1323Z" fill="#D6D6D6" transform="matrix(1 0 0 1.00613 915.484 35.4237)"/><path d="M9.09677 4.54839 87.329 4.54839C91.7258 4.54839 95.5161 7.42903 95.5161 11.8258L95.5161 64.1323C95.5161 68.529 91.7258 72.7742 87.329 72.7742L47 72.7742" fill="#BCBCBC" transform="matrix(1 0 0 1.00613 915.484 35.4237)"/><path d="M87.329 4.54839 9.70323 4.54839C5.30645 4.54839 1.51613 7.42903 1.51613 11.8258L1.51613 57.6129 95.5161 57.6129 95.5161 11.8258C95.5161 7.42903 91.7258 4.54839 87.329 4.54839Z" fill="#4C5254" transform="matrix(1 0 0 1.00613 915.484 35.4237)"/><path d="M95.5161 57.6129 95.5161 11.8258C95.5161 7.42903 91.7258 4.54839 87.329 4.54839L9.70323 4.54839C5.30645 4.54839 1.66774 7.73226 1.66774 12.129" fill="#2F423F" transform="matrix(1 0 0 1.00613 915.484 35.4237)"/><path d="M51.5484 64.7387C51.5484 66.4134 50.1908 67.771 48.5161 67.771 46.8415 67.771 45.4839 66.4134 45.4839 64.7387 45.4839 63.064 46.8415 61.7065 48.5161 61.7065 50.1908 61.7065 51.5484 63.064 51.5484 64.7387Z" fill="#4C5254" transform="matrix(1 0 0 1.00613 915.484 35.4237)"/><path d="M50.6387 62.6161C51.8516 63.829 51.8516 65.6484 50.6387 66.8613 49.4258 68.0742 47.6064 68.0742 46.3935 66.8613" fill="#2F423F" transform="matrix(1 0 0 1.00613 915.484 35.4237)"/><path d="M72.7742 91.1194C72.7742 92.7871 71.4097 94 69.8935 94L25.6226 94C23.9548 94 22.7419 92.6355 22.7419 91.1194L22.7419 90.8161C22.7419 89.1484 24.1065 87.9355 25.6226 87.9355L69.8935 87.9355C71.5613 87.9355 72.7742 89.3 72.7742 90.8161L72.7742 91.1194" fill="#D6D6D6" transform="matrix(1 0 0 1.00613 915.484 35.4237)"/><path d="M25.7742 87.9355 70.8032 87.9355C72.471 87.9355 73.6839 88.9968 73.6839 90.5129 73.6839 92.1806 72.1677 93.5452 70.5 93.5452" fill="#C6C6C6" transform="matrix(1 0 0 1.00613 915.484 35.4237)"/></g></g></g><rect x="894" y="10" width="38" height="37" stroke="#CDDC39" stroke-width="2" stroke-miterlimit="8" fill="#CDDC39"/><text font-family="Aptos,Aptos_MSFontService,sans-serif" font-weight="700" font-size="24" transform="translate(906.866 36)">2</text><path d="M936 59.1667C936 57.4178 937.418 56 939.167 56L988.833 56C990.582 56 992 57.4178 992 59.1667L992 71.8333C992 73.5822 990.582 75 988.833 75L939.167 75C937.418 75 936 73.5822 936 71.8333Z" fill-rule="evenodd"/><path d="M936 57.1667C936 55.4178 937.418 54 939.167 54L988.833 54C990.582 54 992 55.4178 992 57.1667L992 69.8333C992 71.5822 990.582 73 988.833 73L939.167 73C937.418 73 936 71.5822 936 69.8333Z" fill="#8BC34A" fill-rule="evenodd"/><text fill="#FFFFFF" font-family="Aptos,Aptos_MSFontService,sans-serif" font-weight="700" font-size="9" transform="translate(944.729 67)">Stimulus</text><g><g><g><path d="M997.836 97.843C997.735 97.843 997.635 97.843 997.434 97.7427 997.234 97.6424 997.033 97.4418 996.832 97.2412L993.121 88.6153 988.608 92.828C988.508 93.0286 988.307 93.1289 988.006 93.1289 987.906 93.1289 987.705 93.1289 987.605 93.0286 987.304 92.9283 987.003 92.5271 987.003 92.1259L987.003 70.0597C987.003 69.6585 987.204 69.2573 987.605 69.157 987.705 69.0567 987.906 69.0567 988.006 69.0567 988.207 69.0567 988.508 69.157 988.708 69.3576L1004.76 84.4027C1005.06 84.7036 1005.16 85.1048 1005.06 85.506 1004.96 85.9072 1004.56 86.1078 1004.15 86.2081L997.836 86.8099 1001.75 95.3355C1001.85 95.5361 1001.85 95.837 1001.75 96.1379 1001.65 96.3385 1001.45 96.6394 1001.25 96.7397L998.337 98.0436C998.136 97.843 997.936 97.843 997.836 97.843Z" fill="#E0E0E0"/><path d="M988.006 70.0597 1004.05 85.1048 996.331 85.8069 1000.84 95.6364 997.936 96.9403 993.623 87.0105 988.006 92.1259 988.006 70.0597M988.006 68.0537C987.705 68.0537 987.505 68.154 987.204 68.2543 986.501 68.5552 986 69.2573 986 70.0597L986 92.1259C986 92.9283 986.501 93.6304 987.204 93.9313 987.505 94.1319 987.805 94.1319 988.006 94.1319 988.508 94.1319 989.009 93.9313 989.41 93.6304L992.82 90.4208 995.93 97.7427C996.13 98.2442 996.532 98.6454 997.033 98.846 997.234 98.9463 997.535 98.9463 997.735 98.9463 998.036 98.9463 998.237 98.846 998.538 98.7457L1001.45 97.4418C1001.95 97.2412 1002.35 96.84 1002.55 96.3385 1002.75 95.837 1002.75 95.2352 1002.55 94.834L999.24 87.6123 1004.15 87.2111C1004.96 87.1108 1005.66 86.6093 1005.86 85.9072 1006.16 85.2051 1005.96 84.3024 1005.36 83.8009L989.31 68.7558C989.009 68.2543 988.508 68.0537 988.006 68.0537L988.006 68.0537Z" fill="#212121"/></g></g></g><rect x="679" y="222" width="340" height="94" stroke="#FFEB3B" stroke-width="2" stroke-miterlimit="8" fill="none"/><rect x="1028" y="222" width="15" height="94" stroke="#FFEB3B" stroke-width="2" stroke-miterlimit="8" fill="#FFEB3B"/><text font-family="Aptos,Aptos_MSFontService,sans-serif" font-weight="700" font-size="19" transform="translate(812.298 250)">Activity Step</text><text font-family="Aptos,Aptos_MSFontService,sans-serif" font-weight="400" font-size="14" transform="translate(812.298 278)">A specific task within an Activity</text><g clip-path="url(#clip6)"><g clip-path="url(#clip7)"><g clip-path="url(#clip8)"><path d="M60.0373 69.5407C60.0373 68.9373 60.0373 67.8814 60.0373 67.8814L36.5051 67.8814C36.5051 67.8814 36.5051 68.7864 36.5051 69.5407 36.5051 76.9322 34.6949 83.117 31.678 87.3407L31.678 89 64.8644 89 64.8644 87.3407C61.8475 83.117 60.0373 76.7814 60.0373 69.5407" fill="#A8A8A8" transform="matrix(1.00507 0 0 1 699.484 210.475)"/><path d="M64.8644 89 64.8644 87.3407C61.8475 83.117 60.0373 76.7814 60.0373 69.5407 60.0373 68.9373 60.0373 67.8814 60.0373 67.8814L36.5051 67.8814C36.5051 67.8814 36.6559 68.7864 36.6559 69.5407" fill="#929392" transform="matrix(1.00507 0 0 1 699.484 210.475)"/><path d="M95.0339 63.8085C95.0339 68.1831 91.2627 72.4068 86.8881 72.4068L9.65424 72.4068C5.27966 72.4068 1.50847 68.3339 1.50847 63.8085L1.50847 11.7661C1.50847 7.39153 5.27966 4.52542 9.65424 4.52542L86.8881 4.52542C91.2627 4.52542 95.0339 7.39153 95.0339 11.7661L95.0339 63.8085Z" fill="#D6D6D6" transform="matrix(1.00507 0 0 1 699.484 210.475)"/><path d="M9.05085 4.52542 86.8881 4.52542C91.2627 4.52542 95.0339 7.39153 95.0339 11.7661L95.0339 63.8085C95.0339 68.1831 91.2627 72.4068 86.8881 72.4068L46.7627 72.4068" fill="#BCBCBC" transform="matrix(1.00507 0 0 1 699.484 210.475)"/><path d="M86.8881 4.52542 9.65424 4.52542C5.27966 4.52542 1.50847 7.39153 1.50847 11.7661L1.50847 57.322 95.0339 57.322 95.0339 11.7661C95.0339 7.39153 91.2627 4.52542 86.8881 4.52542Z" fill="#4C5254" transform="matrix(1.00507 0 0 1 699.484 210.475)"/><path d="M95.0339 57.322 95.0339 11.7661C95.0339 7.39153 91.2627 4.52542 86.8881 4.52542L9.65424 4.52542C5.27966 4.52542 1.65932 7.69322 1.65932 12.0678" fill="#2F423F" transform="matrix(1.00507 0 0 1 699.484 210.475)"/><path d="M51.2881 64.4119C51.2881 66.0781 49.9374 67.4288 48.2712 67.4288 46.605 67.4288 45.2542 66.0781 45.2542 64.4119 45.2542 62.7457 46.605 61.3949 48.2712 61.3949 49.9374 61.3949 51.2881 62.7457 51.2881 64.4119Z" fill="#4C5254" transform="matrix(1.00507 0 0 1 699.484 210.475)"/><path d="M50.3831 62.3C51.5898 63.5068 51.5898 65.3169 50.3831 66.5237 49.1763 67.7305 47.3661 67.7305 46.1593 66.5237" fill="#2F423F" transform="matrix(1.00507 0 0 1 699.484 210.475)"/><path d="M72.4068 90.6593C72.4068 92.3186 71.0491 93.5254 69.5407 93.5254L25.4932 93.5254C23.8339 93.5254 22.6271 92.1678 22.6271 90.6593L22.6271 90.3576C22.6271 88.6983 23.9847 87.4915 25.4932 87.4915L69.5407 87.4915C71.2 87.4915 72.4068 88.8492 72.4068 90.3576L72.4068 90.6593" fill="#D6D6D6" transform="matrix(1.00507 0 0 1 699.484 210.475)"/><path d="M25.6441 87.4915 70.4458 87.4915C72.1051 87.4915 73.3119 88.5475 73.3119 90.0559 73.3119 91.7153 71.8034 93.0729 70.1441 93.0729" fill="#C6C6C6" transform="matrix(1.00507 0 0 1 699.484 210.475)"/></g></g></g><rect x="679" y="184" width="38" height="38" stroke="#FFEB3B" stroke-width="2" stroke-miterlimit="8" fill="#FFEB3B"/><text font-family="Aptos,Aptos_MSFontService,sans-serif" font-weight="700" font-size="24" transform="translate(691.223 211)">3</text><path d="M720 234.167C720 232.418 721.418 231 723.167 231L773.833 231C775.582 231 777 232.418 777 234.167L777 246.833C777 248.582 775.582 250 773.833 250L723.167 250C721.418 250 720 248.582 720 246.833Z" fill-rule="evenodd"/><path d="M720 231.167C720 229.418 721.418 228 723.167 228L773.833 228C775.582 228 777 229.418 777 231.167L777 243.833C777 245.582 775.582 247 773.833 247L723.167 247C721.418 247 720 245.582 720 243.833Z" stroke="#FFFF00" stroke-width="2" stroke-miterlimit="8" fill="#FFFF00" fill-rule="evenodd"/><text font-family="Aptos,Aptos_MSFontService,sans-serif" font-weight="700" font-size="9" transform="translate(738.503 241)">Step</text><g><g><g><path d="M781.836 272.843C781.735 272.843 781.635 272.843 781.434 272.743 781.234 272.642 781.033 272.442 780.832 272.241L777.121 263.615 772.608 267.828C772.508 268.029 772.307 268.129 772.006 268.129 771.906 268.129 771.705 268.129 771.605 268.029 771.304 267.928 771.003 267.527 771.003 267.126L771.003 245.06C771.003 244.658 771.204 244.257 771.605 244.157 771.705 244.057 771.906 244.057 772.006 244.057 772.207 244.057 772.508 244.157 772.708 244.358L788.756 259.403C789.057 259.704 789.157 260.105 789.057 260.506 788.957 260.907 788.556 261.108 788.154 261.208L781.836 261.81 785.747 270.336C785.848 270.536 785.848 270.837 785.747 271.138 785.647 271.339 785.446 271.639 785.246 271.74L782.337 273.044C782.136 272.843 781.936 272.843 781.836 272.843Z" fill="#E0E0E0"/><path d="M772.006 245.06 788.054 260.105 780.331 260.807 784.845 270.636 781.936 271.94 777.623 262.011 772.006 267.126 772.006 245.06M772.006 243.054C771.705 243.054 771.505 243.154 771.204 243.254 770.501 243.555 770 244.257 770 245.06L770 267.126C770 267.928 770.501 268.63 771.204 268.931 771.505 269.132 771.805 269.132 772.006 269.132 772.508 269.132 773.009 268.931 773.41 268.63L776.82 265.421 779.93 272.743C780.13 273.244 780.532 273.645 781.033 273.846 781.234 273.946 781.535 273.946 781.735 273.946 782.036 273.946 782.237 273.846 782.538 273.746L785.446 272.442C785.948 272.241 786.349 271.84 786.55 271.339 786.75 270.837 786.75 270.235 786.55 269.834L783.24 262.612 788.154 262.211C788.957 262.111 789.659 261.609 789.86 260.907 790.16 260.205 789.96 259.302 789.358 258.801L773.31 243.756C773.009 243.254 772.508 243.054 772.006 243.054L772.006 243.054Z" fill="#212121"/></g></g></g><rect x="242" y="222" width="340" height="94" stroke="#FF9800" stroke-width="2" stroke-miterlimit="8" fill="none"/><rect x="591" y="222" width="16" height="94" stroke="#FF9800" stroke-width="2" stroke-miterlimit="8" fill="#FF9800"/><text font-family="Aptos,Aptos_MSFontService,sans-serif" font-weight="700" font-size="19" transform="translate(375.761 250)">Event</text><text font-family="Aptos,Aptos_MSFontService,sans-serif" font-weight="400" font-size="14" transform="translate(375.761 278)">An implementation of an Activity</text><text font-family="Aptos,Aptos_MSFontService,sans-serif" font-weight="400" font-size="14" transform="translate(375.761 295)">(specific location, time)</text><g clip-path="url(#clip9)"><g clip-path="url(#clip10)"><g clip-path="url(#clip11)"><path d="M60.0373 69.5407C60.0373 68.9373 60.0373 67.8814 60.0373 67.8814L36.5051 67.8814C36.5051 67.8814 36.5051 68.7864 36.5051 69.5407 36.5051 76.9322 34.6949 83.117 31.678 87.3407L31.678 89 64.8644 89 64.8644 87.3407C61.8475 83.117 60.0373 76.7814 60.0373 69.5407" fill="#A8A8A8" transform="matrix(1.00507 0 0 1 263.484 210.475)"/><path d="M64.8644 89 64.8644 87.3407C61.8475 83.117 60.0373 76.7814 60.0373 69.5407 60.0373 68.9373 60.0373 67.8814 60.0373 67.8814L36.5051 67.8814C36.5051 67.8814 36.6559 68.7864 36.6559 69.5407" fill="#929392" transform="matrix(1.00507 0 0 1 263.484 210.475)"/><path d="M95.0339 63.8085C95.0339 68.1831 91.2627 72.4068 86.8881 72.4068L9.65424 72.4068C5.27966 72.4068 1.50847 68.3339 1.50847 63.8085L1.50847 11.7661C1.50847 7.39153 5.27966 4.52542 9.65424 4.52542L86.8881 4.52542C91.2627 4.52542 95.0339 7.39153 95.0339 11.7661L95.0339 63.8085Z" fill="#D6D6D6" transform="matrix(1.00507 0 0 1 263.484 210.475)"/><path d="M9.05085 4.52542 86.8881 4.52542C91.2627 4.52542 95.0339 7.39153 95.0339 11.7661L95.0339 63.8085C95.0339 68.1831 91.2627 72.4068 86.8881 72.4068L46.7627 72.4068" fill="#BCBCBC" transform="matrix(1.00507 0 0 1 263.484 210.475)"/><path d="M86.8881 4.52542 9.65424 4.52542C5.27966 4.52542 1.50847 7.39153 1.50847 11.7661L1.50847 57.322 95.0339 57.322 95.0339 11.7661C95.0339 7.39153 91.2627 4.52542 86.8881 4.52542Z" fill="#4C5254" transform="matrix(1.00507 0 0 1 263.484 210.475)"/><path d="M95.0339 57.322 95.0339 11.7661C95.0339 7.39153 91.2627 4.52542 86.8881 4.52542L9.65424 4.52542C5.27966 4.52542 1.65932 7.69322 1.65932 12.0678" fill="#2F423F" transform="matrix(1.00507 0 0 1 263.484 210.475)"/><path d="M51.2881 64.4119C51.2881 66.0781 49.9374 67.4288 48.2712 67.4288 46.605 67.4288 45.2542 66.0781 45.2542 64.4119 45.2542 62.7457 46.605 61.3949 48.2712 61.3949 49.9374 61.3949 51.2881 62.7457 51.2881 64.4119Z" fill="#4C5254" transform="matrix(1.00507 0 0 1 263.484 210.475)"/><path d="M50.3831 62.3C51.5898 63.5068 51.5898 65.3169 50.3831 66.5237 49.1763 67.7305 47.3661 67.7305 46.1593 66.5237" fill="#2F423F" transform="matrix(1.00507 0 0 1 263.484 210.475)"/><path d="M72.4068 90.6593C72.4068 92.3186 71.0491 93.5254 69.5407 93.5254L25.4932 93.5254C23.8339 93.5254 22.6271 92.1678 22.6271 90.6593L22.6271 90.3576C22.6271 88.6983 23.9847 87.4915 25.4932 87.4915L69.5407 87.4915C71.2 87.4915 72.4068 88.8492 72.4068 90.3576L72.4068 90.6593" fill="#D6D6D6" transform="matrix(1.00507 0 0 1 263.484 210.475)"/><path d="M25.6441 87.4915 70.4458 87.4915C72.1051 87.4915 73.3119 88.5475 73.3119 90.0559 73.3119 91.7153 71.8034 93.0729 70.1441 93.0729" fill="#C6C6C6" transform="matrix(1.00507 0 0 1 263.484 210.475)"/></g></g></g><rect x="242" y="184" width="38" height="38" stroke="#FF9800" stroke-width="2" stroke-miterlimit="8" fill="#FF9800"/><text font-family="Aptos,Aptos_MSFontService,sans-serif" font-weight="700" font-size="24" transform="translate(254.686 211)">4</text><path d="M283 234.167C283 232.418 284.418 231 286.167 231L336.833 231C338.582 231 340 232.418 340 234.167L340 246.833C340 248.582 338.582 250 336.833 250L286.167 250C284.418 250 283 248.582 283 246.833Z" fill-rule="evenodd"/><path d="M283 231.167C283 229.418 284.418 228 286.167 228L336.833 228C338.582 228 340 229.418 340 231.167L340 243.833C340 245.582 338.582 247 336.833 247L286.167 247C284.418 247 283 245.582 283 243.833Z" stroke="#FF9800" stroke-width="2" stroke-miterlimit="8" fill="#FF9800" fill-rule="evenodd"/><text font-family="Aptos,Aptos_MSFontService,sans-serif" font-weight="700" font-size="9" transform="translate(299.799 241)">Event</text><g><g><g><path d="M345.836 272.843C345.735 272.843 345.635 272.843 345.434 272.743 345.234 272.642 345.033 272.442 344.832 272.241L341.121 263.615 336.608 267.828C336.508 268.029 336.307 268.129 336.006 268.129 335.906 268.129 335.705 268.129 335.605 268.029 335.304 267.928 335.003 267.527 335.003 267.126L335.003 245.06C335.003 244.658 335.204 244.257 335.605 244.157 335.705 244.057 335.906 244.057 336.006 244.057 336.207 244.057 336.508 244.157 336.708 244.358L352.756 259.403C353.057 259.704 353.157 260.105 353.057 260.506 352.957 260.907 352.556 261.108 352.154 261.208L345.836 261.81 349.747 270.336C349.848 270.536 349.848 270.837 349.747 271.138 349.647 271.339 349.446 271.639 349.246 271.74L346.337 273.044C346.136 272.843 345.936 272.843 345.836 272.843Z" fill="#E0E0E0"/><path d="M336.006 245.06 352.054 260.105 344.331 260.807 348.845 270.636 345.936 271.94 341.623 262.011 336.006 267.126 336.006 245.06M336.006 243.054C335.705 243.054 335.505 243.154 335.204 243.254 334.501 243.555 334 244.257 334 245.06L334 267.126C334 267.928 334.501 268.63 335.204 268.931 335.505 269.132 335.805 269.132 336.006 269.132 336.508 269.132 337.009 268.931 337.41 268.63L340.82 265.421 343.93 272.743C344.13 273.244 344.532 273.645 345.033 273.846 345.234 273.946 345.535 273.946 345.735 273.946 346.036 273.946 346.237 273.846 346.538 273.746L349.446 272.442C349.948 272.241 350.349 271.84 350.55 271.339 350.75 270.837 350.75 270.235 350.55 269.834L347.24 262.612 352.154 262.211C352.957 262.111 353.659 261.609 353.86 260.907 354.16 260.205 353.96 259.302 353.358 258.801L337.31 243.756C337.009 243.254 336.508 243.054 336.006 243.054L336.006 243.054Z" fill="#212121"/></g></g></g><rect x="21" y="397" width="340" height="94" stroke="#FF5722" stroke-width="2" stroke-miterlimit="8" fill="none"/><rect x="370" y="397" width="16" height="94" stroke="#FF5722" stroke-width="2" stroke-miterlimit="8" fill="#FF5722"/><text font-family="Aptos,Aptos_MSFontService,sans-serif" font-weight="700" font-size="19" transform="translate(154.866 425)">Visitor Group</text><text font-family="Aptos,Aptos_MSFontService,sans-serif" font-weight="400" font-size="14" transform="translate(154.866 453)">Event’s</text><text font-family="Aptos,Aptos_MSFontService,sans-serif" font-weight="400" font-size="14" transform="translate(202.033 453)">target</text><text font-family="Aptos,Aptos_MSFontService,sans-serif" font-weight="400" font-size="14" transform="translate(240.2 453)">audience</text><text font-family="Aptos,Aptos_MSFontService,sans-serif" font-weight="400" font-size="14" transform="translate(299.2 453)">with</text><text font-family="Aptos,Aptos_MSFontService,sans-serif" font-weight="400" font-size="14" transform="translate(154.866 470)">predefined</text><text font-family="Aptos,Aptos_MSFontService,sans-serif" font-weight="400" font-size="14" transform="translate(223.033 470)">socio</text><text font-family="Aptos,Aptos_MSFontService,sans-serif" font-weight="400" font-size="14" transform="translate(255.866 470)">-</text><text font-family="Aptos,Aptos_MSFontService,sans-serif" font-weight="400" font-size="14" transform="translate(260.7 470)">demographics</text><g clip-path="url(#clip12)"><g clip-path="url(#clip13)"><g clip-path="url(#clip14)"><path d="M60.3419 69.8935C60.3419 69.2871 60.3419 68.2258 60.3419 68.2258L36.6903 68.2258C36.6903 68.2258 36.6903 69.1355 36.6903 69.8935 36.6903 77.3226 34.871 83.5387 31.8387 87.7839L31.8387 89.4516 65.1936 89.4516 65.1936 87.7839C62.1613 83.5387 60.3419 77.171 60.3419 69.8935" fill="#A8A8A8" transform="matrix(1 0 0 1.00613 42.4839 384.424)"/><path d="M65.1936 89.4516 65.1936 87.7839C62.1613 83.5387 60.3419 77.171 60.3419 69.8935 60.3419 69.2871 60.3419 68.2258 60.3419 68.2258L36.6903 68.2258C36.6903 68.2258 36.8419 69.1355 36.8419 69.8935" fill="#929392" transform="matrix(1 0 0 1.00613 42.4839 384.424)"/><path d="M95.5161 64.1323C95.5161 68.529 91.7258 72.7742 87.329 72.7742L9.70323 72.7742C5.30645 72.7742 1.51613 68.6806 1.51613 64.1323L1.51613 11.8258C1.51613 7.42903 5.30645 4.54839 9.70323 4.54839L87.329 4.54839C91.7258 4.54839 95.5161 7.42903 95.5161 11.8258L95.5161 64.1323Z" fill="#D6D6D6" transform="matrix(1 0 0 1.00613 42.4839 384.424)"/><path d="M9.09677 4.54839 87.329 4.54839C91.7258 4.54839 95.5161 7.42903 95.5161 11.8258L95.5161 64.1323C95.5161 68.529 91.7258 72.7742 87.329 72.7742L47 72.7742" fill="#BCBCBC" transform="matrix(1 0 0 1.00613 42.4839 384.424)"/><path d="M87.329 4.54839 9.70323 4.54839C5.30645 4.54839 1.51613 7.42903 1.51613 11.8258L1.51613 57.6129 95.5161 57.6129 95.5161 11.8258C95.5161 7.42903 91.7258 4.54839 87.329 4.54839Z" fill="#4C5254" transform="matrix(1 0 0 1.00613 42.4839 384.424)"/><path d="M95.5161 57.6129 95.5161 11.8258C95.5161 7.42903 91.7258 4.54839 87.329 4.54839L9.70323 4.54839C5.30645 4.54839 1.66774 7.73226 1.66774 12.129" fill="#2F423F" transform="matrix(1 0 0 1.00613 42.4839 384.424)"/><path d="M51.5484 64.7387C51.5484 66.4134 50.1908 67.771 48.5161 67.771 46.8415 67.771 45.4839 66.4134 45.4839 64.7387 45.4839 63.064 46.8415 61.7065 48.5161 61.7065 50.1908 61.7065 51.5484 63.064 51.5484 64.7387Z" fill="#4C5254" transform="matrix(1 0 0 1.00613 42.4839 384.424)"/><path d="M50.6387 62.6161C51.8516 63.829 51.8516 65.6484 50.6387 66.8613 49.4258 68.0742 47.6064 68.0742 46.3935 66.8613" fill="#2F423F" transform="matrix(1 0 0 1.00613 42.4839 384.424)"/><path d="M72.7742 91.1194C72.7742 92.7871 71.4097 94 69.8935 94L25.6226 94C23.9548 94 22.7419 92.6355 22.7419 91.1194L22.7419 90.8161C22.7419 89.1484 24.1065 87.9355 25.6226 87.9355L69.8935 87.9355C71.5613 87.9355 72.7742 89.3 72.7742 90.8161L72.7742 91.1194" fill="#D6D6D6" transform="matrix(1 0 0 1.00613 42.4839 384.424)"/><path d="M25.7742 87.9355 70.8032 87.9355C72.471 87.9355 73.6839 88.9968 73.6839 90.5129 73.6839 92.1806 72.1677 93.5452 70.5 93.5452" fill="#C6C6C6" transform="matrix(1 0 0 1.00613 42.4839 384.424)"/></g></g></g><rect x="21" y="359" width="38" height="38" stroke="#FF5722" stroke-width="2" stroke-miterlimit="8" fill="#FF5722"/><text font-family="Aptos,Aptos_MSFontService,sans-serif" font-weight="700" font-size="24" transform="translate(33.7911 385)">5</text><path d="M62 408.167C62 406.418 63.4178 405 65.1667 405L115.833 405C117.582 405 119 406.418 119 408.167L119 420.833C119 422.582 117.582 424 115.833 424L65.1667 424C63.4178 424 62 422.582 62 420.833Z" fill-rule="evenodd"/><path d="M62 406.167C62 404.418 63.4178 403 65.1667 403L115.833 403C117.582 403 119 404.418 119 406.167L119 418.833C119 420.582 117.582 422 115.833 422L65.1667 422C63.4178 422 62 420.582 62 418.833Z" stroke="#FF5722" stroke-width="2" stroke-miterlimit="8" fill="#FF5722" fill-rule="evenodd"/><text font-family="Aptos,Aptos_MSFontService,sans-serif" font-weight="700" font-size="9" transform="translate(77.5715 416)">Group</text><g><g><g><path d="M124.836 447.843C124.735 447.843 124.635 447.843 124.434 447.743 124.234 447.642 124.033 447.442 123.833 447.241L120.121 438.615 115.608 442.828C115.508 443.029 115.307 443.129 115.006 443.129 114.906 443.129 114.705 443.129 114.605 443.029 114.304 442.928 114.003 442.527 114.003 442.126L114.003 420.06C114.003 419.658 114.204 419.257 114.605 419.157 114.705 419.057 114.906 419.057 115.006 419.057 115.207 419.057 115.508 419.157 115.708 419.358L131.756 434.403C132.057 434.704 132.157 435.105 132.057 435.506 131.957 435.907 131.556 436.108 131.154 436.208L124.836 436.81 128.747 445.336C128.848 445.536 128.848 445.837 128.747 446.138 128.647 446.339 128.446 446.639 128.246 446.74L125.337 448.044C125.136 447.843 124.936 447.843 124.836 447.843Z" fill="#E0E0E0"/><path d="M115.006 420.06 131.054 435.105 123.331 435.807 127.845 445.636 124.936 446.94 120.623 437.011 115.006 442.126 115.006 420.06M115.006 418.054C114.705 418.054 114.505 418.154 114.204 418.254 113.502 418.555 113 419.257 113 420.06L113 442.126C113 442.928 113.502 443.63 114.204 443.931 114.505 444.132 114.805 444.132 115.006 444.132 115.508 444.132 116.009 443.931 116.41 443.63L119.82 440.421 122.93 447.743C123.13 448.244 123.532 448.645 124.033 448.846 124.234 448.946 124.535 448.946 124.735 448.946 125.036 448.946 125.237 448.846 125.538 448.746L128.446 447.442C128.948 447.241 129.349 446.84 129.55 446.339 129.75 445.837 129.75 445.235 129.55 444.834L126.24 437.612 131.154 437.211C131.957 437.111 132.659 436.609 132.86 435.907 133.16 435.205 132.96 434.302 132.358 433.801L116.31 418.756C116.009 418.254 115.508 418.054 115.006 418.054L115.006 418.054Z" fill="#212121"/></g></g></g><rect x="458" y="397" width="340" height="94" stroke="#E91E63" stroke-width="2" stroke-miterlimit="8" fill="none"/><rect x="807" y="397" width="15" height="94" stroke="#E91E63" stroke-width="2" stroke-miterlimit="8" fill="#E91E63"/><text font-family="Aptos,Aptos_MSFontService,sans-serif" font-weight="700" font-size="19" transform="translate(591.404 425)">Visitor</text><text font-family="Aptos,Aptos_MSFontService,sans-serif" font-weight="400" font-size="14" transform="translate(591.404 453)">A citizen participating in an</text><text font-family="Aptos,Aptos_MSFontService,sans-serif" font-weight="400" font-size="14" transform="translate(591.404 470)">Event</text><g clip-path="url(#clip15)"><g clip-path="url(#clip16)"><g clip-path="url(#clip17)"><path d="M60.3419 69.8935C60.3419 69.2871 60.3419 68.2258 60.3419 68.2258L36.6903 68.2258C36.6903 68.2258 36.6903 69.1355 36.6903 69.8935 36.6903 77.3226 34.871 83.5387 31.8387 87.7839L31.8387 89.4516 65.1936 89.4516 65.1936 87.7839C62.1613 83.5387 60.3419 77.171 60.3419 69.8935" fill="#A8A8A8" transform="matrix(1 0 0 1.00613 478.484 384.424)"/><path d="M65.1936 89.4516 65.1936 87.7839C62.1613 83.5387 60.3419 77.171 60.3419 69.8935 60.3419 69.2871 60.3419 68.2258 60.3419 68.2258L36.6903 68.2258C36.6903 68.2258 36.8419 69.1355 36.8419 69.8935" fill="#929392" transform="matrix(1 0 0 1.00613 478.484 384.424)"/><path d="M95.5161 64.1323C95.5161 68.529 91.7258 72.7742 87.329 72.7742L9.70323 72.7742C5.30645 72.7742 1.51613 68.6806 1.51613 64.1323L1.51613 11.8258C1.51613 7.42903 5.30645 4.54839 9.70323 4.54839L87.329 4.54839C91.7258 4.54839 95.5161 7.42903 95.5161 11.8258L95.5161 64.1323Z" fill="#D6D6D6" transform="matrix(1 0 0 1.00613 478.484 384.424)"/><path d="M9.09677 4.54839 87.329 4.54839C91.7258 4.54839 95.5161 7.42903 95.5161 11.8258L95.5161 64.1323C95.5161 68.529 91.7258 72.7742 87.329 72.7742L47 72.7742" fill="#BCBCBC" transform="matrix(1 0 0 1.00613 478.484 384.424)"/><path d="M87.329 4.54839 9.70323 4.54839C5.30645 4.54839 1.51613 7.42903 1.51613 11.8258L1.51613 57.6129 95.5161 57.6129 95.5161 11.8258C95.5161 7.42903 91.7258 4.54839 87.329 4.54839Z" fill="#4C5254" transform="matrix(1 0 0 1.00613 478.484 384.424)"/><path d="M95.5161 57.6129 95.5161 11.8258C95.5161 7.42903 91.7258 4.54839 87.329 4.54839L9.70323 4.54839C5.30645 4.54839 1.66774 7.73226 1.66774 12.129" fill="#2F423F" transform="matrix(1 0 0 1.00613 478.484 384.424)"/><path d="M51.5484 64.7387C51.5484 66.4134 50.1908 67.771 48.5161 67.771 46.8415 67.771 45.4839 66.4134 45.4839 64.7387 45.4839 63.064 46.8415 61.7065 48.5161 61.7065 50.1908 61.7065 51.5484 63.064 51.5484 64.7387Z" fill="#4C5254" transform="matrix(1 0 0 1.00613 478.484 384.424)"/><path d="M50.6387 62.6161C51.8516 63.829 51.8516 65.6484 50.6387 66.8613 49.4258 68.0742 47.6064 68.0742 46.3935 66.8613" fill="#2F423F" transform="matrix(1 0 0 1.00613 478.484 384.424)"/><path d="M72.7742 91.1194C72.7742 92.7871 71.4097 94 69.8935 94L25.6226 94C23.9548 94 22.7419 92.6355 22.7419 91.1194L22.7419 90.8161C22.7419 89.1484 24.1065 87.9355 25.6226 87.9355L69.8935 87.9355C71.5613 87.9355 72.7742 89.3 72.7742 90.8161L72.7742 91.1194" fill="#D6D6D6" transform="matrix(1 0 0 1.00613 478.484 384.424)"/><path d="M25.7742 87.9355 70.8032 87.9355C72.471 87.9355 73.6839 88.9968 73.6839 90.5129 73.6839 92.1806 72.1677 93.5452 70.5 93.5452" fill="#C6C6C6" transform="matrix(1 0 0 1.00613 478.484 384.424)"/></g></g></g><rect x="458" y="359" width="38" height="38" stroke="#E91E63" stroke-width="2" stroke-miterlimit="8" fill="#E91E63"/><text fill="#FFFFFF" font-family="Aptos,Aptos_MSFontService,sans-serif" font-weight="700" font-size="24" transform="translate(470.328 385)">6</text><path d="M499 408.167C499 406.418 500.418 405 502.167 405L552.833 405C554.582 405 556 406.418 556 408.167L556 420.833C556 422.582 554.582 424 552.833 424L502.167 424C500.418 424 499 422.582 499 420.833Z" fill-rule="evenodd"/><path d="M499 406.167C499 404.418 500.418 403 502.167 403L552.833 403C554.582 403 556 404.418 556 406.167L556 418.833C556 420.582 554.582 422 552.833 422L502.167 422C500.418 422 499 420.582 499 418.833Z" stroke="#E91E63" stroke-width="2" stroke-miterlimit="8" fill="#E91E63" fill-rule="evenodd"/><text fill="#FFFFFF" font-family="Aptos,Aptos_MSFontService,sans-serif" font-weight="700" font-size="9" transform="translate(513.442 416)">Visitor</text><g><g><g><path d="M560.836 447.843C560.735 447.843 560.635 447.843 560.434 447.743 560.234 447.642 560.033 447.442 559.832 447.241L556.121 438.615 551.608 442.828C551.508 443.029 551.307 443.129 551.006 443.129 550.906 443.129 550.705 443.129 550.605 443.029 550.304 442.928 550.003 442.527 550.003 442.126L550.003 420.06C550.003 419.658 550.204 419.257 550.605 419.157 550.705 419.057 550.906 419.057 551.006 419.057 551.207 419.057 551.508 419.157 551.708 419.358L567.756 434.403C568.057 434.704 568.157 435.105 568.057 435.506 567.957 435.907 567.556 436.108 567.154 436.208L560.836 436.81 564.747 445.336C564.848 445.536 564.848 445.837 564.747 446.138 564.647 446.339 564.446 446.639 564.246 446.74L561.337 448.044C561.136 447.843 560.936 447.843 560.836 447.843Z" fill="#E0E0E0"/><path d="M551.006 420.06 567.054 435.105 559.331 435.807 563.845 445.636 560.936 446.94 556.623 437.011 551.006 442.126 551.006 420.06M551.006 418.054C550.705 418.054 550.505 418.154 550.204 418.254 549.501 418.555 549 419.257 549 420.06L549 442.126C549 442.928 549.501 443.63 550.204 443.931 550.505 444.132 550.805 444.132 551.006 444.132 551.508 444.132 552.009 443.931 552.41 443.63L555.82 440.421 558.93 447.743C559.13 448.244 559.532 448.645 560.033 448.846 560.234 448.946 560.535 448.946 560.735 448.946 561.036 448.946 561.237 448.846 561.538 448.746L564.446 447.442C564.948 447.241 565.349 446.84 565.55 446.339 565.75 445.837 565.75 445.235 565.55 444.834L562.24 437.612 567.154 437.211C567.957 437.111 568.659 436.609 568.86 435.907 569.16 435.205 568.96 434.302 568.358 433.801L552.31 418.756C552.009 418.254 551.508 418.054 551.006 418.054L551.006 418.054Z" fill="#212121"/></g></g></g><rect x="894" y="397" width="341" height="94" stroke="#A02B93" stroke-width="2" stroke-miterlimit="8" fill="none"/><rect x="1244" y="397" width="15" height="94" stroke="#A02B93" stroke-width="2" stroke-miterlimit="8" fill="#A02B93"/><text font-family="Aptos,Aptos_MSFontService,sans-serif" font-weight="700" font-size="19" transform="translate(1027.94 425)">Product</text><text font-family="Aptos,Aptos_MSFontService,sans-serif" font-weight="400" font-size="14" transform="translate(1027.94 453)">An artefact created by a visitor</text><g clip-path="url(#clip18)"><g clip-path="url(#clip19)"><g clip-path="url(#clip20)"><path d="M60.3419 69.8935C60.3419 69.2871 60.3419 68.2258 60.3419 68.2258L36.6903 68.2258C36.6903 68.2258 36.6903 69.1355 36.6903 69.8935 36.6903 77.3226 34.871 83.5387 31.8387 87.7839L31.8387 89.4516 65.1936 89.4516 65.1936 87.7839C62.1613 83.5387 60.3419 77.171 60.3419 69.8935" fill="#A8A8A8" transform="matrix(1 0 0 1.00613 915.484 384.424)"/><path d="M65.1936 89.4516 65.1936 87.7839C62.1613 83.5387 60.3419 77.171 60.3419 69.8935 60.3419 69.2871 60.3419 68.2258 60.3419 68.2258L36.6903 68.2258C36.6903 68.2258 36.8419 69.1355 36.8419 69.8935" fill="#929392" transform="matrix(1 0 0 1.00613 915.484 384.424)"/><path d="M95.5161 64.1323C95.5161 68.529 91.7258 72.7742 87.329 72.7742L9.70323 72.7742C5.30645 72.7742 1.51613 68.6806 1.51613 64.1323L1.51613 11.8258C1.51613 7.42903 5.30645 4.54839 9.70323 4.54839L87.329 4.54839C91.7258 4.54839 95.5161 7.42903 95.5161 11.8258L95.5161 64.1323Z" fill="#D6D6D6" transform="matrix(1 0 0 1.00613 915.484 384.424)"/><path d="M9.09677 4.54839 87.329 4.54839C91.7258 4.54839 95.5161 7.42903 95.5161 11.8258L95.5161 64.1323C95.5161 68.529 91.7258 72.7742 87.329 72.7742L47 72.7742" fill="#BCBCBC" transform="matrix(1 0 0 1.00613 915.484 384.424)"/><path d="M87.329 4.54839 9.70323 4.54839C5.30645 4.54839 1.51613 7.42903 1.51613 11.8258L1.51613 57.6129 95.5161 57.6129 95.5161 11.8258C95.5161 7.42903 91.7258 4.54839 87.329 4.54839Z" fill="#4C5254" transform="matrix(1 0 0 1.00613 915.484 384.424)"/><path d="M95.5161 57.6129 95.5161 11.8258C95.5161 7.42903 91.7258 4.54839 87.329 4.54839L9.70323 4.54839C5.30645 4.54839 1.66774 7.73226 1.66774 12.129" fill="#2F423F" transform="matrix(1 0 0 1.00613 915.484 384.424)"/><path d="M51.5484 64.7387C51.5484 66.4134 50.1908 67.771 48.5161 67.771 46.8415 67.771 45.4839 66.4134 45.4839 64.7387 45.4839 63.064 46.8415 61.7065 48.5161 61.7065 50.1908 61.7065 51.5484 63.064 51.5484 64.7387Z" fill="#4C5254" transform="matrix(1 0 0 1.00613 915.484 384.424)"/><path d="M50.6387 62.6161C51.8516 63.829 51.8516 65.6484 50.6387 66.8613 49.4258 68.0742 47.6064 68.0742 46.3935 66.8613" fill="#2F423F" transform="matrix(1 0 0 1.00613 915.484 384.424)"/><path d="M72.7742 91.1194C72.7742 92.7871 71.4097 94 69.8935 94L25.6226 94C23.9548 94 22.7419 92.6355 22.7419 91.1194L22.7419 90.8161C22.7419 89.1484 24.1065 87.9355 25.6226 87.9355L69.8935 87.9355C71.5613 87.9355 72.7742 89.3 72.7742 90.8161L72.7742 91.1194" fill="#D6D6D6" transform="matrix(1 0 0 1.00613 915.484 384.424)"/><path d="M25.7742 87.9355 70.8032 87.9355C72.471 87.9355 73.6839 88.9968 73.6839 90.5129 73.6839 92.1806 72.1677 93.5452 70.5 93.5452" fill="#C6C6C6" transform="matrix(1 0 0 1.00613 915.484 384.424)"/></g></g></g><rect x="894" y="359" width="38" height="38" stroke="#A02B93" stroke-width="2" stroke-miterlimit="8" fill="#A02B93"/><text fill="#FFFFFF" font-family="Aptos,Aptos_MSFontService,sans-serif" font-weight="700" font-size="24" transform="translate(906.866 385)">7</text><path d="M936 408.167C936 406.418 937.418 405 939.167 405L988.833 405C990.582 405 992 406.418 992 408.167L992 420.833C992 422.582 990.582 424 988.833 424L939.167 424C937.418 424 936 422.582 936 420.833Z" fill-rule="evenodd"/><path d="M936 406.167C936 404.418 937.418 403 939.167 403L988.833 403C990.582 403 992 404.418 992 406.167L992 418.833C992 420.582 990.582 422 988.833 422L939.167 422C937.418 422 936 420.582 936 418.833Z" stroke="#A02B93" stroke-width="2" stroke-miterlimit="8" fill="#A02B93" fill-rule="evenodd"/><text fill="#FFFFFF" font-family="Aptos,Aptos_MSFontService,sans-serif" font-weight="700" font-size="9" transform="translate(946.896 416)">Product</text><g><g><g><path d="M997.836 447.843C997.735 447.843 997.635 447.843 997.434 447.743 997.234 447.642 997.033 447.442 996.832 447.241L993.121 438.615 988.608 442.828C988.508 443.029 988.307 443.129 988.006 443.129 987.906 443.129 987.705 443.129 987.605 443.029 987.304 442.928 987.003 442.527 987.003 442.126L987.003 420.06C987.003 419.658 987.204 419.257 987.605 419.157 987.705 419.057 987.906 419.057 988.006 419.057 988.207 419.057 988.508 419.157 988.708 419.358L1004.76 434.403C1005.06 434.704 1005.16 435.105 1005.06 435.506 1004.96 435.907 1004.56 436.108 1004.15 436.208L997.836 436.81 1001.75 445.336C1001.85 445.536 1001.85 445.837 1001.75 446.138 1001.65 446.339 1001.45 446.639 1001.25 446.74L998.337 448.044C998.136 447.843 997.936 447.843 997.836 447.843Z" fill="#E0E0E0"/><path d="M988.006 420.06 1004.05 435.105 996.331 435.807 1000.84 445.636 997.936 446.94 993.623 437.011 988.006 442.126 988.006 420.06M988.006 418.054C987.705 418.054 987.505 418.154 987.204 418.254 986.501 418.555 986 419.257 986 420.06L986 442.126C986 442.928 986.501 443.63 987.204 443.931 987.505 444.132 987.805 444.132 988.006 444.132 988.508 444.132 989.009 443.931 989.41 443.63L992.82 440.421 995.93 447.743C996.13 448.244 996.532 448.645 997.033 448.846 997.234 448.946 997.535 448.946 997.735 448.946 998.036 448.946 998.237 448.846 998.538 448.746L1001.45 447.442C1001.95 447.241 1002.35 446.84 1002.55 446.339 1002.75 445.837 1002.75 445.235 1002.55 444.834L999.24 437.612 1004.15 437.211C1004.96 437.111 1005.66 436.609 1005.86 435.907 1006.16 435.205 1005.96 434.302 1005.36 433.801L989.31 418.756C989.009 418.254 988.508 418.054 988.006 418.054L988.006 418.054Z" fill="#212121"/></g></g></g><g><g><g><path d="M155 570 265 570 265 680 155 680Z" fill="#FFFFFF"/><path d="M155 570 181.552 570 181.552 573.793 155 573.793ZM189.138 570 200.517 570 200.517 573.793 189.138 573.793ZM204.31 570 208.103 570 208.103 573.793 204.31 573.793ZM223.276 570 234.655 570 234.655 573.793 223.276 573.793ZM238.448 570 265 570 265 573.793 238.448 573.793ZM155 573.793 158.793 573.793 158.793 577.586 155 577.586ZM177.759 573.793 181.552 573.793 181.552 577.586 177.759 577.586ZM189.138 573.793 200.517 573.793 200.517 577.586 189.138 577.586ZM204.31 573.793 219.483 573.793 219.483 577.586 204.31 577.586ZM223.276 573.793 227.069 573.793 227.069 577.586 223.276 577.586ZM238.448 573.793 242.241 573.793 242.241 577.586 238.448 577.586ZM261.207 573.793 265 573.793 265 577.586 261.207 577.586ZM155 577.586 158.793 577.586 158.793 581.379 155 581.379ZM162.586 577.586 173.966 577.586 173.966 581.379 162.586 581.379ZM177.759 577.586 181.552 577.586 181.552 581.379 177.759 581.379ZM185.345 577.586 192.931 577.586 192.931 581.379 185.345 581.379ZM196.724 577.586 200.517 577.586 200.517 581.379 196.724 581.379ZM208.103 577.586 219.483 577.586 219.483 581.379 208.103 581.379ZM227.069 577.586 234.655 577.586 234.655 581.379 227.069 581.379ZM238.448 577.586 242.241 577.586 242.241 581.379 238.448 581.379ZM246.034 577.586 257.414 577.586 257.414 581.379 246.034 581.379ZM261.207 577.586 265 577.586 265 581.379 261.207 581.379ZM155 581.379 158.793 581.379 158.793 585.172 155 585.172ZM162.586 581.379 173.966 581.379 173.966 585.172 162.586 585.172ZM177.759 581.379 181.552 581.379 181.552 585.172 177.759 585.172ZM185.345 581.379 189.138 581.379 189.138 585.172 185.345 585.172ZM192.931 581.379 196.724 581.379 196.724 585.172 192.931 585.172ZM200.517 581.379 204.31 581.379 204.31 585.172 200.517 585.172ZM211.897 581.379 223.276 581.379 223.276 585.172 211.897 585.172ZM230.862 581.379 234.655 581.379 234.655 585.172 230.862 585.172ZM238.448 581.379 242.241 581.379 242.241 585.172 238.448 585.172ZM246.034 581.379 257.414 581.379 257.414 585.172 246.034 585.172ZM261.207 581.379 265 581.379 265 585.172 261.207 585.172ZM155 585.172 158.793 585.172 158.793 588.966 155 588.966ZM162.586 585.172 173.966 585.172 173.966 588.966 162.586 588.966ZM177.759 585.172 181.552 585.172 181.552 588.966 177.759 588.966ZM185.345 585.172 192.931 585.172 192.931 588.966 185.345 588.966ZM196.724 585.172 200.517 585.172 200.517 588.966 196.724 588.966ZM204.31 585.172 208.103 585.172 208.103 588.966 204.31 588.966ZM215.69 585.172 219.483 585.172 219.483 588.966 215.69 588.966ZM227.069 585.172 234.655 585.172 234.655 588.966 227.069 588.966ZM238.448 585.172 242.241 585.172 242.241 588.966 238.448 588.966ZM246.034 585.172 257.414 585.172 257.414 588.966 246.034 588.966ZM261.207 585.172 265 585.172 265 588.966 261.207 588.966ZM155 588.966 158.793 588.966 158.793 592.759 155 592.759ZM177.759 588.966 181.552 588.966 181.552 592.759 177.759 592.759ZM185.345 588.966 189.138 588.966 189.138 592.759 185.345 592.759ZM200.517 588.966 227.069 588.966 227.069 592.759 200.517 592.759ZM238.448 588.966 242.241 588.966 242.241 592.759 238.448 592.759ZM261.207 588.966 265 588.966 265 592.759 261.207 592.759ZM155 592.759 181.552 592.759 181.552 596.552 155 596.552ZM185.345 592.759 189.138 592.759 189.138 596.552 185.345 596.552ZM192.931 592.759 196.724 592.759 196.724 596.552 192.931 596.552ZM200.517 592.759 204.31 592.759 204.31 596.552 200.517 596.552ZM208.103 592.759 211.897 592.759 211.897 596.552 208.103 596.552ZM215.69 592.759 219.483 592.759 219.483 596.552 215.69 596.552ZM223.276 592.759 227.069 592.759 227.069 596.552 223.276 596.552ZM230.862 592.759 234.655 592.759 234.655 596.552 230.862 596.552ZM238.448 592.759 265 592.759 265 596.552 238.448 596.552ZM185.345 596.552 192.931 596.552 192.931 600.345 185.345 600.345ZM196.724 596.552 208.103 596.552 208.103 600.345 196.724 600.345ZM211.897 596.552 219.483 596.552 219.483 600.345 211.897 600.345ZM227.069 596.552 234.655 596.552 234.655 600.345 227.069 600.345ZM155 600.345 158.793 600.345 158.793 604.138 155 604.138ZM162.586 600.345 181.552 600.345 181.552 604.138 162.586 604.138ZM192.931 600.345 200.517 600.345 200.517 604.138 192.931 604.138ZM208.103 600.345 215.69 600.345 215.69 604.138 208.103 604.138ZM219.483 600.345 223.276 600.345 223.276 604.138 219.483 604.138ZM227.069 600.345 230.862 600.345 230.862 604.138 227.069 604.138ZM238.448 600.345 257.414 600.345 257.414 604.138 238.448 604.138ZM155 604.138 170.172 604.138 170.172 607.931 155 607.931ZM181.552 604.138 192.931 604.138 192.931 607.931 181.552 607.931ZM196.724 604.138 200.517 604.138 200.517 607.931 196.724 607.931ZM215.69 604.138 219.483 604.138 219.483 607.931 215.69 607.931ZM227.069 604.138 230.862 604.138 230.862 607.931 227.069 607.931ZM238.448 604.138 249.828 604.138 249.828 607.931 238.448 607.931ZM261.207 604.138 265 604.138 265 607.931 261.207 607.931ZM155 607.931 166.379 607.931 166.379 611.724 155 611.724ZM173.966 607.931 181.552 607.931 181.552 611.724 173.966 611.724ZM189.138 607.931 192.931 607.931 192.931 611.724 189.138 611.724ZM196.724 607.931 204.31 607.931 204.31 611.724 196.724 611.724ZM211.897 607.931 215.69 607.931 215.69 611.724 211.897 611.724ZM242.241 607.931 249.828 607.931 249.828 611.724 242.241 611.724ZM181.552 611.724 185.345 611.724 185.345 615.517 181.552 615.517ZM192.931 611.724 200.517 611.724 200.517 615.517 192.931 615.517ZM208.103 611.724 211.897 611.724 211.897 615.517 208.103 615.517ZM215.69 611.724 219.483 611.724 219.483 615.517 215.69 615.517ZM223.276 611.724 238.448 611.724 238.448 615.517 223.276 615.517ZM249.828 611.724 253.621 611.724 253.621 615.517 249.828 615.517ZM257.414 611.724 261.207 611.724 261.207 615.517 257.414 615.517ZM155 615.517 162.586 615.517 162.586 619.31 155 619.31ZM170.172 615.517 173.966 615.517 173.966 619.31 170.172 619.31ZM177.759 615.517 181.552 615.517 181.552 619.31 177.759 619.31ZM185.345 615.517 189.138 615.517 189.138 619.31 185.345 619.31ZM200.517 615.517 204.31 615.517 204.31 619.31 200.517 619.31ZM219.483 615.517 230.862 615.517 230.862 619.31 219.483 619.31ZM249.828 615.517 257.414 615.517 257.414 619.31 249.828 619.31ZM162.586 619.31 170.172 619.31 170.172 623.103 162.586 623.103ZM173.966 619.31 177.759 619.31 177.759 623.103 173.966 623.103ZM185.345 619.31 189.138 619.31 189.138 623.103 185.345 623.103ZM192.931 619.31 196.724 619.31 196.724 623.103 192.931 623.103ZM200.517 619.31 211.897 619.31 211.897 623.103 200.517 623.103ZM219.483 619.31 249.828 619.31 249.828 623.103 219.483 623.103ZM261.207 619.31 265 619.31 265 623.103 261.207 623.103ZM158.793 623.103 162.586 623.103 162.586 626.897 158.793 626.897ZM177.759 623.103 185.345 623.103 185.345 626.897 177.759 626.897ZM200.517 623.103 215.69 623.103 215.69 626.897 200.517 626.897ZM230.862 623.103 246.034 623.103 246.034 626.897 230.862 626.897ZM249.828 623.103 257.414 623.103 257.414 626.897 249.828 626.897ZM158.793 626.897 170.172 626.897 170.172 630.69 158.793 630.69ZM173.966 626.897 177.759 626.897 177.759 630.69 173.966 630.69ZM185.345 626.897 192.931 626.897 192.931 630.69 185.345 630.69ZM200.517 626.897 208.103 626.897 208.103 630.69 200.517 630.69ZM211.897 626.897 219.483 626.897 219.483 630.69 211.897 630.69ZM227.069 626.897 234.655 626.897 234.655 630.69 227.069 630.69ZM242.241 626.897 249.828 626.897 249.828 630.69 242.241 630.69ZM257.414 626.897 261.207 626.897 261.207 630.69 257.414 630.69ZM155 630.69 158.793 630.69 158.793 634.483 155 634.483ZM166.379 630.69 173.966 630.69 173.966 634.483 166.379 634.483ZM177.759 630.69 181.552 630.69 181.552 634.483 177.759 634.483ZM196.724 630.69 204.31 630.69 204.31 634.483 196.724 634.483ZM208.103 630.69 223.276 630.69 223.276 634.483 208.103 634.483ZM227.069 630.69 230.862 630.69 230.862 634.483 227.069 634.483ZM249.828 630.69 257.414 630.69 257.414 634.483 249.828 634.483ZM155 634.483 158.793 634.483 158.793 638.276 155 638.276ZM162.586 634.483 170.172 634.483 170.172 638.276 162.586 638.276ZM173.966 634.483 177.759 634.483 177.759 638.276 173.966 638.276ZM181.552 634.483 185.345 634.483 185.345 638.276 181.552 638.276ZM189.138 634.483 192.931 634.483 192.931 638.276 189.138 638.276ZM196.724 634.483 200.517 634.483 200.517 638.276 196.724 638.276ZM215.69 634.483 219.483 634.483 219.483 638.276 215.69 638.276ZM227.069 634.483 234.655 634.483 234.655 638.276 227.069 638.276ZM238.448 634.483 249.828 634.483 249.828 638.276 238.448 638.276ZM253.621 634.483 257.414 634.483 257.414 638.276 253.621 638.276ZM261.207 634.483 265 634.483 265 638.276 261.207 638.276ZM155 638.276 158.793 638.276 158.793 642.069 155 642.069ZM166.379 638.276 181.552 638.276 181.552 642.069 166.379 642.069ZM192.931 638.276 204.31 638.276 204.31 642.069 192.931 642.069ZM211.897 638.276 219.483 638.276 219.483 642.069 211.897 642.069ZM223.276 638.276 227.069 638.276 227.069 642.069 223.276 642.069ZM230.862 638.276 238.448 638.276 238.448 642.069 230.862 642.069ZM242.241 638.276 249.828 638.276 249.828 642.069 242.241 642.069ZM253.621 638.276 257.414 638.276 257.414 642.069 253.621 642.069ZM155 642.069 158.793 642.069 158.793 645.862 155 645.862ZM170.172 642.069 173.966 642.069 173.966 645.862 170.172 645.862ZM189.138 642.069 192.931 642.069 192.931 645.862 189.138 645.862ZM196.724 642.069 200.517 642.069 200.517 645.862 196.724 645.862ZM208.103 642.069 211.897 642.069 211.897 645.862 208.103 645.862ZM223.276 642.069 227.069 642.069 227.069 645.862 223.276 645.862ZM238.448 642.069 242.241 642.069 242.241 645.862 238.448 645.862ZM257.414 642.069 261.207 642.069 261.207 645.862 257.414 645.862ZM155 645.862 158.793 645.862 158.793 649.655 155 649.655ZM166.379 645.862 173.966 645.862 173.966 649.655 166.379 649.655ZM177.759 645.862 189.138 645.862 189.138 649.655 177.759 649.655ZM192.931 645.862 196.724 645.862 196.724 649.655 192.931 649.655ZM211.897 645.862 215.69 645.862 215.69 649.655 211.897 649.655ZM219.483 645.862 223.276 645.862 223.276 649.655 219.483 649.655ZM227.069 645.862 249.828 645.862 249.828 649.655 227.069 649.655ZM253.621 645.862 265 645.862 265 649.655 253.621 649.655ZM185.345 649.655 196.724 649.655 196.724 653.448 185.345 653.448ZM204.31 649.655 211.897 649.655 211.897 653.448 204.31 653.448ZM215.69 649.655 219.483 649.655 219.483 653.448 215.69 653.448ZM230.862 649.655 234.655 649.655 234.655 653.448 230.862 653.448ZM246.034 649.655 265 649.655 265 653.448 246.034 653.448ZM155 653.448 181.552 653.448 181.552 657.241 155 657.241ZM196.724 653.448 234.655 653.448 234.655 657.241 196.724 657.241ZM238.448 653.448 242.241 653.448 242.241 657.241 238.448 657.241ZM246.034 653.448 257.414 653.448 257.414 657.241 246.034 657.241ZM155 657.241 158.793 657.241 158.793 661.034 155 661.034ZM177.759 657.241 181.552 657.241 181.552 661.034 177.759 661.034ZM185.345 657.241 192.931 657.241 192.931 661.034 185.345 661.034ZM200.517 657.241 208.103 657.241 208.103 661.034 200.517 661.034ZM211.897 657.241 219.483 657.241 219.483 661.034 211.897 661.034ZM223.276 657.241 234.655 657.241 234.655 661.034 223.276 661.034ZM246.034 657.241 249.828 657.241 249.828 661.034 246.034 661.034ZM155 661.034 158.793 661.034 158.793 664.828 155 664.828ZM162.586 661.034 173.966 661.034 173.966 664.828 162.586 664.828ZM177.759 661.034 181.552 661.034 181.552 664.828 177.759 664.828ZM185.345 661.034 189.138 661.034 189.138 664.828 185.345 664.828ZM200.517 661.034 204.31 661.034 204.31 664.828 200.517 664.828ZM208.103 661.034 215.69 661.034 215.69 664.828 208.103 664.828ZM219.483 661.034 223.276 661.034 223.276 664.828 219.483 664.828ZM230.862 661.034 249.828 661.034 249.828 664.828 230.862 664.828ZM253.621 661.034 257.414 661.034 257.414 664.828 253.621 664.828ZM155 664.828 158.793 664.828 158.793 668.621 155 668.621ZM162.586 664.828 173.966 664.828 173.966 668.621 162.586 668.621ZM177.759 664.828 181.552 664.828 181.552 668.621 177.759 668.621ZM185.345 664.828 192.931 664.828 192.931 668.621 185.345 668.621ZM215.69 664.828 227.069 664.828 227.069 668.621 215.69 668.621ZM249.828 664.828 265 664.828 265 668.621 249.828 668.621ZM155 668.621 158.793 668.621 158.793 672.414 155 672.414ZM162.586 668.621 173.966 668.621 173.966 672.414 162.586 672.414ZM177.759 668.621 181.552 668.621 181.552 672.414 177.759 672.414ZM185.345 668.621 189.138 668.621 189.138 672.414 185.345 672.414ZM196.724 668.621 200.517 668.621 200.517 672.414 196.724 672.414ZM211.897 668.621 215.69 668.621 215.69 672.414 211.897 672.414ZM219.483 668.621 223.276 668.621 223.276 672.414 219.483 672.414ZM227.069 668.621 230.862 668.621 230.862 672.414 227.069 672.414ZM234.655 668.621 261.207 668.621 261.207 672.414 234.655 672.414ZM155 672.414 158.793 672.414 158.793 676.207 155 676.207ZM177.759 672.414 181.552 672.414 181.552 676.207 177.759 676.207ZM189.138 672.414 192.931 672.414 192.931 676.207 189.138 676.207ZM196.724 672.414 204.31 672.414 204.31 676.207 196.724 676.207ZM227.069 672.414 238.448 672.414 238.448 676.207 227.069 676.207ZM246.034 672.414 253.621 672.414 253.621 676.207 246.034 676.207ZM257.414 672.414 261.207 672.414 261.207 676.207 257.414 676.207ZM155 676.207 181.552 676.207 181.552 680 155 680ZM185.345 676.207 189.138 676.207 189.138 680 185.345 680ZM200.517 676.207 211.897 676.207 211.897 680 200.517 680ZM219.483 676.207 223.276 676.207 223.276 680 219.483 680ZM227.069 676.207 230.862 676.207 230.862 680 227.069 680ZM242.241 676.207 249.828 676.207 249.828 680 242.241 680ZM253.621 676.207 257.414 676.207 257.414 680 253.621 680Z"/></g></g></g><path d="M3-5.20833e-06 3.00009 54.5324C3.0001 56.1893 1.65695 57.5324 9.98827e-05 57.5324-1.65675 57.5324-2.9999 56.1893-2.99991 54.5324L-3 5.20833e-06C-3-1.65685-1.65686-3-5.20833e-06-3 1.65685-3 3-1.65686 3-5.20833e-06ZM13.0914 38.044 0.000105356 60.4863-13.0913 38.0441C-13.9261 36.6129-13.4427 34.776-12.0116 33.9411-10.5804 33.1063-8.74345 33.5897-7.9086 35.0208L2.59143 53.0208-2.59124 53.0208 7.90872 35.0208C8.74356 33.5897 10.5805 33.1062 12.0117 33.9411 13.4428 34.7759 13.9262 36.6129 13.0914 38.044Z" fill="#BFBFBF" transform="matrix(-1 0 0 1 526 151)"/><path d="M3-5.20833e-06 3.00009 54.5324C3.0001 56.1893 1.65695 57.5324 9.98827e-05 57.5324-1.65675 57.5324-2.9999 56.1893-2.99991 54.5324L-3 5.20833e-06C-3-1.65685-1.65686-3-5.20833e-06-3 1.65685-3 3-1.65686 3-5.20833e-06ZM13.0914 38.044 0.000105356 60.4863-13.0913 38.0441C-13.9261 36.6129-13.4427 34.776-12.0116 33.9411-10.5804 33.1063-8.74345 33.5897-7.9086 35.0208L2.59143 53.0208-2.59124 53.0208 7.90872 35.0208C8.74356 33.5897 10.5805 33.1062 12.0117 33.9411 13.4428 34.7759 13.9262 36.6129 13.0914 38.044Z" fill="#BFBFBF" transform="matrix(-1 0 0 1 748 151)"/><path d="M3-5.20833e-06 3.00009 54.5324C3.0001 56.1893 1.65695 57.5324 9.98827e-05 57.5324-1.65675 57.5324-2.9999 56.1893-2.99991 54.5324L-3 5.20833e-06C-3-1.65685-1.65686-3-5.20833e-06-3 1.65685-3 3-1.65686 3-5.20833e-06ZM13.0914 38.044 0.000105356 60.4863-13.0913 38.0441C-13.9261 36.6129-13.4427 34.776-12.0116 33.9411-10.5804 33.1063-8.74345 33.5897-7.9086 35.0208L2.59143 53.0208-2.59124 53.0208 7.90872 35.0208C8.74356 33.5897 10.5805 33.1062 12.0117 33.9411 13.4428 34.7759 13.9262 36.6129 13.0914 38.044Z" fill="#BFBFBF" transform="matrix(-1 0 0 1 964 151)"/><path d="M3-5.20833e-06 3.00009 54.5324C3.0001 56.1893 1.65695 57.5324 9.98827e-05 57.5324-1.65675 57.5324-2.9999 56.1893-2.99991 54.5324L-3 5.20833e-06C-3-1.65685-1.65686-3-5.20833e-06-3 1.65685-3 3-1.65686 3-5.20833e-06ZM13.0914 38.044 0.000105356 60.4863-13.0913 38.0441C-13.9261 36.6129-13.4427 34.776-12.0116 33.9411-10.5804 33.1063-8.74345 33.5897-7.9086 35.0208L2.59143 53.0208-2.59124 53.0208 7.90872 35.0208C8.74356 33.5897 10.5805 33.1062 12.0117 33.9411 13.4428 34.7759 13.9262 36.6129 13.0914 38.044Z" fill="#BFBFBF" transform="matrix(-1 0 0 1 311 327)"/><path d="M3-5.20833e-06 3.00009 54.5324C3.0001 56.1893 1.65695 57.5324 9.98827e-05 57.5324-1.65675 57.5324-2.9999 56.1893-2.99991 54.5324L-3 5.20833e-06C-3-1.65685-1.65686-3-5.20833e-06-3 1.65685-3 3-1.65686 3-5.20833e-06ZM13.0914 38.044 0.000105356 60.4863-13.0913 38.0441C-13.9261 36.6129-13.4427 34.776-12.0116 33.9411-10.5804 33.1063-8.74345 33.5897-7.9086 35.0208L2.59143 53.0208-2.59124 53.0208 7.90872 35.0208C8.74356 33.5897 10.5805 33.1062 12.0117 33.9411 13.4428 34.7759 13.9262 36.6129 13.0914 38.044Z" fill="#BFBFBF" transform="matrix(-1 0 0 1 209 499)"/><g clip-path="url(#clip21)"><g clip-path="url(#clip22)"><g clip-path="url(#clip23)"><path d="M109.667 18.2778 41.7778 18.2778 41.7778 28.7222 109.667 28.7222 109.667 18.2778Z" fill="#2196F3" transform="matrix(1.01064 0 0 1 822.167 529.333)"/><path d="M109.667 44.3889 41.7778 44.3889 41.7778 54.8333 109.667 54.8333 109.667 44.3889Z" fill="#2196F3" transform="matrix(1.01064 0 0 1 822.167 529.333)"/><path d="M109.667 70.5 41.7778 70.5 41.7778 80.9444 109.667 80.9444 109.667 70.5Z" fill="#2196F3" transform="matrix(1.01064 0 0 1 822.167 529.333)"/><path d="M109.667 96.6111 41.7778 96.6111 41.7778 107.056 109.667 107.056 109.667 96.6111Z" fill="#2196F3" transform="matrix(1.01064 0 0 1 822.167 529.333)"/><path d="M15.6667 15.6667 31.3333 15.6667 31.3333 31.3333 15.6667 31.3333Z" fill="#1565C0" transform="matrix(1.01064 0 0 1 822.167 529.333)"/><path d="M15.6667 41.7778 31.3333 41.7778 31.3333 57.4444 15.6667 57.4444Z" fill="#1565C0" transform="matrix(1.01064 0 0 1 822.167 529.333)"/><path d="M15.6667 67.8889 31.3333 67.8889 31.3333 83.5556 15.6667 83.5556Z" fill="#1565C0" transform="matrix(1.01064 0 0 1 822.167 529.333)"/><path d="M15.6667 94 31.3333 94 31.3333 109.667 15.6667 109.667Z" fill="#1565C0" transform="matrix(1.01064 0 0 1 822.167 529.333)"/></g></g></g><text font-family="Aptos,Aptos_MSFontService,sans-serif" font-weight="700" font-size="19" transform="translate(835.93 663)">Statements</text><g clip-path="url(#clip24)"><g clip-path="url(#clip25)"><g clip-path="url(#clip26)"><path d="M26.8571 13.4286 89.5238 13.4286 89.5238 100.714 26.8571 100.714Z" fill="#DFDDD3" transform="matrix(1.00193 0 0 1 1154.82 538.286)"/><path d="M73.8571 44.7619 73.8571 53.7143 87.2857 53.7143C88.5211 53.7143 89.5238 52.7116 89.5238 51.4762L89.5238 48.119C89.5238 46.2659 88.0198 44.7619 86.1667 44.7619L73.8571 44.7619Z" fill="#DFDDD3" transform="matrix(1.00193 0 0 1 1154.82 538.286)"/><path d="M74.7278 44.8872 74.7278 53.3428 87.1626 53.3428C88.2615 53.3428 89.1523 52.2998 89.1523 51.2009L89.1523 48.0765C89.1523 46.4293 87.8161 44.8872 86.1689 44.8872L74.7278 44.8872Z" fill="#D8D6CC" transform="matrix(1.00193 0 0 1 1154.82 538.286)"/><path d="M75.5984 45.0103 75.5984 52.969 87.0373 52.969C87.9997 52.969 88.7785 51.8858 88.7785 50.9256L88.7785 48.034C88.7785 46.5927 87.6102 45.0126 86.1667 45.0126L75.5984 45.0126Z" fill="#D2CFC5" transform="matrix(1.00193 0 0 1 1154.82 538.286)"/><path d="M76.469 45.1357 76.469 52.5952 86.9142 52.5952C87.7378 52.5952 88.407 51.4717 88.407 50.6481L88.407 47.987C88.407 46.7516 87.4043 45.1334 86.1689 45.1334L76.469 45.1334Z" fill="#CBC9BE" transform="matrix(1.00193 0 0 1 1154.82 538.286)"/><path d="M77.3396 45.2588 77.3396 52.2215 86.7889 52.2215C87.476 52.2215 88.0332 51.0577 88.0332 50.3728L88.0332 47.9445C88.0332 46.915 87.1984 45.2588 86.1689 45.2588L77.3396 45.2588Z" fill="#C4C2B7" transform="matrix(1.00193 0 0 1 1154.82 538.286)"/><path d="M78.208 45.3841 78.208 51.85 86.6635 51.85C87.2119 51.85 87.6572 50.6459 87.6572 50.0975L87.6572 47.902C87.6572 47.0783 86.9903 45.3841 86.1644 45.3841L78.208 45.3841Z" fill="#BEBBB0" transform="matrix(1.00193 0 0 1 1154.82 538.286)"/><path d="M79.0786 45.5072 79.0786 51.4762 86.5382 51.4762C86.9522 51.4762 87.2857 50.2318 87.2857 49.82L87.2857 47.8572C87.2857 47.2395 86.7844 45.5072 86.1667 45.5072L79.0786 45.5072Z" fill="#B7B4A9" transform="matrix(1.00193 0 0 1 1154.82 538.286)"/><path d="M79.9492 45.6325 79.9492 51.1024 86.4151 51.1024C86.6904 51.1024 86.912 49.8178 86.912 49.5447L86.912 47.8147C86.912 47.4029 86.5785 45.6325 86.1667 45.6325L79.9492 45.6325Z" fill="#B0AEA2" transform="matrix(1.00193 0 0 1 1154.82 538.286)"/><path d="M80.8199 45.7556 80.8199 50.7287 86.2898 50.7287C86.4263 50.7287 86.5382 49.4037 86.5382 49.2672L86.5382 47.7699C86.5382 47.564 86.3703 45.7556 86.1644 45.7556L80.8199 45.7556Z" fill="#AAA79B" transform="matrix(1.00193 0 0 1 1154.82 538.286)"/><path d="M81.6905 50.3571 86.1667 50.3571 86.1667 45.881 81.6905 45.881 81.6905 50.3571Z" fill="#A3A094" transform="matrix(1.00193 0 0 1 1154.82 538.286)"/><path d="M81.7017 31.2572 63.873 13.4286 58.1591 13.4286 78.8459 34.1153C81.3637 36.6331 82.7782 40.0485 82.7782 43.6115L82.7804 94 26.8571 94 26.8571 98.042 82.776 98.042C85.0073 98.042 86.818 96.2336 86.818 94L86.818 43.6093C86.818 38.9764 84.976 34.5338 81.7017 31.2572Z" fill="#D8D6CC" fill-opacity="0.111" transform="matrix(1.00193 0 0 1 1154.82 538.286)"/><path d="M81.3928 31.5639 63.2575 13.4286 58.1591 13.4286 78.8459 34.1153C81.3637 36.6331 82.7782 40.0485 82.7782 43.6115L82.7849 94 26.8571 94 26.8571 97.6056 82.776 97.6056C84.7679 97.6056 86.3815 95.9919 86.3815 94L86.3815 43.6093C86.3815 39.0928 84.5888 34.7599 81.3928 31.5639Z" fill="#D2CFC5" fill-opacity="0.222" transform="matrix(1.00193 0 0 1 1154.82 538.286)"/><path d="M81.0862 31.8727 62.642 13.4286 58.1591 13.4286 78.8459 34.1153C81.3637 36.6331 82.7782 40.0485 82.7782 43.6115L82.7871 94 26.8571 94 26.8571 97.1714 82.776 97.1714C84.5261 97.1714 85.9473 95.7524 85.9473 94L85.9473 43.6093C85.9473 39.207 84.1994 34.9859 81.0862 31.8727Z" fill="#CBC9BE" fill-opacity="0.333" transform="matrix(1.00193 0 0 1 1154.82 538.286)"/><path d="M80.7773 32.1793 62.0266 13.4286 58.1591 13.4286 78.8459 34.1153C81.3637 36.6331 82.7782 40.0485 82.7782 43.6115L82.7916 94 26.8571 94 26.8571 96.735 82.776 96.735C84.2867 96.735 85.5109 95.5107 85.5109 94L85.5109 43.6093C85.5131 39.3233 83.81 35.212 80.7773 32.1793Z" fill="#C4C2B7" fill-opacity="0.444" transform="matrix(1.00193 0 0 1 1154.82 538.286)"/><path d="M80.4707 32.4882 61.4111 13.4286 58.1591 13.4286 78.8459 34.1153C81.3637 36.6331 82.7782 40.0485 82.7782 43.6115L82.7939 94 26.8571 94 26.8571 96.3008 82.776 96.3008C84.0472 96.3008 85.0767 95.2712 85.0767 94L85.0767 43.6093C85.0767 39.4375 83.4205 35.438 80.4707 32.4882Z" fill="#BEBBB0" fill-opacity="0.556" transform="matrix(1.00193 0 0 1 1154.82 538.286)"/><path d="M80.1619 32.7948 60.7956 13.4286 58.1591 13.4286 78.8459 34.1153C81.3637 36.6331 82.7782 40.0485 82.7782 43.6115L82.7983 94 26.8571 94 26.8571 95.8643 82.776 95.8643C83.8055 95.8643 84.6403 95.0295 84.6403 94L84.6403 43.6093C84.6425 39.5539 83.0311 35.6641 80.1619 32.7948Z" fill="#B7B4A9" fill-opacity="0.667" transform="matrix(1.00193 0 0 1 1154.82 538.286)"/><path d="M79.8552 33.1037 60.1801 13.4286 58.1591 13.4286 78.8459 34.1153C81.3637 36.6331 82.7782 40.0485 82.7782 43.6115L82.8028 94 26.8571 94 26.8571 95.4301 82.776 95.4301C83.566 95.4301 84.2061 94.7901 84.2061 94L84.2061 43.6093C84.2061 39.6702 82.6417 35.8901 79.8552 33.1037Z" fill="#B0AEA2" fill-opacity="0.778" transform="matrix(1.00193 0 0 1 1154.82 538.286)"/><path d="M79.5464 33.4103 59.5647 13.4286 58.1591 13.4286 78.8459 34.1153C81.3637 36.6331 82.7782 40.0485 82.7782 43.6115L82.8051 94 26.8571 94 26.8571 94.9937 82.776 94.9937C83.3243 94.9937 83.7697 94.5483 83.7697 94L83.7697 43.6093C83.7719 39.7844 82.2522 36.1161 79.5464 33.4103Z" fill="#AAA79B" fill-opacity="0.889" transform="matrix(1.00193 0 0 1 1154.82 538.286)"/><path d="M79.2398 33.7191 58.9492 13.4286 58.1569 13.4286 78.8436 34.1153C81.3615 36.6331 82.776 40.0485 82.776 43.6115L82.8095 94 26.8571 94 26.8571 94.5595 82.776 94.5595C83.0848 94.5595 83.3355 94.3089 83.3355 94L83.3355 43.6093C83.3355 39.9008 81.8628 36.3422 79.2398 33.7191Z" fill="#A3A094" transform="matrix(1.00193 0 0 1 1154.82 538.286)"/><path d="M64.8712 29.0952 64.8712 26.8571 76.0617 26.8571 76.0617 29.0952 64.8712 29.0952ZM55.9524 40.2857 55.9524 42.5238 64.8712 42.5238 64.8712 40.2857 55.9524 40.2857ZM58.1905 22.381 82.776 22.381 82.776 20.1429 58.1905 20.1429 58.1905 22.381ZM71.5855 49.2381 71.5855 47 60.395 47 60.395 49.2381 71.5855 49.2381ZM51.4762 47 51.4762 49.2381 58.1569 49.2381 58.1569 47 51.4762 47ZM51.4762 33.5714 51.4762 35.8095 58.1569 35.8095 58.1569 33.5714 51.4762 33.5714ZM49.2381 26.8571 49.2381 29.0952 62.6331 29.0952 62.6331 26.8571 49.2381 26.8571ZM38.0476 42.5238 53.7143 42.5238 53.7143 40.2857 38.0476 40.2857 38.0476 42.5238ZM73.8236 35.8095 73.8236 33.5714 60.395 33.5714 60.395 35.8095 73.8236 35.8095ZM44.7619 67.1429 44.7619 69.381 60.395 69.381 60.395 67.1429 44.7619 67.1429ZM78.2998 42.5238 78.2998 40.2857 67.1093 40.2857 67.1093 42.5238 78.2998 42.5238ZM53.7143 53.7143 53.7143 55.9524 64.8712 55.9524 64.8712 53.7143 53.7143 53.7143ZM55.9524 60.4286 47 60.4286 47 62.6667 55.9524 62.6667 55.9524 60.4286ZM73.8236 62.6667 73.8236 60.4286 58.1905 60.4286 58.1905 62.6667 73.8236 62.6667ZM42.5238 67.1429 38.0476 67.1429 38.0476 69.381 42.5238 69.381 42.5238 67.1429ZM44.7619 60.4286 38.0476 60.4286 38.0476 62.6667 44.7619 62.6667 44.7619 60.4286ZM51.4762 53.7143 42.5238 53.7143 42.5238 55.9524 51.4762 55.9524 51.4762 53.7143ZM49.2381 47 38.0476 47 38.0476 49.2381 49.2381 49.2381 49.2381 47ZM78.2998 29.0952 82.776 29.0952 82.776 26.8571 78.2998 26.8571 78.2998 29.0952ZM49.2381 33.5714 42.5238 33.5714 42.5238 35.8095 49.2381 35.8095 49.2381 33.5714ZM67.1093 55.9524 82.776 55.9524 82.776 53.7143 67.1093 53.7143 67.1093 55.9524ZM73.8236 49.2381 82.776 49.2381 82.776 47 73.8236 47 73.8236 49.2381ZM76.0617 35.8095 82.776 35.8095 82.776 33.5714 76.0617 33.5714 76.0617 35.8095ZM69.3474 76.0952 69.3474 73.8571 60.395 73.8571 60.395 76.0952 69.3474 76.0952ZM58.1569 76.0952 58.1569 73.8571 49.2381 73.8571 49.2381 76.0952 58.1569 76.0952ZM71.5855 76.0952 82.776 76.0952 82.776 73.8571 71.5855 73.8571 71.5855 76.0952ZM78.2998 85.0476 82.776 85.0476 82.776 82.8095 78.2998 82.8095 78.2998 85.0476ZM62.6331 85.0476 76.0617 85.0476 76.0617 82.8095 62.6331 82.8095 62.6331 85.0476ZM76.0617 62.6667 82.776 62.6667 82.776 60.4286 76.0617 60.4286 76.0617 62.6667ZM62.6331 69.381 82.776 69.381 82.776 67.1429 62.6331 67.1429 62.6331 69.381Z" fill="url(#fill27)" transform="matrix(1.00193 0 0 1 1154.82 538.286)"/><path d="M92.881 87.2857 87.2857 87.2857 87.2857 80.5714 92.881 80.5714C93.4987 80.5714 94 81.0728 94 81.6905L94 86.1667C94 86.7844 93.4987 87.2857 92.881 87.2857Z" fill="#42A5F5" transform="matrix(1.00193 0 0 1 1154.82 538.286)"/><path d="M82.8095 80.5714 87.2857 80.5714 87.2857 87.2857 82.8095 87.2857Z" fill="#FFFFFF" fill-opacity="0.7" transform="matrix(1.00193 0 0 1 1154.82 538.286)"/><path d="M82.8095 80.5714 86.8515 80.5714 86.8515 87.2857 82.8095 87.2857Z" fill="#FAF9F8" fill-opacity="0.733" transform="matrix(1.00193 0 0 1 1154.82 538.286)"/><path d="M82.8095 80.5714 86.4151 80.5714 86.4151 87.2857 82.8095 87.2857Z" fill="#F4F3F0" fill-opacity="0.767" transform="matrix(1.00193 0 0 1 1154.82 538.286)"/><path d="M82.8095 80.5714 85.9809 80.5714 85.9809 87.2857 82.8095 87.2857Z" fill="#EFEEE9" fill-opacity="0.8" transform="matrix(1.00193 0 0 1 1154.82 538.286)"/><path d="M82.8095 80.5714 85.5445 80.5714 85.5445 87.2857 82.8095 87.2857Z" fill="#EAE8E1" fill-opacity="0.833" transform="matrix(1.00193 0 0 1 1154.82 538.286)"/><path d="M82.8095 80.5714 85.1103 80.5714 85.1103 87.2857 82.8095 87.2857Z" fill="#E4E2DA" fill-opacity="0.867" transform="matrix(1.00193 0 0 1 1154.82 538.286)"/><path d="M82.8095 80.5714 84.6739 80.5714 84.6739 87.2857 82.8095 87.2857Z" fill="#DFDCD2" fill-opacity="0.9" transform="matrix(1.00193 0 0 1 1154.82 538.286)"/><path d="M82.8095 80.5714 84.2397 80.5714 84.2397 87.2857 82.8095 87.2857Z" fill="#DAD7CB" fill-opacity="0.933" transform="matrix(1.00193 0 0 1 1154.82 538.286)"/><path d="M82.8095 80.5714 83.8032 80.5714 83.8032 87.2857 82.8095 87.2857Z" fill="#D4D1C3" fill-opacity="0.967" transform="matrix(1.00193 0 0 1 1154.82 538.286)"/><path d="M82.8095 80.5714 83.369 80.5714 83.369 87.2857 82.8095 87.2857Z" fill="#CFCBBC" transform="matrix(1.00193 0 0 1 1154.82 538.286)"/><path d="M82.8028 80.5714 83.3355 80.5714 83.3355 87.2857 82.8028 87.2857Z" fill="#A3A094" fill-opacity="0.5" transform="matrix(1.00193 0 0 1 1154.82 538.286)"/><path d="M92.881 64.9048 87.2857 64.9048 87.2857 58.1905 92.881 58.1905C93.4987 58.1905 94 58.6918 94 59.3095L94 63.7857C94 64.4034 93.4987 64.9048 92.881 64.9048Z" fill="#66BB6A" transform="matrix(1.00193 0 0 1 1154.82 538.286)"/><path d="M82.8095 58.1905 87.2857 58.1905 87.2857 64.9048 82.8095 64.9048Z" fill="#FFFFFF" fill-opacity="0.7" transform="matrix(1.00193 0 0 1 1154.82 538.286)"/><path d="M82.8095 58.1905 86.8515 58.1905 86.8515 64.9048 82.8095 64.9048Z" fill="#F8F7F6" fill-opacity="0.733" transform="matrix(1.00193 0 0 1 1154.82 538.286)"/><path d="M82.8095 58.1905 86.4151 58.1905 86.4151 64.9048 82.8095 64.9048Z" fill="#F1F0ED" fill-opacity="0.767" transform="matrix(1.00193 0 0 1 1154.82 538.286)"/><path d="M82.8095 58.1905 85.9809 58.1905 85.9809 64.9048 82.8095 64.9048Z" fill="#EAE8E4" fill-opacity="0.8" transform="matrix(1.00193 0 0 1 1154.82 538.286)"/><path d="M82.8095 58.1905 85.5445 58.1905 85.5445 64.9048 82.8095 64.9048Z" fill="#E3E1DB" fill-opacity="0.833" transform="matrix(1.00193 0 0 1 1154.82 538.286)"/><path d="M82.8095 58.1905 85.1103 58.1905 85.1103 64.9048 82.8095 64.9048Z" fill="#DBD9D1" fill-opacity="0.867" transform="matrix(1.00193 0 0 1 1154.82 538.286)"/><path d="M82.8095 58.1905 84.6739 58.1905 84.6739 64.9048 82.8095 64.9048Z" fill="#D4D2C8" fill-opacity="0.9" transform="matrix(1.00193 0 0 1 1154.82 538.286)"/><path d="M82.8095 58.1905 84.2397 58.1905 84.2397 64.9048 82.8095 64.9048Z" fill="#CDCABF" fill-opacity="0.933" transform="matrix(1.00193 0 0 1 1154.82 538.286)"/><path d="M82.8095 58.1905 83.8032 58.1905 83.8032 64.9048 82.8095 64.9048Z" fill="#C6C3B6" fill-opacity="0.967" transform="matrix(1.00193 0 0 1 1154.82 538.286)"/><path d="M82.8095 58.1905 83.369 58.1905 83.369 64.9048 82.8095 64.9048Z" fill="#BFBBAD" transform="matrix(1.00193 0 0 1 1154.82 538.286)"/><path d="M82.7894 58.1905 83.3377 58.1905 83.3377 64.9048 82.7894 64.9048Z" fill="#A3A094" fill-opacity="0.5" transform="matrix(1.00193 0 0 1 1154.82 538.286)"/><path d="M78.8436 34.1153 55.3772 10.6466C52.8571 8.12876 49.4418 6.71429 45.881 6.71429L20.1429 6.71429 20.1429 94 82.776 94 82.776 43.6093C82.776 40.0485 81.3615 36.6331 78.8436 34.1153Z" fill="url(#fill28)" transform="matrix(1.00193 0 0 1 1154.82 538.286)"/><path d="M55.3772 10.6466C52.8571 8.12876 49.4418 6.71429 45.881 6.71429L20.1429 6.71429 20.1429 94 82.776 94 82.776 43.6093C82.776 40.0485 81.3615 36.6331 78.8436 34.113L55.3772 10.6466Z" fill="url(#fill29)" transform="matrix(1.00193 0 0 1 1154.82 538.286)"/><path d="M35.8095 29.0952 35.8095 26.8571 47 26.8571 47 29.0952 35.8095 29.0952ZM47 40.2857 47 42.5238 55.9188 42.5238 55.9188 40.2857 47 40.2857ZM40.2857 20.1429 29.0952 20.1429 29.0952 22.381 40.2857 22.381 40.2857 20.1429ZM51.4762 49.2381 51.4762 47 40.2857 47 40.2857 49.2381 51.4762 49.2381ZM53.7143 47 53.7143 49.2381 60.395 49.2381 60.395 47 53.7143 47ZM53.7143 33.5714 53.7143 35.8095 60.395 35.8095 60.395 33.5714 53.7143 33.5714ZM49.2381 26.8571 49.2381 29.0952 62.6331 29.0952 62.6331 26.8571 49.2381 26.8571ZM73.8236 40.2857 58.1569 40.2857 58.1569 42.5238 73.8236 42.5238 73.8236 40.2857ZM51.4762 35.8095 51.4762 33.5714 38.0476 33.5714 38.0476 35.8095 51.4762 35.8095ZM51.4762 67.1429 51.4762 69.381 67.1093 69.381 67.1093 67.1429 51.4762 67.1429ZM44.7619 42.5238 44.7619 40.2857 35.8095 40.2857 35.8095 42.5238 44.7619 42.5238ZM47 53.7143 47 55.9524 58.1569 55.9524 58.1569 53.7143 47 53.7143ZM55.9188 62.6667 64.8712 62.6667 64.8712 60.4286 55.9188 60.4286 55.9188 62.6667ZM53.6807 62.6667 53.6807 60.4286 38.0476 60.4286 38.0476 62.6667 53.6807 62.6667ZM69.3474 69.381 73.8236 69.381 73.8236 67.1429 69.3474 67.1429 69.3474 69.381ZM67.1093 62.6667 73.8236 62.6667 73.8236 60.4286 67.1093 60.4286 67.1093 62.6667ZM60.395 55.9524 69.3474 55.9524 69.3474 53.7143 60.395 53.7143 60.395 55.9524ZM62.6331 49.2381 73.8236 49.2381 73.8236 47 62.6331 47 62.6331 49.2381ZM33.5714 26.8571 29.0952 26.8571 29.0952 29.0952 33.5714 29.0952 33.5714 26.8571ZM62.6331 35.8095 69.3474 35.8095 69.3474 33.5714 62.6331 33.5714 62.6331 35.8095ZM44.7619 53.7143 29.0952 53.7143 29.0952 55.9524 44.7619 55.9524 44.7619 53.7143ZM33.5714 40.2857 29.0952 40.2857 29.0952 42.5238 33.5714 42.5238 33.5714 40.2857ZM38.0476 47 29.0952 47 29.0952 49.2381 38.0476 49.2381 38.0476 47ZM35.8095 33.5714 29.0952 33.5714 29.0952 35.8095 35.8095 35.8095 35.8095 33.5714ZM51.4762 76.0952 51.4762 73.8571 42.5238 73.8571 42.5238 76.0952 51.4762 76.0952ZM62.6331 76.0952 62.6331 73.8571 53.7143 73.8571 53.7143 76.0952 62.6331 76.0952ZM40.2857 73.8571 29.0952 73.8571 29.0952 76.0952 40.2857 76.0952 40.2857 73.8571ZM33.5714 82.8095 29.0952 82.8095 29.0952 85.0476 33.5714 85.0476 33.5714 82.8095ZM49.2381 82.8095 35.8095 82.8095 35.8095 85.0476 49.2381 85.0476 49.2381 82.8095ZM35.8095 60.4286 29.0952 60.4286 29.0952 62.6667 35.8095 62.6667 35.8095 60.4286ZM49.2381 67.1429 29.0952 67.1429 29.0952 69.381 49.2381 69.381 49.2381 67.1429Z" fill="url(#fill30)" transform="matrix(1.00193 0 0 1 1154.82 538.286)"/><path d="M78.8436 34.1153 55.3772 10.6466C54.2514 9.52086 52.9421 8.6301 51.5254 7.97433 55.8539 10.8055 58.1569 13.5427 58.1569 31.3333 75.9475 31.3333 78.6847 33.6363 81.5159 37.967 80.8601 36.5503 79.9694 35.2388 78.8436 34.1153Z" fill="url(#fill31)" transform="matrix(1.00193 0 0 1 1154.82 538.286)"/><path d="M81.6905 51.4762 70.5 51.4762C69.8823 51.4762 69.381 50.9749 69.381 50.3571L69.381 45.881C69.381 45.2632 69.8823 44.7619 70.5 44.7619L81.6905 44.7619C82.3082 44.7619 82.8095 45.2632 82.8095 45.881L82.8095 50.3571C82.8095 50.9749 82.3082 51.4762 81.6905 51.4762Z" fill="#FFFFFF" fill-opacity="0.7" transform="matrix(1.00193 0 0 1 1154.82 538.286)"/><path d="M80.5714 51.4762 86.1667 51.4762C86.7844 51.4762 87.2857 50.9749 87.2857 50.3571L87.2857 45.881C87.2857 45.2632 86.7844 44.7619 86.1667 44.7619L80.5714 44.7619 80.5714 51.4762Z" fill="#F06292" transform="matrix(1.00193 0 0 1 1154.82 538.286)"/></g></g></g><text font-family="Aptos,Aptos_MSFontService,sans-serif" font-weight="700" font-size="19" transform="translate(1160.51 664)">Annotations</text><g clip-path="url(#clip32)"><g clip-path="url(#clip33)"><g clip-path="url(#clip34)"><path d="M101.421 94C101.421 106.368 91.5263 106.368 91.5263 106.368L24.7368 106.368 24.7368 12.3684 101.421 12.3684C101.421 12.3684 101.421 81.6316 101.421 94Z" fill="#C5CAE9" transform="matrix(1.01064 0 0 1 987.5 532.632)"/><path d="M34.6316 29.6842 42.0526 29.6842 42.0526 37.1053 34.6316 37.1053Z" fill="#7986CB" transform="matrix(1.01064 0 0 1 987.5 532.632)"/><path d="M49.4737 29.6842 91.5263 29.6842 91.5263 37.1053 49.4737 37.1053Z" fill="#7986CB" transform="matrix(1.01064 0 0 1 987.5 532.632)"/><path d="M34.6316 44.5263 42.0526 44.5263 42.0526 51.9474 34.6316 51.9474Z" fill="#7986CB" transform="matrix(1.01064 0 0 1 987.5 532.632)"/><path d="M49.4737 44.5263 91.5263 44.5263 91.5263 51.9474 49.4737 51.9474Z" fill="#7986CB" transform="matrix(1.01064 0 0 1 987.5 532.632)"/><path d="M34.6316 59.3684 42.0526 59.3684 42.0526 66.7895 34.6316 66.7895Z" fill="#7986CB" transform="matrix(1.01064 0 0 1 987.5 532.632)"/><path d="M49.4737 59.3684 91.5263 59.3684 91.5263 66.7895 49.4737 66.7895Z" fill="#7986CB" transform="matrix(1.01064 0 0 1 987.5 532.632)"/><path d="M81.6316 94C81.6316 92.2363 81.6316 84.6173 81.6316 81.6316L42.0526 81.6316 27.2105 81.6316 17.3158 81.6316C17.3158 84.6173 17.3158 92.2363 17.3158 94 17.3158 100.832 20.3782 106.368 27.2105 106.368L91.5263 106.368C84.694 106.368 81.6316 100.832 81.6316 94Z" fill="#3F51B5" transform="matrix(1.01064 0 0 1 987.5 532.632)"/></g></g></g><text font-family="Aptos,Aptos_MSFontService,sans-serif" font-weight="700" font-size="19" transform="translate(1013.8 664)">Product</text><text font-family="Aptos,Aptos_MSFontService,sans-serif" font-weight="700" font-size="19" transform="translate(997.821 687)">Statements</text><path d="M3-8.33333e-06 3.00009 31.8553C3.00009 33.5121 1.65695 34.8553 9.68202e-05 34.8553-1.65676 34.8553-2.99991 33.5121-2.99991 31.8553L-3 8.33333e-06C-3-1.65685-1.65686-3-8.33333e-06-3 1.65685-3 3-1.65686 3-8.33333e-06ZM13.0914 15.3669 0.000104921 37.8092-13.0913 15.3669C-13.9261 13.9358-13.4427 12.0988-12.0116 11.264-10.5804 10.4291-8.74347 10.9125-7.90863 12.3437L2.59142 30.3437-2.59125 30.3437 7.9087 12.3436C8.74353 10.9125 10.5805 10.4291 12.0116 11.2639 13.4428 12.0987 13.9262 13.9357 13.0914 15.3669Z" fill="#BFBFBF" transform="matrix(-1 0 0 1 913 499)"/><path d="M3-8.33333e-06 3.00009 31.8553C3.00009 33.5121 1.65695 34.8553 9.68202e-05 34.8553-1.65676 34.8553-2.99991 33.5121-2.99991 31.8553L-3 8.33333e-06C-3-1.65685-1.65686-3-8.33333e-06-3 1.65685-3 3-1.65686 3-8.33333e-06ZM13.0914 15.3669 0.000104921 37.8092-13.0913 15.3669C-13.9261 13.9358-13.4427 12.0988-12.0116 11.264-10.5804 10.4291-8.74347 10.9125-7.90863 12.3437L2.59142 30.3437-2.59125 30.3437 7.9087 12.3436C8.74353 10.9125 10.5805 10.4291 12.0116 11.2639 13.4428 12.0987 13.9262 13.9357 13.0914 15.3669Z" fill="#BFBFBF" transform="matrix(-1 0 0 1 1048 499)"/><path d="M3-8.33333e-06 3.00009 31.8553C3.00009 33.5121 1.65695 34.8553 9.68202e-05 34.8553-1.65676 34.8553-2.99991 33.5121-2.99991 31.8553L-3 8.33333e-06C-3-1.65685-1.65686-3-8.33333e-06-3 1.65685-3 3-1.65686 3-8.33333e-06ZM13.0914 15.3669 0.000104921 37.8092-13.0913 15.3669C-13.9261 13.9358-13.4427 12.0988-12.0116 11.264-10.5804 10.4291-8.74347 10.9125-7.90863 12.3437L2.59142 30.3437-2.59125 30.3437 7.9087 12.3436C8.74353 10.9125 10.5805 10.4291 12.0116 11.2639 13.4428 12.0987 13.9262 13.9357 13.0914 15.3669Z" fill="#BFBFBF" transform="matrix(-1 0 0 1 1212 499)"/></g></svg>