<?xml version="1.0" encoding="UTF-8" standalone="no"?>
<!-- Generator: Adobe Illustrator 22.1.0, SVG Export Plug-In . SVG Version: 6.00 Build 0)  -->

<svg
   version="1.1"
   id="Layer_1"
   x="0px"
   y="0px"
   viewBox="0 0 450 450"
   style="enable-background:new 0 0 450 450;"
   xml:space="preserve"
   sodipodi:docname="vast-square.svg"
   inkscape:version="1.2.2 (b0a8486541, 2022-12-01)"
   xmlns:inkscape="http://www.inkscape.org/namespaces/inkscape"
   xmlns:sodipodi="http://sodipodi.sourceforge.net/DTD/sodipodi-0.dtd"
   xmlns="http://www.w3.org/2000/svg"
   xmlns:svg="http://www.w3.org/2000/svg"><defs
   id="defs63" /><sodipodi:namedview
   id="namedview61"
   pagecolor="#ffffff"
   bordercolor="#000000"
   borderopacity="0.25"
   inkscape:showpageshadow="2"
   inkscape:pageopacity="0.0"
   inkscape:pagecheckerboard="0"
   inkscape:deskcolor="#d1d1d1"
   showgrid="false"
   inkscape:zoom="2.2822222"
   inkscape:cx="154.01655"
   inkscape:cy="224.78092"
   inkscape:window-width="2500"
   inkscape:window-height="1239"
   inkscape:window-x="0"
   inkscape:window-y="32"
   inkscape:window-maximized="1"
   inkscape:current-layer="Layer_1" />
<style
   type="text/css"
   id="style2">
	.st0{fill:#4F4946;}
</style>
<g
   id="g58"
   transform="translate(0.04114571,135)">
	<g
   id="g50">
		<g
   id="g48">
			<path
   class="st0"
   d="m 357.8,71 -6,-16 h 2.9 l 4.5,13.4 h 0.1 L 363.7,55 h 2.8 l -5.9,16 z"
   id="path4" />
			<path
   class="st0"
   d="m 383.8,71 c -0.5,0.3 -1.1,0.4 -1.9,0.4 -0.7,0 -1.2,-0.2 -1.6,-0.6 -0.4,-0.4 -0.6,-1 -0.6,-1.9 -0.7,0.9 -1.6,1.5 -2.5,1.9 -1,0.4 -2,0.6 -3.1,0.6 -0.7,0 -1.4,-0.1 -2.1,-0.2 -0.7,-0.2 -1.2,-0.4 -1.7,-0.8 -0.5,-0.4 -0.9,-0.8 -1.1,-1.4 -0.3,-0.6 -0.4,-1.3 -0.4,-2.1 0,-0.9 0.2,-1.7 0.5,-2.2 0.3,-0.6 0.7,-1 1.2,-1.4 0.5,-0.4 1.1,-0.6 1.7,-0.8 0.7,-0.2 1.3,-0.3 2,-0.5 0.7,-0.1 1.4,-0.3 2.1,-0.3 0.7,-0.1 1.2,-0.2 1.7,-0.3 0.5,-0.1 0.9,-0.3 1.2,-0.6 0.3,-0.3 0.4,-0.6 0.4,-1.1 0,-0.6 -0.1,-1 -0.3,-1.4 -0.2,-0.4 -0.5,-0.6 -0.8,-0.8 -0.3,-0.2 -0.7,-0.3 -1.1,-0.4 C 377,57 376.6,57 376.1,57 c -1.1,0 -2,0.2 -2.8,0.6 -0.7,0.4 -1.1,1.2 -1.2,2.4 h -2.6 c 0,-1 0.2,-1.8 0.6,-2.5 0.4,-0.7 0.9,-1.2 1.5,-1.7 0.6,-0.4 1.3,-0.7 2.1,-0.9 0.8,-0.2 1.6,-0.3 2.6,-0.3 0.7,0 1.4,0.1 2.2,0.2 0.7,0.1 1.4,0.3 1.9,0.6 0.6,0.3 1,0.8 1.4,1.3 0.4,0.6 0.5,1.3 0.5,2.3 v 8.2 c 0,0.6 0,1.1 0.1,1.4 0.1,0.3 0.3,0.4 0.7,0.4 0.2,0 0.5,0 0.8,-0.1 V 71 Z m -4.2,-8.2 c -0.3,0.2 -0.8,0.4 -1.3,0.5 -0.5,0.1 -1.1,0.2 -1.7,0.3 -0.6,0.1 -1.2,0.2 -1.8,0.2 -0.6,0.1 -1.1,0.2 -1.6,0.4 -0.5,0.2 -0.9,0.5 -1.2,0.9 -0.3,0.4 -0.4,0.9 -0.4,1.6 0,0.4 0.1,0.8 0.3,1.1 0.2,0.3 0.4,0.5 0.7,0.7 0.3,0.2 0.6,0.3 1,0.4 0.4,0.1 0.8,0.1 1.2,0.1 0.9,0 1.6,-0.1 2.2,-0.4 0.6,-0.2 1.1,-0.5 1.5,-0.9 0.4,-0.4 0.7,-0.8 0.9,-1.2 0.2,-0.4 0.3,-0.8 0.3,-1.2 v -2.5 z"
   id="path6" />
			<path
   class="st0"
   d="M 389.9,48.9 V 71 h -2.6 V 48.9 Z"
   id="path8" />
			<path
   class="st0"
   d="m 405.5,71 v -2.5 h -0.1 c -0.6,1 -1.3,1.7 -2.1,2.2 -0.9,0.5 -1.9,0.7 -3.1,0.7 -1.1,0 -1.9,-0.1 -2.6,-0.4 -0.7,-0.3 -1.3,-0.7 -1.7,-1.2 -0.4,-0.5 -0.7,-1.1 -0.9,-1.8 -0.2,-0.7 -0.3,-1.5 -0.3,-2.4 V 55 h 2.6 v 10.9 c 0,1 0.3,1.8 0.9,2.4 0.6,0.6 1.4,0.9 2.4,0.9 0.8,0 1.5,-0.1 2.1,-0.4 0.6,-0.2 1.1,-0.6 1.5,-1.1 0.4,-0.5 0.7,-1 0.9,-1.6 0.2,-0.6 0.3,-1.3 0.3,-2 V 55 h 2.6 v 16 z"
   id="path10" />
			<path
   class="st0"
   d="m 424.1,70 c -1.2,0.9 -2.7,1.4 -4.5,1.4 -1.3,0 -2.4,-0.2 -3.3,-0.6 -0.9,-0.4 -1.7,-1 -2.4,-1.7 -0.6,-0.7 -1.1,-1.6 -1.4,-2.7 -0.3,-1 -0.5,-2.2 -0.5,-3.4 0,-1.2 0.2,-2.3 0.6,-3.4 0.4,-1 0.9,-1.9 1.6,-2.6 0.7,-0.7 1.5,-1.3 2.4,-1.7 0.9,-0.4 1.9,-0.6 3,-0.6 1.4,0 2.6,0.3 3.5,0.9 0.9,0.6 1.7,1.3 2.3,2.2 0.6,0.9 1,1.9 1.2,3 0.2,1.1 0.3,2.1 0.3,3.1 h -12 c 0,0.7 0.1,1.4 0.2,2 0.2,0.6 0.5,1.2 0.9,1.7 0.4,0.5 0.9,0.9 1.6,1.2 0.6,0.3 1.4,0.4 2.3,0.4 1.1,0 2,-0.3 2.7,-0.8 0.7,-0.5 1.2,-1.3 1.4,-2.4 h 2.6 c -0.5,1.7 -1.3,3.1 -2.5,4 z m -0.6,-10.3 c -0.2,-0.6 -0.6,-1 -1,-1.4 -0.4,-0.4 -0.9,-0.7 -1.4,-1 -0.5,-0.2 -1.2,-0.4 -1.8,-0.4 -0.7,0 -1.3,0.1 -1.8,0.4 -0.5,0.2 -1,0.6 -1.4,1 -0.4,0.4 -0.7,0.9 -0.9,1.4 -0.2,0.5 -0.4,1.1 -0.4,1.8 h 9.2 c -0.1,-0.6 -0.3,-1.2 -0.5,-1.8 z"
   id="path12" />
			<path
   class="st0"
   d="m 432.2,67.5 c 0.2,0.4 0.6,0.7 1,1 0.4,0.2 0.9,0.4 1.4,0.5 0.5,0.1 1,0.2 1.6,0.2 0.4,0 0.9,0 1.3,-0.1 0.5,-0.1 0.9,-0.2 1.3,-0.3 0.4,-0.2 0.7,-0.4 0.9,-0.7 0.2,-0.3 0.4,-0.7 0.4,-1.2 0,-0.7 -0.3,-1.2 -0.8,-1.6 -0.5,-0.4 -1.2,-0.6 -1.9,-0.9 -0.8,-0.2 -1.6,-0.4 -2.5,-0.6 -0.9,-0.2 -1.8,-0.4 -2.5,-0.7 -0.8,-0.3 -1.4,-0.8 -1.9,-1.3 -0.5,-0.6 -0.8,-1.4 -0.8,-2.4 0,-0.8 0.2,-1.5 0.5,-2.1 0.4,-0.6 0.8,-1 1.4,-1.4 0.6,-0.4 1.2,-0.6 1.9,-0.8 0.7,-0.2 1.4,-0.3 2.1,-0.3 0.9,0 1.7,0.1 2.5,0.2 0.8,0.2 1.4,0.4 2,0.8 0.6,0.4 1.1,0.9 1.4,1.6 0.3,0.7 0.6,1.5 0.6,2.4 h -2.6 c 0,-0.5 -0.2,-0.9 -0.4,-1.3 -0.2,-0.3 -0.5,-0.6 -0.9,-0.8 -0.3,-0.2 -0.7,-0.4 -1.2,-0.5 -0.4,-0.1 -0.9,-0.1 -1.3,-0.1 -0.4,0 -0.8,0 -1.2,0.1 -0.4,0.1 -0.8,0.2 -1.1,0.3 -0.3,0.2 -0.6,0.4 -0.8,0.6 -0.2,0.3 -0.3,0.6 -0.3,1 0,0.5 0.2,0.8 0.5,1.1 0.3,0.3 0.7,0.5 1.2,0.7 0.5,0.2 1.1,0.4 1.7,0.5 0.6,0.1 1.2,0.3 1.9,0.4 0.7,0.1 1.3,0.3 1.9,0.5 0.6,0.2 1.2,0.5 1.7,0.8 0.5,0.3 0.9,0.8 1.2,1.3 0.3,0.5 0.4,1.2 0.4,1.9 0,1 -0.2,1.8 -0.6,2.4 -0.4,0.6 -0.9,1.2 -1.6,1.6 -0.7,0.4 -1.4,0.7 -2.2,0.8 -0.8,0.2 -1.6,0.2 -2.4,0.2 -0.9,0 -1.7,-0.1 -2.5,-0.3 -0.8,-0.2 -1.5,-0.5 -2.1,-0.9 -0.6,-0.4 -1.1,-1 -1.5,-1.7 -0.4,-0.7 -0.6,-1.5 -0.6,-2.5 h 2.6 c -0.1,0.7 0.1,1.1 0.3,1.6 z"
   id="path14" />
			<path
   class="st0"
   d="m 367.6,102.1 c -0.5,0.3 -1.1,0.4 -1.9,0.4 -0.7,0 -1.2,-0.2 -1.6,-0.6 -0.4,-0.4 -0.6,-1 -0.6,-1.9 -0.7,0.9 -1.6,1.5 -2.5,1.9 -1,0.4 -2,0.6 -3.1,0.6 -0.7,0 -1.4,-0.1 -2.1,-0.2 -0.7,-0.2 -1.2,-0.4 -1.7,-0.8 -0.5,-0.4 -0.9,-0.8 -1.1,-1.4 -0.3,-0.6 -0.4,-1.3 -0.4,-2.1 0,-0.9 0.2,-1.7 0.5,-2.2 0.3,-0.6 0.7,-1 1.2,-1.4 0.5,-0.4 1.1,-0.6 1.7,-0.8 0.7,-0.2 1.3,-0.3 2,-0.5 0.7,-0.1 1.4,-0.3 2.1,-0.3 0.7,-0.1 1.2,-0.2 1.7,-0.3 0.5,-0.1 0.9,-0.3 1.2,-0.6 0.3,-0.3 0.4,-0.6 0.4,-1.1 0,-0.6 -0.1,-1 -0.3,-1.4 -0.2,-0.4 -0.5,-0.6 -0.8,-0.8 -0.3,-0.2 -0.7,-0.3 -1.1,-0.4 -0.4,-0.1 -0.8,-0.1 -1.3,-0.1 -1.1,0 -2,0.2 -2.8,0.6 -0.7,0.4 -1.1,1.2 -1.2,2.4 h -2.6 c 0,-1 0.2,-1.8 0.6,-2.5 0.4,-0.7 0.9,-1.2 1.5,-1.7 0.6,-0.4 1.3,-0.7 2.1,-0.9 0.8,-0.2 1.6,-0.3 2.6,-0.3 0.7,0 1.4,0.1 2.2,0.2 0.7,0.1 1.4,0.3 1.9,0.6 0.6,0.3 1,0.8 1.4,1.3 0.4,0.6 0.5,1.3 0.5,2.3 v 8.2 c 0,0.6 0,1.1 0.1,1.4 0.1,0.3 0.3,0.4 0.7,0.4 0.2,0 0.5,0 0.8,-0.1 v 2.1 z m -4.3,-8.2 c -0.3,0.2 -0.8,0.4 -1.3,0.5 -0.5,0.1 -1.1,0.2 -1.7,0.3 -0.6,0.1 -1.2,0.2 -1.8,0.2 -0.6,0.1 -1.1,0.2 -1.6,0.4 -0.5,0.2 -0.9,0.5 -1.2,0.9 -0.3,0.4 -0.4,0.9 -0.4,1.6 0,0.4 0.1,0.8 0.3,1.1 0.2,0.3 0.4,0.5 0.7,0.7 0.3,0.2 0.6,0.3 1,0.4 0.4,0.1 0.8,0.1 1.2,0.1 0.9,0 1.6,-0.1 2.2,-0.4 0.6,-0.2 1.1,-0.5 1.5,-0.9 0.4,-0.4 0.7,-0.8 0.9,-1.2 0.2,-0.4 0.3,-0.8 0.3,-1.2 v -2.5 z"
   id="path16" />
			<path
   class="st0"
   d="m 380.4,88.9 c -0.7,-0.6 -1.6,-0.8 -2.7,-0.8 -1,0 -1.7,0.2 -2.4,0.5 -0.6,0.4 -1.2,0.8 -1.5,1.4 -0.4,0.6 -0.7,1.2 -0.8,2 -0.2,0.8 -0.2,1.5 -0.2,2.3 0,0.7 0.1,1.5 0.3,2.2 0.2,0.7 0.5,1.3 0.8,1.9 0.4,0.5 0.9,1 1.5,1.3 0.6,0.3 1.3,0.5 2.1,0.5 1.3,0 2.3,-0.3 3.1,-1 0.7,-0.7 1.2,-1.6 1.4,-2.9 h 2.7 c -0.3,2 -1,3.5 -2.2,4.6 -1.2,1.1 -2.8,1.6 -4.9,1.6 -1.2,0 -2.3,-0.2 -3.2,-0.6 -0.9,-0.4 -1.7,-1 -2.4,-1.7 -0.6,-0.7 -1.1,-1.6 -1.4,-2.6 -0.3,-1 -0.5,-2.1 -0.5,-3.3 0,-1.2 0.2,-2.3 0.5,-3.4 0.3,-1 0.8,-2 1.4,-2.7 0.6,-0.8 1.4,-1.4 2.4,-1.8 1,-0.4 2.1,-0.7 3.3,-0.7 0.9,0 1.8,0.1 2.6,0.3 0.8,0.2 1.5,0.6 2.1,1 0.6,0.5 1.1,1 1.5,1.7 0.4,0.7 0.6,1.5 0.7,2.5 h -2.7 c -0.4,-1 -0.9,-1.7 -1.5,-2.3 z"
   id="path18" />
			<path
   class="st0"
   d="m 390.6,86.1 v 3.4 h 0.1 c 0.6,-1.3 1.4,-2.3 2.4,-2.9 0.9,-0.6 2.1,-0.9 3.5,-0.9 v 2.8 c -1.1,0 -2,0.1 -2.7,0.4 -0.7,0.3 -1.3,0.7 -1.8,1.3 -0.5,0.6 -0.8,1.2 -1,2 -0.2,0.8 -0.3,1.7 -0.3,2.7 v 7.1 h -2.6 V 86 h 2.4 z"
   id="path20" />
			<path
   class="st0"
   d="m 398.4,90.8 c 0.3,-1 0.8,-1.9 1.5,-2.7 0.7,-0.8 1.5,-1.3 2.5,-1.8 1,-0.4 2.1,-0.7 3.4,-0.7 1.3,0 2.4,0.2 3.4,0.7 1,0.4 1.8,1 2.4,1.8 0.7,0.8 1.2,1.6 1.5,2.7 0.3,1 0.5,2.1 0.5,3.3 0,1.2 -0.2,2.3 -0.5,3.3 -0.3,1 -0.8,1.9 -1.5,2.7 -0.7,0.8 -1.5,1.3 -2.4,1.8 -1,0.4 -2.1,0.6 -3.4,0.6 -1.3,0 -2.4,-0.2 -3.4,-0.6 -1,-0.4 -1.8,-1 -2.5,-1.8 -0.7,-0.8 -1.2,-1.6 -1.5,-2.7 -0.3,-1 -0.5,-2.1 -0.5,-3.3 0,-1.1 0.2,-2.2 0.5,-3.3 z m 2.7,5.9 c 0.3,0.8 0.6,1.4 1.1,1.9 0.5,0.5 1,0.9 1.6,1.2 0.6,0.3 1.3,0.4 1.9,0.4 0.7,0 1.3,-0.1 1.9,-0.4 0.6,-0.3 1.1,-0.7 1.6,-1.2 0.5,-0.5 0.8,-1.1 1.1,-1.9 0.3,-0.8 0.4,-1.6 0.4,-2.6 0,-1 -0.1,-1.8 -0.4,-2.6 -0.3,-0.8 -0.6,-1.4 -1.1,-1.9 -0.5,-0.5 -1,-0.9 -1.6,-1.2 -0.6,-0.3 -1.3,-0.4 -1.9,-0.4 -0.7,0 -1.3,0.1 -1.9,0.4 -0.6,0.3 -1.1,0.7 -1.6,1.2 -0.5,0.5 -0.8,1.2 -1.1,1.9 -0.3,0.8 -0.4,1.6 -0.4,2.6 0,1 0.1,1.9 0.4,2.6 z"
   id="path22" />
			<path
   class="st0"
   d="m 419.4,98.6 c 0.2,0.4 0.6,0.7 1,1 0.4,0.2 0.9,0.4 1.4,0.5 0.5,0.1 1,0.2 1.6,0.2 0.4,0 0.9,0 1.3,-0.1 0.5,-0.1 0.9,-0.2 1.3,-0.3 0.4,-0.2 0.7,-0.4 0.9,-0.7 0.2,-0.3 0.4,-0.7 0.4,-1.2 0,-0.7 -0.3,-1.2 -0.8,-1.6 -0.5,-0.4 -1.2,-0.6 -1.9,-0.9 -0.8,-0.2 -1.6,-0.4 -2.5,-0.6 -0.9,-0.2 -1.8,-0.4 -2.5,-0.7 -0.8,-0.3 -1.4,-0.8 -1.9,-1.3 -0.5,-0.6 -0.8,-1.4 -0.8,-2.4 0,-0.8 0.2,-1.5 0.5,-2.1 0.4,-0.6 0.8,-1 1.4,-1.4 0.6,-0.4 1.2,-0.6 1.9,-0.8 0.7,-0.2 1.4,-0.3 2.1,-0.3 0.9,0 1.7,0.1 2.5,0.2 0.8,0.2 1.4,0.4 2,0.8 0.6,0.4 1.1,0.9 1.4,1.6 0.3,0.7 0.6,1.5 0.6,2.4 h -2.6 c 0,-0.5 -0.2,-0.9 -0.4,-1.3 -0.2,-0.3 -0.5,-0.6 -0.9,-0.8 -0.3,-0.2 -0.7,-0.4 -1.2,-0.5 -0.4,-0.1 -0.9,-0.1 -1.3,-0.1 -0.4,0 -0.8,0 -1.2,0.1 -0.4,0.1 -0.8,0.2 -1.1,0.3 -0.3,0.2 -0.6,0.4 -0.8,0.6 -0.2,0.3 -0.3,0.6 -0.3,1 0,0.5 0.2,0.8 0.5,1.1 0.3,0.3 0.7,0.5 1.2,0.7 0.5,0.2 1.1,0.4 1.7,0.5 0.6,0.1 1.2,0.3 1.9,0.4 0.7,0.1 1.3,0.3 1.9,0.5 0.6,0.2 1.2,0.5 1.7,0.8 0.5,0.3 0.9,0.8 1.2,1.3 0.3,0.5 0.4,1.2 0.4,1.9 0,1 -0.2,1.8 -0.6,2.4 -0.4,0.6 -0.9,1.2 -1.6,1.5 -0.7,0.4 -1.4,0.7 -2.2,0.8 -0.8,0.2 -1.6,0.2 -2.4,0.2 -0.9,0 -1.7,-0.1 -2.5,-0.3 -0.8,-0.2 -1.5,-0.5 -2.1,-0.9 -0.6,-0.4 -1.1,-1 -1.5,-1.7 -0.4,-0.7 -0.6,-1.5 -0.6,-2.5 h 2.6 c -0.1,0.8 0,1.3 0.3,1.7 z"
   id="path24" />
			<path
   class="st0"
   d="m 435.6,98.6 c 0.2,0.4 0.6,0.7 1,1 0.4,0.2 0.9,0.4 1.4,0.5 0.5,0.1 1,0.2 1.6,0.2 0.4,0 0.9,0 1.3,-0.1 0.5,-0.1 0.9,-0.2 1.3,-0.3 0.4,-0.2 0.7,-0.4 0.9,-0.7 0.3,-0.3 0.4,-0.7 0.4,-1.2 0,-0.7 -0.3,-1.2 -0.8,-1.6 -0.5,-0.4 -1.2,-0.6 -1.9,-0.9 -0.8,-0.2 -1.6,-0.4 -2.5,-0.6 -0.9,-0.2 -1.8,-0.4 -2.5,-0.7 -0.8,-0.3 -1.4,-0.8 -1.9,-1.3 -0.5,-0.6 -0.8,-1.4 -0.8,-2.4 0,-0.8 0.2,-1.5 0.5,-2.1 0.4,-0.6 0.8,-1 1.4,-1.4 0.6,-0.4 1.2,-0.6 1.9,-0.8 0.7,-0.2 1.4,-0.3 2.1,-0.3 0.9,0 1.7,0.1 2.5,0.2 0.8,0.2 1.4,0.4 2,0.8 0.6,0.4 1.1,0.9 1.4,1.6 0.3,0.7 0.6,1.5 0.6,2.4 h -2.6 c 0,-0.5 -0.2,-0.9 -0.4,-1.3 -0.2,-0.3 -0.5,-0.6 -0.9,-0.8 -0.3,-0.2 -0.7,-0.4 -1.2,-0.5 -0.4,-0.1 -0.9,-0.1 -1.3,-0.1 -0.4,0 -0.8,0 -1.2,0.1 -0.4,0.1 -0.8,0.2 -1.1,0.3 -0.3,0.2 -0.6,0.4 -0.8,0.6 -0.2,0.3 -0.3,0.6 -0.3,1 0,0.5 0.2,0.8 0.5,1.1 0.3,0.3 0.7,0.5 1.2,0.7 0.5,0.2 1.1,0.4 1.7,0.5 0.6,0.1 1.2,0.3 1.9,0.4 0.7,0.1 1.3,0.3 1.9,0.5 0.6,0.2 1.2,0.5 1.7,0.8 0.5,0.3 0.9,0.8 1.2,1.3 0.3,0.5 0.4,1.2 0.4,1.9 0,1 -0.2,1.8 -0.6,2.4 -0.4,0.6 -0.9,1.2 -1.6,1.5 -0.7,0.4 -1.4,0.7 -2.2,0.8 -0.8,0.2 -1.6,0.2 -2.4,0.2 -0.9,0 -1.7,-0.1 -2.5,-0.3 -0.8,-0.2 -1.5,-0.5 -2.1,-0.9 -0.6,-0.4 -1.1,-1 -1.5,-1.7 -0.4,-0.7 -0.6,-1.5 -0.6,-2.5 h 2.6 c 0,0.8 0.1,1.3 0.3,1.7 z"
   id="path26" />
			<path
   class="st0"
   d="m 355.4,129.7 c 0.3,0.4 0.6,0.7 1,1 0.4,0.2 0.9,0.4 1.4,0.5 0.5,0.1 1,0.2 1.6,0.2 0.4,0 0.8,0 1.3,-0.1 0.5,-0.1 0.9,-0.2 1.3,-0.3 0.4,-0.2 0.7,-0.4 0.9,-0.7 0.2,-0.3 0.4,-0.7 0.4,-1.2 0,-0.7 -0.3,-1.2 -0.8,-1.6 -0.5,-0.3 -1.2,-0.6 -1.9,-0.9 -0.8,-0.2 -1.6,-0.4 -2.5,-0.6 -0.9,-0.2 -1.8,-0.4 -2.5,-0.7 -0.8,-0.3 -1.4,-0.8 -1.9,-1.4 -0.5,-0.6 -0.8,-1.4 -0.8,-2.4 0,-0.8 0.2,-1.5 0.5,-2.1 0.4,-0.6 0.8,-1 1.4,-1.4 0.6,-0.4 1.2,-0.6 1.9,-0.8 0.7,-0.2 1.4,-0.3 2.1,-0.3 0.9,0 1.7,0.1 2.5,0.2 0.8,0.2 1.4,0.4 2,0.8 0.6,0.4 1.1,0.9 1.4,1.5 0.4,0.7 0.6,1.5 0.6,2.4 h -2.6 c 0,-0.5 -0.2,-0.9 -0.4,-1.3 -0.2,-0.3 -0.5,-0.6 -0.9,-0.8 -0.4,-0.2 -0.7,-0.4 -1.2,-0.4 -0.4,-0.1 -0.9,-0.1 -1.3,-0.1 -0.4,0 -0.8,0 -1.2,0.1 -0.4,0.1 -0.8,0.2 -1.1,0.3 -0.3,0.2 -0.6,0.4 -0.8,0.6 -0.2,0.3 -0.3,0.6 -0.3,1 0,0.5 0.2,0.8 0.5,1.1 0.3,0.3 0.7,0.5 1.2,0.7 0.5,0.2 1.1,0.4 1.7,0.5 0.6,0.1 1.2,0.3 1.9,0.4 0.7,0.1 1.3,0.3 1.9,0.5 0.6,0.2 1.2,0.5 1.7,0.8 0.5,0.3 0.9,0.8 1.2,1.3 0.3,0.5 0.4,1.2 0.4,1.9 0,1 -0.2,1.8 -0.6,2.4 -0.4,0.6 -0.9,1.2 -1.6,1.5 -0.6,0.4 -1.4,0.7 -2.2,0.8 -0.8,0.2 -1.6,0.2 -2.4,0.2 -0.9,0 -1.7,-0.1 -2.5,-0.3 -0.8,-0.2 -1.5,-0.5 -2.1,-0.9 -0.6,-0.4 -1.1,-1 -1.5,-1.7 -0.4,-0.7 -0.6,-1.5 -0.6,-2.5 h 2.6 c -0.1,0.9 0,1.4 0.3,1.8 z"
   id="path28" />
			<path
   class="st0"
   d="m 372.4,117.2 v 2.2 h 0.1 c 0.4,-0.9 1.1,-1.5 2,-1.9 0.9,-0.4 2,-0.6 3.1,-0.6 1.2,0 2.3,0.2 3.2,0.7 0.9,0.5 1.7,1.1 2.3,1.8 0.6,0.8 1.1,1.7 1.4,2.7 0.3,1 0.5,2.1 0.5,3.2 0,1.1 -0.2,2.2 -0.5,3.2 -0.3,1 -0.8,1.9 -1.4,2.7 -0.6,0.8 -1.4,1.3 -2.3,1.8 -0.9,0.4 -2,0.7 -3.2,0.7 -0.4,0 -0.8,0 -1.3,-0.1 -0.5,-0.1 -1,-0.2 -1.4,-0.4 -0.5,-0.2 -0.9,-0.4 -1.3,-0.8 -0.4,-0.3 -0.8,-0.7 -1.1,-1.2 h -0.1 v 8.3 h -2.6 v -22.1 h 2.6 z m 9.4,5.7 c -0.2,-0.7 -0.5,-1.3 -0.9,-1.9 -0.4,-0.6 -0.9,-1 -1.5,-1.3 -0.6,-0.3 -1.4,-0.5 -2.2,-0.5 -0.9,0 -1.6,0.2 -2.3,0.5 -0.6,0.4 -1.1,0.8 -1.5,1.4 -0.4,0.6 -0.7,1.2 -0.9,1.9 -0.2,0.7 -0.3,1.5 -0.3,2.2 0,0.8 0.1,1.5 0.3,2.3 0.2,0.7 0.5,1.4 0.9,1.9 0.4,0.6 0.9,1 1.6,1.3 0.6,0.3 1.4,0.5 2.3,0.5 0.9,0 1.7,-0.2 2.3,-0.5 0.6,-0.3 1.1,-0.8 1.5,-1.4 0.4,-0.6 0.6,-1.2 0.8,-2 0.2,-0.7 0.2,-1.5 0.2,-2.3 0,-0.6 -0.1,-1.4 -0.3,-2.1 z"
   id="path30" />
			<path
   class="st0"
   d="m 403,133.2 c -0.5,0.3 -1.1,0.4 -1.9,0.4 -0.7,0 -1.2,-0.2 -1.6,-0.6 -0.4,-0.4 -0.6,-1 -0.6,-1.9 -0.7,0.9 -1.6,1.5 -2.5,1.9 -1,0.4 -2,0.6 -3.1,0.6 -0.7,0 -1.4,-0.1 -2.1,-0.3 -0.7,-0.2 -1.2,-0.4 -1.7,-0.8 -0.5,-0.4 -0.9,-0.8 -1.1,-1.4 -0.3,-0.6 -0.4,-1.3 -0.4,-2.1 0,-0.9 0.2,-1.7 0.5,-2.2 0.3,-0.6 0.7,-1 1.2,-1.4 0.5,-0.4 1.1,-0.6 1.7,-0.8 0.7,-0.2 1.3,-0.3 2,-0.5 0.7,-0.1 1.4,-0.3 2.1,-0.3 0.7,-0.1 1.2,-0.2 1.7,-0.3 0.5,-0.1 0.9,-0.3 1.2,-0.6 0.3,-0.3 0.4,-0.6 0.4,-1.1 0,-0.6 -0.1,-1 -0.3,-1.4 -0.2,-0.4 -0.5,-0.6 -0.8,-0.8 -0.3,-0.2 -0.7,-0.3 -1.1,-0.4 -0.4,-0.1 -0.8,-0.1 -1.3,-0.1 -1.1,0 -2,0.2 -2.8,0.6 -0.7,0.4 -1.1,1.2 -1.2,2.4 h -2.6 c 0,-1 0.2,-1.8 0.6,-2.5 0.4,-0.7 0.9,-1.2 1.5,-1.7 0.6,-0.4 1.3,-0.7 2.1,-0.9 0.8,-0.2 1.6,-0.3 2.6,-0.3 0.7,0 1.4,0.1 2.2,0.2 0.7,0.1 1.4,0.3 1.9,0.6 0.6,0.3 1,0.8 1.4,1.3 0.4,0.6 0.5,1.3 0.5,2.3 v 8.2 c 0,0.6 0,1.1 0.1,1.4 0.1,0.3 0.3,0.4 0.7,0.4 0.2,0 0.5,0 0.8,-0.1 v 2.2 z m -4.3,-8.2 c -0.3,0.2 -0.8,0.4 -1.3,0.5 -0.5,0.1 -1.1,0.2 -1.7,0.3 -0.6,0.1 -1.2,0.2 -1.8,0.2 -0.6,0.1 -1.1,0.2 -1.6,0.4 -0.5,0.2 -0.9,0.5 -1.2,0.9 -0.3,0.4 -0.4,0.9 -0.4,1.6 0,0.4 0.1,0.8 0.3,1.1 0.2,0.3 0.4,0.5 0.7,0.7 0.3,0.2 0.6,0.3 1,0.4 0.4,0.1 0.8,0.1 1.2,0.1 0.9,0 1.6,-0.1 2.2,-0.4 0.6,-0.2 1.1,-0.5 1.5,-0.9 0.4,-0.4 0.7,-0.8 0.9,-1.2 0.2,-0.4 0.3,-0.8 0.3,-1.2 V 125 Z"
   id="path32" />
			<path
   class="st0"
   d="m 415.8,120 c -0.7,-0.6 -1.6,-0.8 -2.7,-0.8 -1,0 -1.7,0.2 -2.4,0.5 -0.6,0.4 -1.2,0.8 -1.5,1.4 -0.4,0.6 -0.7,1.2 -0.8,2 -0.2,0.8 -0.2,1.5 -0.2,2.3 0,0.7 0.1,1.5 0.3,2.2 0.2,0.7 0.5,1.3 0.8,1.9 0.4,0.5 0.9,1 1.5,1.3 0.6,0.3 1.3,0.5 2.1,0.5 1.3,0 2.3,-0.3 3.1,-1 0.7,-0.7 1.2,-1.6 1.4,-2.9 h 2.7 c -0.3,2 -1,3.5 -2.2,4.6 -1.2,1.1 -2.8,1.6 -4.9,1.6 -1.2,0 -2.3,-0.2 -3.2,-0.6 -0.9,-0.4 -1.7,-1 -2.4,-1.7 -0.6,-0.7 -1.1,-1.6 -1.4,-2.6 -0.3,-1 -0.5,-2.1 -0.5,-3.3 0,-1.2 0.2,-2.3 0.5,-3.4 0.3,-1 0.8,-2 1.4,-2.7 0.6,-0.8 1.4,-1.4 2.4,-1.8 1,-0.4 2.1,-0.7 3.3,-0.7 0.9,0 1.8,0.1 2.6,0.3 0.8,0.2 1.5,0.6 2.1,1 0.6,0.5 1.1,1 1.5,1.7 0.4,0.7 0.6,1.5 0.7,2.5 h -2.7 c -0.4,-0.9 -0.8,-1.7 -1.5,-2.3 z"
   id="path34" />
			<path
   class="st0"
   d="m 435,132.2 c -1.2,0.9 -2.7,1.4 -4.5,1.4 -1.3,0 -2.4,-0.2 -3.3,-0.6 -0.9,-0.4 -1.7,-1 -2.4,-1.7 -0.6,-0.7 -1.1,-1.6 -1.4,-2.7 -0.3,-1 -0.5,-2.2 -0.5,-3.4 0,-1.2 0.2,-2.3 0.6,-3.4 0.4,-1 0.9,-1.9 1.6,-2.6 0.7,-0.7 1.5,-1.3 2.4,-1.7 0.9,-0.4 1.9,-0.6 3,-0.6 1.4,0 2.6,0.3 3.5,0.9 0.9,0.6 1.7,1.3 2.3,2.2 0.6,0.9 1,1.9 1.2,3 0.2,1.1 0.3,2.1 0.3,3.1 h -12 c 0,0.7 0.1,1.4 0.2,2 0.2,0.6 0.5,1.2 0.9,1.7 0.4,0.5 0.9,0.9 1.6,1.2 0.6,0.3 1.4,0.4 2.3,0.4 1.1,0 2,-0.3 2.7,-0.8 0.7,-0.5 1.2,-1.3 1.4,-2.4 h 2.6 c -0.5,1.8 -1.3,3.1 -2.5,4 z m -0.6,-10.3 c -0.2,-0.6 -0.6,-1 -1,-1.4 -0.4,-0.4 -0.9,-0.7 -1.4,-1 -0.5,-0.2 -1.2,-0.4 -1.8,-0.4 -0.7,0 -1.3,0.1 -1.8,0.4 -0.5,0.2 -1,0.6 -1.4,1 -0.4,0.4 -0.7,0.9 -0.9,1.4 -0.2,0.5 -0.4,1.1 -0.4,1.8 h 9.2 c -0.1,-0.6 -0.3,-1.2 -0.5,-1.8 z"
   id="path36" />
			<path
   class="st0"
   d="m 362.9,163.9 c -1.1,0.5 -2.3,0.8 -3.5,0.8 -1.5,0 -2.7,-0.2 -3.6,-0.7 -0.9,-0.5 -1.6,-1 -2.1,-1.6 -0.5,-0.6 -0.8,-1.3 -1,-2 -0.2,-0.7 -0.2,-1.3 -0.2,-1.7 0,-0.9 0.1,-1.6 0.4,-2.3 0.3,-0.7 0.7,-1.3 1.1,-1.8 0.5,-0.5 1,-1 1.6,-1.4 0.6,-0.4 1.3,-0.8 2,-1.2 -0.3,-0.4 -0.6,-0.8 -0.9,-1.2 -0.3,-0.4 -0.6,-0.8 -0.8,-1.2 -0.2,-0.4 -0.4,-0.8 -0.6,-1.3 -0.1,-0.4 -0.2,-0.9 -0.2,-1.5 0,-0.6 0.1,-1.2 0.3,-1.7 0.2,-0.5 0.5,-1 1,-1.5 0.4,-0.4 0.9,-0.8 1.6,-1 0.6,-0.2 1.3,-0.4 2.1,-0.4 0.7,0 1.3,0.1 2,0.3 0.7,0.2 1.2,0.5 1.7,0.9 0.5,0.4 0.9,0.9 1.2,1.4 0.3,0.6 0.5,1.2 0.5,2 0,0.7 -0.1,1.3 -0.3,1.8 -0.2,0.6 -0.5,1.1 -0.9,1.6 -0.4,0.5 -0.8,0.9 -1.3,1.3 -0.5,0.4 -1,0.7 -1.5,1 l 4,4.9 c 0.4,-1.2 0.6,-2.3 0.7,-3.4 h 2.5 c -0.1,0.7 -0.1,1.2 -0.2,1.7 -0.1,0.5 -0.2,0.9 -0.3,1.3 -0.1,0.4 -0.3,0.8 -0.4,1.2 -0.2,0.4 -0.4,0.8 -0.6,1.3 l 4.3,5 h -3.4 l -2.4,-2.8 c -0.8,0.9 -1.7,1.7 -2.8,2.2 z m -5.3,-9.3 c -0.5,0.3 -0.9,0.7 -1.2,1.1 -0.3,0.4 -0.6,0.8 -0.8,1.3 -0.2,0.5 -0.3,1.1 -0.3,1.7 0,0.6 0.1,1.1 0.4,1.5 0.2,0.5 0.6,0.9 0.9,1.2 0.4,0.3 0.8,0.6 1.4,0.8 0.5,0.2 1,0.3 1.6,0.3 1,0 1.9,-0.2 2.7,-0.7 0.8,-0.5 1.5,-1.1 2,-1.9 l -5.1,-6.1 c -0.7,0.1 -1.2,0.5 -1.6,0.8 z m 3.3,-4.5 c 0.4,-0.2 0.7,-0.5 1,-0.8 0.3,-0.3 0.5,-0.7 0.7,-1 0.2,-0.4 0.3,-0.8 0.3,-1.3 0,-0.6 -0.2,-1.2 -0.7,-1.7 -0.5,-0.5 -1.1,-0.7 -1.9,-0.7 -0.6,0 -1.2,0.2 -1.7,0.6 -0.5,0.4 -0.8,1 -0.8,1.8 0,0.3 0.1,0.7 0.2,1 0.1,0.3 0.3,0.7 0.5,1 0.2,0.3 0.4,0.6 0.7,0.9 0.2,0.3 0.5,0.6 0.7,0.9 0.3,-0.3 0.6,-0.5 1,-0.7 z"
   id="path38" />
			<path
   class="st0"
   d="m 389.9,148.3 v 2.3 h -3.2 v 10 c 0,0.3 0,0.6 0.1,0.7 0.1,0.2 0.1,0.3 0.3,0.4 0.1,0.1 0.3,0.2 0.6,0.2 0.3,0 0.6,0 1,0 h 1.2 v 2.3 h -2 c -0.7,0 -1.3,0 -1.8,-0.1 -0.5,-0.1 -0.9,-0.3 -1.2,-0.5 -0.3,-0.3 -0.5,-0.6 -0.7,-1.1 -0.1,-0.5 -0.2,-1.1 -0.2,-1.8 v -10.2 h -2.7 v -2.3 h 2.7 v -4.8 h 2.6 v 4.8 h 3.3 z"
   id="path40" />
			<path
   class="st0"
   d="m 393.8,145.4 v -3.2 h 2.6 v 3.2 z m 2.6,2.9 v 16 h -2.6 v -16 z"
   id="path42" />
			<path
   class="st0"
   d="m 403.8,148.3 v 2.4 h 0.1 c 1.2,-1.8 2.9,-2.7 5.2,-2.7 1,0 1.9,0.2 2.7,0.6 0.8,0.4 1.4,1.1 1.7,2.1 0.5,-0.9 1.2,-1.5 2.1,-2 0.9,-0.5 1.8,-0.7 2.9,-0.7 0.8,0 1.5,0.1 2.2,0.3 0.7,0.2 1.2,0.4 1.7,0.8 0.5,0.4 0.8,0.9 1.1,1.4 0.3,0.6 0.4,1.3 0.4,2.1 v 11.8 h -2.6 v -10.5 c 0,-0.5 0,-1 -0.1,-1.4 -0.1,-0.4 -0.2,-0.8 -0.5,-1.1 -0.2,-0.3 -0.5,-0.6 -0.9,-0.8 -0.4,-0.2 -0.9,-0.3 -1.6,-0.3 -1.3,0 -2.3,0.4 -3.1,1.1 -0.7,0.7 -1.1,1.7 -1.1,3 v 10 h -2.6 v -10.5 c 0,-0.5 0,-1 -0.1,-1.4 -0.1,-0.4 -0.2,-0.8 -0.5,-1.1 -0.2,-0.3 -0.5,-0.6 -0.9,-0.7 -0.4,-0.2 -0.9,-0.3 -1.5,-0.3 -0.8,0 -1.4,0.2 -2,0.5 -0.5,0.3 -1,0.7 -1.3,1.1 -0.3,0.4 -0.6,0.9 -0.7,1.3 -0.2,0.5 -0.2,0.9 -0.2,1.2 v 10 h -2.6 v -16 h 2.2 z"
   id="path44" />
			<path
   class="st0"
   d="m 439.9,163.3 c -1.2,0.9 -2.7,1.4 -4.5,1.4 -1.3,0 -2.4,-0.2 -3.3,-0.6 -0.9,-0.4 -1.7,-1 -2.4,-1.7 -0.6,-0.7 -1.1,-1.6 -1.4,-2.7 -0.3,-1 -0.5,-2.2 -0.5,-3.4 0,-1.2 0.2,-2.3 0.6,-3.4 0.4,-1 0.9,-1.9 1.6,-2.6 0.7,-0.7 1.5,-1.3 2.4,-1.7 0.9,-0.4 1.9,-0.6 3,-0.6 1.4,0 2.6,0.3 3.6,0.9 0.9,0.6 1.7,1.3 2.3,2.2 0.6,0.9 1,1.9 1.2,3 0.2,1.1 0.3,2.1 0.3,3.1 h -12 c 0,0.7 0.1,1.4 0.2,2 0.2,0.6 0.5,1.2 0.9,1.7 0.4,0.5 0.9,0.9 1.6,1.2 0.6,0.3 1.4,0.4 2.3,0.4 1.1,0 2,-0.3 2.7,-0.8 0.7,-0.5 1.2,-1.3 1.4,-2.4 h 2.6 c -0.7,1.8 -1.4,3.1 -2.6,4 z M 439.2,153 c -0.2,-0.6 -0.6,-1 -1,-1.4 -0.4,-0.4 -0.9,-0.7 -1.4,-1 -0.5,-0.2 -1.2,-0.4 -1.8,-0.4 -0.7,0 -1.3,0.1 -1.8,0.4 -0.5,0.2 -1,0.6 -1.4,1 -0.4,0.4 -0.7,0.9 -0.9,1.4 -0.2,0.5 -0.4,1.1 -0.4,1.8 h 9.2 c -0.1,-0.6 -0.2,-1.2 -0.5,-1.8 z"
   id="path46" />
		</g>
	</g>
	<g
   id="g56">
		<path
   class="st0"
   d="M 359,14.4 H 238.8 c -22.7,0 -41.1,18.4 -41.1,41.1 0,27.8 21.7,35.1 39.2,41 18.5,6.2 29.9,10.9 29.9,28 0,15.4 -12.5,27.9 -27.9,27.9 -10.7,0 -20.3,-6 -25.1,-15.6 0,0 0,0 0,-0.1 C 212.8,135 154.3,18 154.3,18 c -1.1,-2.2 -3.4,-3.7 -5.9,-3.7 -4.1,0 -4.6,1.1 -8.9,9.6 L 79.4,144.2 16.3,18 c -1.6,-3.3 -5.6,-4.6 -8.9,-3 -3.3,1.6 -4.6,5.6 -3,8.9 l 69,138 c 1.1,2.2 3.4,3.7 5.9,3.7 2.5,0 4.8,-1.4 5.9,-3.7 0,0 46.4,-92.8 63.1,-126.2 l 51,101.8 c 1.1,2.1 1.9,3.8 2.6,5 h -0.1 c 7,14.2 21.1,23 36.9,23 22.7,0 41.1,-18.5 41.1,-41.2 0,-27.5 -21.6,-34.7 -38.9,-40.6 -18.7,-6.3 -30.2,-11 -30.2,-28.5 0,-15.4 12.5,-27.9 27.9,-27.9 h 62.1 l 0.3,131.4 c 0,3.6 3,6.6 6.6,6.6 0,0 0,0 0,0 3.7,0 6.6,-3 6.6,-6.6 L 313.9,27.3 H 359 c 3.7,0 6.6,-3 6.6,-6.6 0,-3.4 -3,-6.3 -6.6,-6.3 z"
   id="path52" />
		<path
   class="st0"
   d="m 148.4,101.5 c -17.7,0 -32.1,14.3 -32.1,32.1 0,17.8 14.4,32.1 32.1,32.1 17.7,0 32.1,-14.4 32.1,-32.1 0,-17.7 -14.4,-32.1 -32.1,-32.1 z m 0,50.9 c -10.4,0 -18.8,-8.4 -18.8,-18.8 0,-10.4 8.4,-18.8 18.8,-18.8 10.4,0 18.8,8.4 18.8,18.8 0,10.4 -8.4,18.8 -18.8,18.8 z"
   id="path54" />
	</g>
</g>
</svg>
