<svg width="35" height="34" viewBox="0 0 35 34" fill="none" xmlns="http://www.w3.org/2000/svg">
<path d="M16.9025 0C7.58245 0 0 7.6262 0 17C0 26.3738 7.58245 34 16.9025 34C26.2225 34 33.8049 26.3738 33.8049 17C33.8049 15.0858 33.4736 13.2501 32.8905 11.5314L30.1537 14.284C30.3312 15.1612 30.4244 16.0701 30.4244 17C30.4244 24.4987 24.3582 30.6 16.9025 30.6C9.44679 30.6 3.38049 24.4987 3.38049 17C3.38049 9.5013 9.44679 3.4 16.9025 3.4C19.6626 3.4 22.23 4.23961 24.3732 5.67441L26.7931 3.24063C24.0075 1.21082 20.5957 0 16.9025 0ZM32.6099 2.19805L15.2122 19.6961L9.64629 14.098L7.25618 16.502L15.2122 24.5039L35 4.60195L32.6099 2.19805Z" fill="#B5A87D"/>
</svg>
