<svg width="318" height="207" viewBox="0 0 318 207" fill="none" xmlns="http://www.w3.org/2000/svg">
<path d="M140.422 21.0517C155.694 20.251 171.285 20.2154 186.067 24.6505C198.59 28.4095 210.12 35.5848 217.438 46.617C223.946 56.4036 226.891 68.5968 226.17 80.3185C225.797 86.3741 224.466 92.332 222.224 97.9699C219.691 104.417 215.603 110.138 210.325 114.625C207.757 116.801 205.009 118.753 202.109 120.461C199.149 122.253 196.081 123.859 192.923 125.27C191.217 126.041 189.494 126.759 187.753 127.423C186.923 127.743 186.087 128.05 185.245 128.344L184.742 128.522C183.932 128.802 185.013 128.437 184.528 128.593L183.132 129.038C181.352 129.607 179.552 130.125 177.731 130.59C176.868 130.813 176.001 131.023 175.129 131.222L173.821 131.511L173.296 131.618C173.207 131.618 172.202 131.836 172.682 131.747C165.044 133.219 157.655 133.655 149.937 133.526C145.907 133.473 141.886 133.286 137.864 133.082C134.016 132.943 130.18 132.568 126.378 131.961C112.659 129.505 101.965 120.181 92.3343 110.715C89.7943 108.215 87.2542 105.688 85.1279 102.823C83.0292 99.9674 81.5049 96.7313 80.6394 93.2946C79.723 89.7358 79.3404 86.097 78.9979 82.4626C78.6331 78.588 78.2239 74.6912 78.3351 70.7943C78.4147 66.9978 79.1196 63.2404 80.4214 59.6732C81.6506 56.4992 83.2133 53.4646 85.0834 50.6206C88.4186 45.421 92.5238 40.7578 97.2588 36.7904C99.5432 34.8378 101.976 33.0664 104.536 31.4923C105.898 30.6441 107.287 29.8434 108.705 29.0901L109.114 28.8766C109.158 28.8543 109.835 28.5073 109.35 28.752C109.688 28.5785 110.035 28.4139 110.377 28.2449C111.065 27.9127 111.762 27.5924 112.468 27.284C113.951 26.6345 115.448 26.0414 116.961 25.5046L117.504 25.3133C117.948 25.1621 116.885 25.5135 117.593 25.2867L118.691 24.9308C119.501 24.6787 120.314 24.4429 121.129 24.2235C124.663 23.2699 128.263 22.577 131.899 22.1505C135.693 21.6701 139.506 21.3587 143.313 21.0428C144.261 20.9672 146.014 20.3889 146.245 19.3035C146.494 18.1424 144.675 18.1558 144.021 18.2092C135.956 18.872 127.828 19.5748 119.999 21.7457C113.418 23.5708 107.134 26.3318 101.338 29.9442C90.1012 36.9772 80.2168 47.4666 75.4125 59.9624C74.0179 63.6351 73.2655 67.5204 73.1882 71.4483C73.1493 75.4607 73.3558 79.4718 73.8066 83.4591C74.1624 87.2269 74.5361 91.0214 75.4881 94.6825C76.4097 98.2679 78.0055 101.645 80.1901 104.634C82.3431 107.587 84.9499 110.176 87.5523 112.734C90.079 115.221 92.6502 117.672 95.3237 120.003C100.591 124.585 106.338 128.78 112.766 131.569C116.201 133.068 119.803 134.149 123.496 134.79C127.497 135.417 131.531 135.809 135.578 135.964C144.03 136.409 152.482 136.725 160.934 136.066C176.531 134.852 191.641 130.067 205.093 122.081C211.223 118.415 216.998 113.935 221.357 108.228C225.583 102.699 228.337 95.9681 229.916 89.2198C232.714 77.2357 231.695 64.2596 226.802 52.956C224.362 47.2823 220.927 42.0907 216.659 37.6267C211.873 32.6711 206.019 28.7653 199.795 25.8427C185.645 19.1967 169.764 17.573 154.301 17.7376C150.346 17.7777 146.396 17.9334 142.446 18.1424C141.281 18.2003 139.737 18.485 139.039 19.5437C138.398 20.5224 139.586 21.0918 140.435 21.0473L140.422 21.0517Z" fill="#1D1D1B"/>
<path d="M91.9968 72.509C80.4531 71.5259 68.8649 70.5428 57.9484 66.6549C55.2304 65.6851 52.5614 64.5686 49.8389 63.6121C47.0072 62.614 44.0924 61.8697 41.1289 61.3879C35.2258 60.4226 29.1759 60.3069 23.2106 60.1424C16.1909 59.9525 9.16978 59.9525 2.14717 60.1424C1.3242 60.1646 0.118677 60.7518 0.00746579 61.6682C-0.103745 62.5845 1.05285 62.8959 1.78684 62.8737C7.87231 62.7002 13.9133 62.6691 19.8698 62.8025C25.8262 62.936 31.9251 63.0427 37.8771 63.8168C40.7081 64.1667 43.4994 64.7849 46.2135 65.6629C48.9581 66.5526 51.6317 67.6647 54.3363 68.6745C59.837 70.6796 65.519 72.147 71.3027 73.0562C77.7084 74.1149 84.2032 74.671 90.6445 75.2182C91.5342 75.2982 92.7397 74.9335 93.1668 74.0527C93.5938 73.1719 92.802 72.5624 92.0057 72.4957L91.9968 72.509Z" fill="#F39200"/>
<path d="M202.01 51.5402C210.685 47.8346 218.056 41.6735 224.039 34.4493C227.017 30.8313 229.739 27.0097 232.184 23.0123C234.533 19.2 236.584 15.2141 238.999 11.4463C239.662 10.4143 240.334 9.40001 241.085 8.41691C241.771 7.48178 242.513 6.59035 243.31 5.74783C244.14 4.85226 245.032 4.01542 245.979 3.24335C246.192 3.06986 246.424 2.89638 246.637 2.73178C246.237 3.02093 246.557 2.79406 246.637 2.73178L247.117 2.39815C247.634 2.05562 248.163 1.73978 248.706 1.44174C248.932 1.31718 249.564 0.867886 249.462 0.489767C249.36 0.111649 248.572 0.0449219 248.332 0.0449219C246.733 0.0482561 245.162 0.470001 243.777 1.26825C235.654 5.7167 231.592 14.3912 227.086 22.0425C222.451 29.9163 217.171 37.1673 210.253 43.1237C209.31 43.9378 208.34 44.7252 207.344 45.4725C207.246 45.5481 206.921 45.7839 207.304 45.5037L206.886 45.8106L206.178 46.3133C205.654 46.6736 205.124 47.0295 204.59 47.372C204.057 47.7145 203.514 48.0482 202.962 48.3729L202.135 48.8489L201.752 49.058C201.307 49.316 202.259 48.7955 201.752 49.058C200.613 49.6496 199.461 50.2101 198.282 50.7128C197.936 50.8596 197.121 51.2778 196.948 51.7004C196.774 52.123 197.13 52.292 197.477 52.3721C198.932 52.6879 200.662 52.1052 201.984 51.5447L202.01 51.5402Z" fill="#95C11F"/>
<path d="M129.68 132.366C122.458 138.433 117.196 146.471 113.572 155.123C111.774 159.45 110.281 163.898 109.103 168.434C107.964 172.764 107.161 177.174 105.945 181.481C105.611 182.662 105.263 183.827 104.829 184.986C104.446 186.08 103.994 187.149 103.477 188.187C102.943 189.285 102.333 190.345 101.651 191.359C101.498 191.587 101.327 191.82 101.17 192.04C101.469 191.647 101.229 191.957 101.17 192.04L100.808 192.499C100.413 192.977 99.9987 193.433 99.5661 193.876C99.3853 194.061 98.9115 194.674 99.1193 195.006C99.3271 195.338 100.1 195.173 100.33 195.103C101.859 194.635 103.239 193.775 104.333 192.609C110.811 185.991 112.176 176.51 114.263 167.88C116.409 158.998 119.353 150.525 124.24 142.815C124.906 141.762 125.605 140.727 126.341 139.722C126.413 139.621 126.655 139.301 126.37 139.681L126.681 139.265L127.212 138.579C127.609 138.082 128.012 137.587 128.424 137.104C128.835 136.621 129.257 136.144 129.69 135.673L130.344 134.977L130.649 134.666C131 134.29 130.24 135.065 130.649 134.666C131.567 133.769 132.506 132.898 133.488 132.074C133.777 131.833 134.434 131.196 134.478 130.741C134.521 130.286 134.131 130.228 133.776 130.252C132.292 130.373 130.806 131.434 129.705 132.354L129.68 132.366Z" fill="#E6007E"/>
<path d="M107.783 53.726C102.452 45.9437 94.9688 39.9199 86.7139 35.4651C82.5834 33.252 78.3033 31.3302 73.9049 29.7139C69.7069 28.156 65.397 26.9243 61.2295 25.2923C60.0878 24.8441 58.9617 24.3837 57.8506 23.8387C56.7995 23.3497 55.78 22.7955 54.7981 22.1794C53.7573 21.5399 52.7623 20.829 51.82 20.0517C51.6081 19.8762 51.3927 19.6833 51.1895 19.5061C51.5514 19.8422 51.2663 19.5724 51.1895 19.5061L50.7684 19.1002C50.3316 18.6611 49.9183 18.2037 49.5199 17.7298C49.3534 17.5316 48.7892 17 48.4384 17.1743C48.0876 17.3486 48.1761 18.1338 48.2231 18.3694C48.5391 19.937 49.2598 21.3946 50.3136 22.5974C56.2647 29.6935 65.566 31.98 73.9508 34.903C82.5791 37.909 90.7227 41.6693 97.9169 47.2882C98.8997 48.0539 99.8615 48.8509 100.789 49.682C100.883 49.7631 101.177 50.0355 100.828 49.7151L101.21 50.0652L101.842 50.6605C102.298 51.1048 102.75 51.5544 103.191 52.0109C103.631 52.4674 104.064 52.9344 104.491 53.4119L105.119 54.1302L105.399 54.4645C105.739 54.8503 105.042 54.0185 105.399 54.4645C106.202 55.4656 106.977 56.4859 107.7 57.5437C107.912 57.8552 108.482 58.5718 108.93 58.6593C109.378 58.7468 109.474 58.3647 109.485 58.0088C109.51 56.5205 108.601 54.9374 107.792 53.7514L107.783 53.726Z" fill="#F39200"/>
<path d="M191.961 83.8861C193.71 82.7935 195.479 81.7378 197.268 80.7189L197.938 80.3313C198.244 80.1603 197.722 80.4584 197.717 80.4588C197.845 80.3934 197.972 80.3148 198.099 80.2406L199.451 79.4912C200.356 78.9972 201.264 78.5088 202.176 78.0261C205.87 76.091 209.622 74.2934 213.434 72.6333C213.64 72.5473 214.432 72.2201 213.529 72.5933L214.139 72.3319L215.666 71.6959C216.623 71.3103 217.58 70.9246 218.54 70.5388C220.46 69.7849 222.394 69.0684 224.342 68.3894C225.317 68.0497 226.294 67.7189 227.271 67.397L228.741 66.9181L229.479 66.6851L229.796 66.5846C230.23 66.4509 228.962 66.8398 229.683 66.6217C231.656 66.0178 233.637 65.4459 235.628 64.9059C237.618 64.3659 239.62 63.8666 241.633 63.408C242.639 63.1727 243.646 62.9493 244.654 62.7377L246.166 62.4247L246.82 62.2933L247.258 62.2083C247.649 62.1279 247.312 62.2035 247.117 62.2213C251.156 61.404 255.251 60.8094 259.343 60.3223C261.426 60.0776 263.514 59.8696 265.607 59.6985C266.635 59.6042 267.661 59.5457 268.714 59.476L268.563 59.4898L269.006 59.4492L269.668 59.4152C270.218 59.3648 270.771 59.3587 271.323 59.3349C275.443 59.1534 279.566 59.1265 283.694 59.2541C287.954 59.3859 292.197 59.8141 296.457 59.995C301.047 60.2127 305.753 60.0356 310.187 58.7041C311.624 58.2677 313.03 57.7373 314.397 57.1162C314.958 56.8592 317.054 55.6037 316.03 54.8087C315.598 54.4776 314.804 54.5459 314.323 54.6124C313.472 54.749 312.644 55.0069 311.865 55.3784C311.673 55.4676 311.292 55.5605 312.055 55.3074C311.947 55.3441 311.84 55.3942 311.736 55.4349C311.491 55.5334 311.245 55.6275 310.994 55.7175C310.743 55.8075 310.559 55.8467 310.353 55.9371C311.213 55.5723 310.353 55.9371 310.117 55.9901C309.88 56.043 309.606 56.1173 309.348 56.1768L309.019 56.2515C308.464 56.3785 309.062 56.2253 309.148 56.2397C308.619 56.2762 308.095 56.3587 307.58 56.4863C307.053 56.5347 306.528 56.6096 305.994 56.6318L305.653 56.6631C305.246 56.7005 306.099 56.6491 305.653 56.6631L304.737 56.7025C303.658 56.73 302.576 56.7221 301.501 56.6911C297.219 56.557 292.96 56.099 288.674 55.9382C280.23 55.6272 271.775 55.9341 263.376 56.8566C246.419 58.7134 229.813 62.9775 214.06 69.5204C205.987 72.8788 198.17 76.8209 190.671 81.3153C189.786 81.8432 188.905 82.3707 188.032 82.9333C187.385 83.3365 186.089 84.6884 187.526 85.0122C188.963 85.3361 190.76 84.6261 191.969 83.872L191.961 83.8861Z" fill="#95C11F"/>
<path d="M138.941 80.3451C139.89 82.1763 140.8 84.0242 141.672 85.8888L142.005 86.588C142.151 86.9066 141.896 86.3623 141.896 86.3578C141.951 86.4907 142.019 86.6234 142.083 86.7561L142.721 88.1637C143.141 89.1051 143.555 90.0495 143.963 90.997C145.596 94.8342 147.086 98.7191 148.435 102.651C148.505 102.864 148.767 103.68 148.468 102.749L148.679 103.378L149.191 104.952C149.498 105.936 149.806 106.922 150.114 107.909C150.711 109.883 151.27 111.869 151.791 113.865C152.051 114.864 152.303 115.864 152.545 116.864L152.905 118.368L153.078 119.122L153.152 119.446C153.251 119.89 152.965 118.594 153.124 119.331C153.568 121.345 153.979 123.366 154.358 125.394C154.736 127.421 155.074 129.456 155.369 131.499C155.523 132.521 155.665 133.542 155.795 134.564L155.986 136.097L156.064 136.759L156.114 137.203C156.163 137.599 156.115 137.257 156.112 137.061C156.603 141.153 156.867 145.283 157.025 149.4C157.102 151.496 157.141 153.594 157.144 155.694C157.156 156.726 157.132 157.754 157.117 158.808L157.115 158.657L157.12 159.102L157.101 159.765C157.107 160.317 157.069 160.869 157.048 161.42C156.899 165.542 156.595 169.654 156.136 173.758C155.663 177.994 154.896 182.189 154.374 186.421C153.789 190.979 153.588 195.683 154.56 200.21C154.88 201.677 155.295 203.121 155.805 204.534C156.016 205.114 157.099 207.304 157.974 206.347C158.339 205.942 158.334 205.146 158.307 204.661C158.239 203.801 158.048 202.956 157.74 202.15C157.667 201.95 157.605 201.564 157.796 202.345C157.768 202.234 157.726 202.123 157.694 202.017C157.616 201.764 157.542 201.511 157.472 201.254C157.402 200.997 157.378 200.81 157.305 200.598C157.599 201.484 157.305 200.598 157.271 200.358C157.237 200.118 157.185 199.838 157.146 199.576L157.098 199.243C157.016 198.679 157.121 199.287 157.1 199.372C157.106 198.842 157.065 198.313 156.979 197.79C156.974 197.26 156.941 196.731 156.962 196.197L156.958 195.855C156.953 195.445 156.936 196.3 156.958 195.855L156.992 194.938C157.051 193.861 157.146 192.783 157.263 191.714C157.74 187.456 158.538 183.247 159.042 178.988C160.029 170.597 160.402 162.144 160.156 153.698C159.665 136.647 156.746 119.753 151.488 103.525C148.788 95.2091 145.486 87.1012 141.607 79.2654C141.152 78.3407 140.697 77.4204 140.206 76.5051C139.856 75.8283 138.612 74.4276 138.174 75.8338C137.736 77.2401 138.3 79.0889 138.955 80.3539L138.941 80.3451Z" fill="#E6007E"/>
<path d="M217.98 86.6273C228.789 92.5982 240.854 95.9344 253.194 96.365C256.756 96.4954 260.323 96.3899 263.871 96.0491C264.729 95.9773 265.574 95.7918 266.384 95.4975C267.047 95.2843 267.654 94.9274 268.163 94.4522C269.124 93.3756 267.318 93.1176 266.589 93.1932C265.094 93.34 263.595 93.4468 262.091 93.5046C261.375 93.5358 260.654 93.5536 259.938 93.558C259.613 93.558 259.284 93.558 258.96 93.558H258.875H258.288C255.348 93.4946 252.415 93.2614 249.502 92.8596C248.79 92.7617 248.079 92.6505 247.371 92.5349C246.664 92.4192 247.816 92.6149 247.162 92.4993L246.682 92.4103C246.264 92.3347 245.846 92.2546 245.432 92.1701C244.022 91.8898 242.62 91.5651 241.228 91.2048C238.383 90.4595 235.584 89.5521 232.843 88.4868C229.81 87.3148 226.862 85.9324 224.021 84.3497C222.825 83.6913 221.037 84.1362 219.84 84.6122C219.177 84.8243 218.569 85.1814 218.061 85.6576C217.847 85.8933 217.553 86.396 217.976 86.6273H217.98Z" fill="#95C11F"/>
<path d="M86.6897 88.248C74.4741 86.4437 62.0053 87.5472 50.2965 91.4688C46.9148 92.5949 43.6114 93.9436 40.408 95.5061C39.6291 95.8742 38.9025 96.3442 38.2473 96.9036C37.7012 97.3355 37.2572 97.8828 36.9471 98.5062C36.4245 99.8512 38.2064 99.4599 38.8632 99.1334C40.2117 98.4721 41.5783 97.8468 42.9662 97.2657C43.6261 96.9855 44.2948 96.7163 44.964 96.4611C45.2682 96.3473 45.5765 96.232 45.8806 96.1181L45.9598 96.0885L46.5097 95.8827C49.2851 94.9119 52.1142 94.1023 54.983 93.4579C55.6839 93.3001 56.3895 93.1548 57.0925 93.0153C57.7954 92.8757 56.6478 93.0962 57.3007 92.9753L57.7819 92.8903C58.2 92.8146 58.6197 92.743 59.0368 92.6772C60.4558 92.4455 61.882 92.2585 63.3123 92.108C66.2377 91.8091 69.1779 91.6779 72.1183 91.715C75.3698 91.7497 78.615 92.0114 81.83 92.4982C83.1815 92.6955 84.7004 91.6522 85.6544 90.787C86.2013 90.3559 86.6454 89.8084 86.9545 89.1843C87.0719 88.8887 87.1707 88.315 86.6938 88.2464L86.6897 88.248Z" fill="#F39200"/>
<path d="M172.955 95.0099C173.121 101.752 174.064 108.566 176.589 114.861C178.967 120.802 182.734 126.08 186.82 130.963C190.907 135.845 195.404 140.42 199.503 145.328C203.224 149.777 206.557 154.62 208.906 159.942C210.049 162.47 210.887 165.124 211.405 167.848C211.462 168.166 211.519 168.483 211.566 168.8L211.643 169.357C211.671 169.548 211.643 169.357 211.652 169.337L211.687 169.659C211.761 170.348 211.813 171.041 211.835 171.735C211.846 172.055 211.848 172.375 211.869 172.705C211.865 172.339 211.862 172.825 211.861 172.942L211.836 173.506C211.821 173.829 211.797 174.152 211.774 174.46C211.761 174.646 211.741 174.833 211.72 175.025L211.691 175.262C211.709 175.099 211.727 174.989 211.708 175.226C211.603 175.929 211.482 176.624 211.323 177.316C211.226 177.762 211.054 179.305 211.757 179.43C212.461 179.555 212.811 178.009 212.903 177.604C214.237 171.648 213.579 165.48 211.577 159.765C209.625 154.193 206.469 149.08 202.895 144.414C199.052 139.391 194.613 134.858 190.453 130.123C186.292 125.387 182.232 120.345 179.401 114.623C176.475 108.699 175.19 102.236 174.838 95.7744C174.792 94.9463 174.761 94.1119 174.744 93.2712C174.729 92.7721 174.423 91.7722 173.792 92.3698C173.161 92.9674 172.998 94.189 173.033 95.022L172.955 95.0099Z" fill="#E6007E"/>
<path d="M140.422 21.0517C155.694 20.251 171.285 20.2154 186.067 24.6505C198.59 28.4095 210.12 35.5848 217.438 46.617C223.946 56.4036 226.891 68.5968 226.17 80.3185C225.797 86.3741 224.466 92.332 222.224 97.9699C219.691 104.417 215.603 110.138 210.325 114.625C207.757 116.801 205.009 118.753 202.109 120.461C199.149 122.253 196.081 123.859 192.923 125.27C191.217 126.041 189.494 126.759 187.753 127.423C186.923 127.743 186.087 128.05 185.245 128.344L184.742 128.522C183.932 128.802 185.013 128.437 184.528 128.593L183.132 129.038C181.352 129.607 179.552 130.125 177.731 130.59C176.868 130.813 176.001 131.023 175.129 131.222L173.821 131.511L173.296 131.618C173.207 131.618 172.202 131.836 172.682 131.747C165.044 133.219 157.655 133.655 149.937 133.526C145.907 133.473 141.886 133.286 137.864 133.082C134.016 132.943 130.18 132.568 126.378 131.961C112.659 129.505 101.965 120.181 92.3343 110.715C89.7943 108.215 87.2542 105.688 85.1279 102.823C83.0292 99.9674 81.5049 96.7313 80.6394 93.2946C79.723 89.7358 79.3404 86.097 78.9979 82.4626C78.6331 78.588 78.2239 74.6912 78.3351 70.7943C78.4147 66.9978 79.1196 63.2404 80.4214 59.6732C81.6506 56.4992 83.2133 53.4646 85.0834 50.6206C88.4186 45.421 92.5238 40.7578 97.2588 36.7904C99.5432 34.8378 101.976 33.0664 104.536 31.4923C105.898 30.6441 107.287 29.8434 108.705 29.0901L109.114 28.8766C109.158 28.8543 109.835 28.5073 109.35 28.752C109.688 28.5785 110.035 28.4139 110.377 28.2449C111.065 27.9127 111.762 27.5924 112.468 27.284C113.951 26.6345 115.448 26.0414 116.961 25.5046L117.504 25.3133C117.948 25.1621 116.885 25.5135 117.593 25.2867L118.691 24.9308C119.501 24.6787 120.314 24.4429 121.129 24.2235C124.663 23.2699 128.263 22.577 131.899 22.1505C135.693 21.6701 139.506 21.3587 143.313 21.0428C144.261 20.9672 146.014 20.3889 146.245 19.3035C146.494 18.1424 144.675 18.1558 144.021 18.2092C135.956 18.872 127.828 19.5748 119.999 21.7457C113.418 23.5708 107.134 26.3318 101.338 29.9442C90.1012 36.9772 80.2168 47.4666 75.4125 59.9624C74.0179 63.6351 73.2655 67.5204 73.1882 71.4483C73.1493 75.4607 73.3558 79.4718 73.8066 83.4591C74.1624 87.2269 74.5361 91.0214 75.4881 94.6825C76.4097 98.2679 78.0055 101.645 80.1901 104.634C82.3431 107.587 84.9499 110.176 87.5523 112.734C90.079 115.221 92.6502 117.672 95.3237 120.003C100.591 124.585 106.338 128.78 112.766 131.569C116.201 133.068 119.803 134.149 123.496 134.79C127.497 135.417 131.531 135.809 135.578 135.964C144.03 136.409 152.482 136.725 160.934 136.066C176.531 134.852 191.641 130.067 205.093 122.081C211.223 118.415 216.998 113.935 221.357 108.228C225.583 102.699 228.337 95.9681 229.916 89.2198C232.714 77.2357 231.695 64.2596 226.802 52.956C224.362 47.2823 220.927 42.0907 216.659 37.6267C211.873 32.6711 206.019 28.7653 199.795 25.8427C185.645 19.1967 169.764 17.573 154.301 17.7376C150.346 17.7777 146.396 17.9334 142.446 18.1424C141.281 18.2003 139.737 18.485 139.039 19.5437C138.398 20.5224 139.586 21.0918 140.435 21.0473L140.422 21.0517Z" fill="#706F6F"/>
<path d="M141.845 21.0474C154.008 20.4024 166.312 20.2823 178.26 22.4976C190.209 24.7129 201.913 29.4016 210.801 37.3821C227.002 51.9286 231.477 76.2928 223.999 96.3197C222.673 99.9927 220.879 103.479 218.661 106.693C214.168 113.077 207.669 117.953 200.738 121.854C189.121 128.365 176.273 132.383 163.016 133.651C154.497 134.465 145.907 134.145 137.361 133.682C132.21 133.402 127.019 133.064 122.041 131.761C109.723 128.531 99.9367 119.75 91.0354 110.986C87.5656 107.561 84.0913 104.02 81.8938 99.7316C79.2025 94.4869 78.6109 88.5082 78.0682 82.6852C77.5121 76.7643 76.9649 70.7366 78.2505 64.9181C79.1544 61.1561 80.6083 57.5481 82.5655 54.2106C90.9197 39.3973 105.911 28.1605 122.926 23.9611C129.817 22.2618 136.943 21.6746 144.034 21.0919" fill="white"/>
<path d="M10.3229 39.4297C10.6729 39.4297 11.2808 40.0643 12.1468 41.3336C11.9822 41.8096 11.8132 42.0498 11.6352 42.0543L10.1895 40.8532C9.25828 41.5412 8.77341 43.3295 8.73485 46.218L8.79713 48.5268C9.21529 50.5227 9.88996 51.5087 10.8212 51.485L12.4137 51.267L12.605 51.6184C12.3915 52.4518 11.6323 52.8863 10.3274 52.9219C8.5925 52.4207 7.6524 50.4352 7.50708 46.9654C7.96675 41.989 8.90537 39.4771 10.3229 39.4297Z" fill="#706F6F" stroke="#706F6F" stroke-width="0.5" stroke-miterlimit="10"/>
<path d="M17.2624 40.2607H17.6138C18.4235 40.7323 18.7927 41.9334 18.7126 43.8595L18.6548 45.2742C18.4324 50.5886 17.3751 53.2087 15.483 53.1346H15.1361C13.5969 53.0723 12.897 51.33 13.0364 47.9076C13.2143 43.6431 14.1426 41.2542 15.8211 40.7412C16.2527 40.4607 16.7489 40.2953 17.2624 40.2607ZM15.6076 41.5953C15.1717 41.5775 14.6764 43.5126 14.1218 47.4005C14.0062 50.2357 14.54 51.6784 15.7233 51.7289C16.3549 51.7555 16.914 49.647 17.4003 45.4032C17.5012 42.915 17.0815 41.6531 16.1414 41.6175L15.6076 41.5953Z" fill="#706F6F" stroke="#706F6F" stroke-width="0.5" stroke-miterlimit="10"/>
<path d="M25.6478 40.5989C24.5001 48.8048 23.8106 52.8988 23.5792 52.881C23.4102 52.881 23.2145 53.0234 23.0009 53.357C22.4078 53.3007 21.7791 50.5678 21.1148 45.1585C21.1266 45.1109 21.1271 45.0611 21.1163 45.0132C21.1056 44.9653 21.0838 44.9206 21.0527 44.8826C21.0216 44.8446 20.9821 44.8144 20.9372 44.7943C20.8924 44.7743 20.8436 44.7649 20.7945 44.7671C20.1829 47.3095 19.6989 49.881 19.3443 52.4718L18.7794 52.7698L18.6326 52.4006L18.9039 49.5714C19.5564 44.34 20.1391 41.4278 20.6522 40.8346C20.6515 40.8108 20.6564 40.7872 20.6663 40.7655C20.6763 40.7439 20.691 40.7248 20.7095 40.7097C20.728 40.6947 20.7497 40.6841 20.7729 40.6788C20.7961 40.6734 20.8202 40.6735 20.8434 40.6789L21.5552 40.7456C22.2669 44.4468 22.7296 47.0476 22.9431 48.5482L23.2901 48.5838V48.4014C23.8031 43.1019 24.3533 40.4817 24.9405 40.541L25.6478 40.5989Z" fill="#706F6F" stroke="#706F6F" stroke-width="0.5" stroke-miterlimit="10"/>
<path d="M29.4868 40.9504C30.1496 41.3152 30.4209 41.9513 30.2919 42.8543C30.0517 43.2992 29.8471 43.5038 29.6691 43.4816C29.4323 43.1515 29.3006 42.7577 29.291 42.3517L28.7617 42.2805C28.2407 42.5947 27.8014 43.0278 27.4798 43.5442C27.1582 44.0607 26.9633 44.6459 26.9111 45.252C27.0891 45.9949 27.2759 46.3775 27.4716 46.4042L28.8729 46.5999C29.8545 46.7363 30.3853 47.6453 30.4654 49.3268C29.8382 51.5511 29.0953 52.8856 28.2412 53.3304C27.7844 53.6235 27.2887 53.8511 26.7688 54.0066L26.5953 53.9799C25.7056 53.8554 25.2607 53.197 25.2607 52.0048C25.4342 51.3153 25.6567 50.9861 25.9325 51.0261L26.4618 51.0973C26.4618 51.9336 26.5819 52.3651 26.8177 52.4007L27.1691 52.4496C28.3969 51.3464 29.082 50.3099 29.2154 49.3357C29.2658 48.3838 28.8625 47.8485 28.0054 47.7298L26.7777 47.5608C26.2661 47.4852 25.968 46.6088 25.888 44.9229C26.315 43.1969 26.8236 42.061 27.4138 41.5153C27.6835 41.2538 28.015 41.0647 28.3775 40.966C28.74 40.8672 29.1216 40.8618 29.4868 40.9504V40.9504Z" fill="#706F6F" stroke="#706F6F" stroke-width="0.5" stroke-miterlimit="10"/>
<path d="M35.6078 42.1111C36.3952 42.4136 36.76 42.7161 36.7066 43.0008C36.6532 43.2855 35.8525 43.4457 34.3178 43.3122C33.8462 43.2321 33.1819 45.3377 32.3249 49.629C33.7528 49.629 34.5891 49.6646 34.8338 49.7046L35.0874 50.2918L35.0562 50.4609C34.9643 51.0036 33.9723 51.1919 32.0802 51.0258L31.8489 51.3506L31.5775 52.9253C31.5419 53.1122 32.5502 53.5244 34.6025 54.162L34.7137 54.5446L33.6861 55.2652C31.2394 54.8382 30.1066 54.0967 30.2875 53.041L30.3186 52.8719C31.7807 45.4401 33.1241 41.8294 34.3489 42.04L35.6078 42.1111Z" fill="#706F6F" stroke="#706F6F" stroke-width="0.5" stroke-miterlimit="10"/>
<path d="M41.4173 42.8764C41.7085 43.0168 41.9428 43.2528 42.0812 43.545C42.2197 43.8372 42.2538 44.168 42.178 44.4823L42 45.372L41.6486 45.3008C41.2527 44.4956 40.9769 44.0775 40.8167 44.0463C39.3132 43.7498 38.253 45.1036 37.6361 48.1078C36.9392 52.3071 37.0356 54.4987 37.9253 54.6826L38.9662 54.8961L39.5623 53.744L39.7002 53.05C39.3532 52.9788 39.2064 52.8276 39.2554 52.6052L39.2909 52.4361C39.2999 52.2905 39.3424 52.149 39.4153 52.0226C39.4882 51.8962 39.5895 51.7885 39.711 51.7079C39.8326 51.6272 39.9713 51.5759 40.116 51.5579C40.2608 51.54 40.4078 51.5558 40.5454 51.6043L40.8968 51.6754C41.1222 51.7259 41.2824 52.1218 41.3773 52.8632C40.4075 55.4374 39.2657 56.5925 37.952 56.3285C36.4691 55.685 35.7856 54.4023 35.9012 52.4806C35.9623 50.9886 36.1243 49.5023 36.3861 48.0322C37.172 45.1733 37.9579 43.4799 38.7438 42.952C39.1379 42.691 39.5972 42.5456 40.0697 42.5323C40.5422 42.5189 41.0091 42.6381 41.4173 42.8764V42.8764Z" fill="#706F6F" stroke="#706F6F" stroke-width="0.5" stroke-miterlimit="10"/>
<path d="M48.8108 45.456C48.5635 47.044 48.1978 48.6113 47.7165 50.1447C47.1441 52.0842 46.511 54.5397 45.817 57.5113L44.9985 57.8672C44.948 57.8635 44.8991 57.8475 44.8561 57.8206C44.8132 57.7937 44.7775 57.7567 44.752 57.7129C44.7266 57.669 44.7123 57.6197 44.7103 57.569C44.7082 57.5184 44.7186 57.4681 44.7405 57.4223L45.0207 56.2168L44.8428 56.1768C43.8641 56.7966 43.139 57.0502 42.6675 56.9375L42.3161 56.8574C41.9265 56.4933 41.647 56.0272 41.5093 55.5121C41.3717 54.9969 41.3815 54.4535 41.5376 53.9437L42.3872 50.3137C43.0278 47.5735 43.6447 45.714 44.2378 44.7354L44.5848 44.8199L44.5136 45.892C44.1132 47.612 43.5038 49.9608 42.6853 52.9383C42.5493 53.7963 42.5917 54.6731 42.8098 55.514L43.3303 55.6341C44.567 55.0231 45.6361 52.7856 46.5376 48.9213C47.1308 46.3857 47.7165 45.1846 48.2948 45.3181L48.8108 45.456Z" fill="#706F6F" stroke="#706F6F" stroke-width="0.5" stroke-miterlimit="10"/>
<path d="M52.9699 45.9727C53.7261 46.3374 54.0687 46.6666 53.993 46.9647C53.9174 47.2627 53.1033 47.3472 51.582 47.0848C51.1253 46.9632 50.2934 49.0065 49.0864 53.2147C50.5099 53.3393 51.3403 53.4327 51.5775 53.495L51.7866 54.1L51.7421 54.269C51.6042 54.7984 50.6033 54.9051 48.7305 54.5938L48.4725 54.8962L48.0722 56.4399C48.0277 56.6267 48.9974 57.1205 50.9903 57.9212L51.0704 58.3127L50.0117 58.9443C47.6065 58.3216 46.536 57.4956 46.7999 56.4666L46.8444 56.2975C48.9025 49.011 50.5336 45.5219 51.7377 45.8303L52.9699 45.9727Z" fill="#706F6F" stroke="#706F6F" stroke-width="0.5" stroke-miterlimit="10"/>
<path d="M60.3856 48.015C57.8055 55.8947 56.4042 59.8019 56.1818 59.7367C56.0128 59.6877 55.7948 59.8123 55.5234 60.1059C54.96 59.9458 54.825 57.1432 55.1186 51.6983C55.1393 51.6531 55.149 51.6037 55.1469 51.5541C55.1449 51.5045 55.1312 51.456 55.1069 51.4127C55.0827 51.3693 55.0485 51.3323 55.0073 51.3047C54.966 51.277 54.9188 51.2595 54.8695 51.2535C54.3001 52.4041 53.3704 54.8463 52.0803 58.5801L51.4753 58.7758L51.3953 58.3888L52.1604 55.6485C53.7322 50.607 54.8161 47.84 55.4122 47.3477C55.4164 47.3243 55.4258 47.302 55.4397 47.2826C55.4536 47.2632 55.4717 47.2472 55.4926 47.2357C55.5135 47.2242 55.5367 47.2175 55.5605 47.2161C55.5843 47.2147 55.6081 47.2186 55.6302 47.2276L56.3153 47.4189C56.3627 51.1853 56.3627 53.8276 56.3153 55.346L56.6533 55.4395L56.7023 55.2615C58.1406 50.1428 59.1445 47.6621 59.7139 47.8193L60.3856 48.015Z" fill="#706F6F" stroke="#706F6F" stroke-width="0.5" stroke-miterlimit="10"/>
<path d="M61.987 48.4948L65.3857 49.5268C66.0396 49.8071 66.3287 50.0784 66.2486 50.3454L66.1463 50.6879C65.9921 51.1891 64.4455 52.8202 61.5066 55.5812C60.0238 57.6364 59.2157 58.8745 59.0822 59.2956C59.5938 59.4619 60.1245 59.562 60.6614 59.5937C62.1027 60.1231 62.7878 60.5145 62.7077 60.7725L62.6054 61.1151C62.552 61.29 62.2554 61.4457 61.7157 61.5821L57.4763 60.2965L57.5564 59.4068C59.8963 55.6701 61.8358 53.3555 63.375 52.4628C63.8556 51.9604 64.2738 51.4018 64.6205 50.7991L64.6917 50.6212L61.471 49.6425L60.6703 49.1976L60.8215 48.6905C61.0291 48.391 61.4176 48.3258 61.987 48.4948Z" fill="#706F6F" stroke="#706F6F" stroke-width="0.5" stroke-miterlimit="10"/>
<path d="M70.666 51.2079L70.9997 51.3147C71.4831 51.4719 71.5097 52.3512 71.0797 53.9526L70.7505 54.9669C68.7487 61.1502 67.5225 64.1707 67.0717 64.0284L66.916 63.9661C66.869 63.9565 66.8249 63.9364 66.7868 63.9073C66.7488 63.8781 66.7179 63.8407 66.6964 63.7978C66.675 63.755 66.6636 63.7078 66.6631 63.6599C66.6626 63.6119 66.673 63.5645 66.6936 63.5212L67.0227 62.5114L64.932 61.466C64.5405 61.337 64.2959 61.6573 64.1935 62.4269C64.0912 63.1965 63.851 63.4234 63.4729 63.1209C63.0948 62.8184 63.0058 62.3379 63.206 61.6751C63.4062 61.0123 63.6019 60.3851 63.7976 59.789C65.3961 54.8601 67.1132 52.0591 68.9489 51.3859C69.4891 51.1503 70.089 51.0881 70.666 51.2079V51.2079ZM64.9542 59.611L64.7896 60.1137C65.0689 60.1991 65.3569 60.2528 65.6482 60.2739C66.0313 60.3168 66.402 60.4363 66.7381 60.6253C66.9822 60.7657 67.2364 60.8876 67.4987 60.9901C68.1527 59.3397 68.6108 58.1208 68.8644 57.3334L69.9587 53.9571C70.1547 53.4137 70.1547 52.8189 69.9587 52.2755C68.2268 52.1777 66.5586 54.6228 64.9542 59.611V59.611Z" fill="#706F6F" stroke="#706F6F" stroke-width="0.5" stroke-miterlimit="10"/>
<path d="M235.921 44.891C236.753 44.7798 237.22 44.8687 237.318 45.1623C237.416 45.4559 236.78 45.9719 235.365 46.5769C234.917 46.7282 235.335 48.8946 236.62 53.0761C237.878 52.4044 238.63 52.0307 238.844 51.9507L239.346 52.3421L239.404 52.5112C239.578 53.0272 238.795 53.6678 237.055 54.424L237.007 54.8199L237.514 56.3324C237.576 56.5163 238.66 56.3991 240.766 55.981L241.046 56.2657L240.485 57.3822C238.131 58.18 236.784 58.0732 236.446 57.0619L236.388 56.8973C234.137 49.6642 233.601 45.8489 234.778 45.4515L235.921 44.891Z" fill="#706F6F" stroke="#706F6F" stroke-width="0.5" stroke-miterlimit="10"/>
<path d="M240.405 42.9344L240.574 42.8855C242.273 42.3783 243.578 43.6551 244.489 46.7156L244.591 47.0581C244.996 48.3927 245.209 50.3811 245.241 52.9701C246.13 53.8242 246.602 54.4159 246.704 54.7495L246.753 54.9185C246.802 55.0831 246.682 55.3011 246.393 55.5769L246.219 55.6303C246.112 55.6614 245.672 55.4257 244.885 54.9141C244.217 55.8512 243.697 56.3762 243.323 56.4888L242.816 56.6401C241.895 56.4622 241.157 55.4479 240.592 53.6018L239.934 51.3776C238.418 46.2856 238.575 43.4712 240.405 42.9344ZM240.93 50.9416C241.82 53.8895 242.542 55.2789 243.096 55.1098L243.265 55.0609C244.019 54.8385 244.091 52.5964 243.483 48.3348L243.332 47.8233C242.443 45.3722 241.677 44.2378 241.028 44.4335L240.178 44.6871C239.641 44.8324 239.886 46.9113 240.912 50.9238L240.93 50.9416Z" fill="#706F6F" stroke="#706F6F" stroke-width="0.5" stroke-miterlimit="10"/>
<path d="M249.133 41.666C249.644 43.1904 250.042 44.75 250.325 46.3324C250.717 48.3164 251.291 50.7868 252.047 53.7436L251.486 54.4375C251.44 54.4595 251.39 54.4698 251.339 54.4675C251.288 54.4653 251.238 54.4506 251.194 54.4246C251.15 54.3987 251.113 54.3624 251.087 54.3189C251.06 54.2754 251.045 54.226 251.042 54.1751L250.735 52.9784L250.557 53.0229C249.964 54.0253 249.437 54.5858 248.977 54.7044L248.63 54.7934C248.116 54.6516 247.652 54.3678 247.292 53.9744C246.931 53.581 246.689 53.0939 246.593 52.5692L245.668 48.9615C244.968 46.2301 244.657 44.3025 244.734 43.1785L245.076 43.0895L245.521 44.0771C245.966 45.7705 246.515 48.1267 247.167 51.1457C247.442 51.9685 247.885 52.7257 248.466 53.3699L248.982 53.2364C249.797 52.1243 249.711 49.6451 248.724 45.7986C248.077 43.2749 248.042 41.9403 248.617 41.795L249.133 41.666Z" fill="#706F6F" stroke="#706F6F" stroke-width="0.5" stroke-miterlimit="10"/>
<path d="M250.192 38.4232L250.85 38.2764C251.157 38.2764 251.34 38.3742 251.397 38.6189L251.544 39.2773C251.58 39.4285 251.295 39.8823 250.695 40.6429C250.048 40.554 249.701 40.3983 249.654 40.1759L249.502 39.5175C249.445 39.2862 249.676 38.9214 250.192 38.4232ZM251.255 41.5593C251.534 41.8201 251.735 42.1525 251.838 42.5202L254.12 52.547C254.158 52.7309 253.98 53.0156 253.586 53.4011L253.408 53.4411C253.297 53.4678 253.07 53.2766 252.732 52.8628C252.541 51.4838 252.38 50.4918 252.243 49.8868L251.353 46.079C250.757 43.398 250.723 41.8915 251.251 41.5593H251.255Z" fill="#706F6F" stroke="#706F6F" stroke-width="0.5" stroke-miterlimit="10"/>
<path d="M253.252 40.5629C253.614 40.7408 254.049 41.5608 254.556 43.0229C255.063 44.4849 255.724 46.463 256.54 48.9571L256.882 48.8904C256.568 43.1608 256.774 40.2248 257.501 40.0825L257.67 40.0469C257.91 40.0469 258.052 40.1358 258.115 40.3271L258.146 40.5006C258.083 46.9182 257.959 50.8611 257.772 52.329C257.504 52.6026 257.165 52.7953 256.793 52.8851C254.806 47.7071 253.447 43.877 252.714 41.3948C252.718 41.2198 252.77 41.0493 252.865 40.9024C252.96 40.7555 253.094 40.638 253.252 40.5629V40.5629Z" fill="#706F6F" stroke="#706F6F" stroke-width="0.5" stroke-miterlimit="10"/>
<path d="M261.936 38.6108L262.283 38.5574C262.785 38.4773 263.212 39.2469 263.55 40.8706L263.719 41.9249C264.748 48.3425 265.029 51.5899 264.56 51.667L264.378 51.6937C264.331 51.7066 264.283 51.7087 264.235 51.6999C264.188 51.691 264.143 51.6715 264.105 51.6427C264.066 51.614 264.034 51.5768 264.012 51.5339C263.99 51.4911 263.978 51.4438 263.977 51.3956L263.808 50.3458H261.473C261.068 50.4125 260.992 50.7907 261.251 51.538C261.509 52.2853 261.397 52.5834 260.926 52.4855C260.454 52.3877 260.152 52.0006 260.036 51.32C259.92 50.6394 259.805 49.9855 259.702 49.3672C258.887 44.2514 259.145 40.9774 260.476 39.545C260.856 39.0918 261.365 38.7657 261.936 38.6108V38.6108ZM260.668 48.691L260.752 49.2159C261.037 49.1637 261.316 49.0817 261.584 48.9712C261.946 48.8345 262.332 48.7724 262.718 48.7889C262.999 48.8044 263.279 48.8044 263.559 48.7889C263.393 47.0095 263.245 45.7165 263.114 44.9098L262.558 41.4044C262.48 40.831 262.205 40.3026 261.78 39.9098C260.211 40.6037 259.84 43.5367 260.668 48.7088V48.691Z" fill="#706F6F" stroke="#706F6F" stroke-width="0.5" stroke-miterlimit="10"/>
<path d="M264.823 38.4109L265.352 38.3486C265.395 38.5331 265.476 38.7061 265.592 38.8557C265.865 42.9869 266.172 46.4641 266.513 49.2874L266.882 49.4253L268.822 49.1895C269.067 49.1895 269.196 49.2963 269.222 49.492L269.285 50.0214C269.212 50.2692 269.06 50.4867 268.853 50.6415C268.647 50.7962 268.395 50.8799 268.137 50.8799L267.078 51.0089C266.002 50.9822 265.408 50.5196 265.299 49.621C264.551 43.497 264.393 39.7603 264.823 38.4109Z" fill="#706F6F" stroke="#706F6F" stroke-width="0.5" stroke-miterlimit="10"/>
<path d="M271.914 37.498C272.75 37.587 273.182 37.7872 273.208 38.0941C273.235 38.4011 272.492 38.7525 270.984 39.0061C270.507 39.0476 270.397 41.2511 270.655 45.6165C272.043 45.2636 272.858 45.0767 273.101 45.056L273.497 45.5586V45.7321C273.548 46.2748 272.637 46.7093 270.766 47.0355L270.624 47.4047L270.757 48.9973C270.775 49.1871 271.856 49.3354 274 49.4421L274.205 49.7802L273.391 50.7366C270.917 50.9502 269.636 50.5261 269.547 49.4644V49.2909C269.079 41.7285 269.463 37.8954 270.699 37.7916L271.914 37.498Z" fill="#706F6F" stroke="#706F6F" stroke-width="0.5" stroke-miterlimit="10"/>
<path d="M279.854 37.0928C279.824 45.3817 279.692 49.5336 279.458 49.5484C279.289 49.5484 279.116 49.7397 278.951 50.1C278.358 50.1208 277.366 47.4977 275.975 42.2307C275.981 42.1818 275.975 42.1323 275.958 42.0861C275.941 42.0399 275.913 41.9982 275.877 41.9645C275.842 41.9308 275.798 41.906 275.751 41.892C275.704 41.8779 275.654 41.8751 275.606 41.8838C275.419 43.156 275.285 45.7658 275.205 49.713L274.689 50.0867L274.494 49.7442L274.378 46.9016C274.319 41.6198 274.5 38.6542 274.921 38.0047C274.921 37.8891 274.97 37.8312 275.09 37.8268L275.801 37.7956C277.005 41.3544 277.815 43.8752 278.23 45.358H278.577V45.1756C278.37 39.8582 278.561 37.1892 279.151 37.1684L279.854 37.0928Z" fill="#706F6F" stroke="#706F6F" stroke-width="0.5" stroke-miterlimit="10"/>
<path d="M281.869 37.098L285.428 37.1469C286.134 37.2359 286.485 37.4182 286.482 37.6941V38.0544C286.482 38.5793 285.444 40.5737 283.368 44.0375C282.508 46.4101 282.075 47.8232 282.069 48.2769C282.606 48.2952 283.143 48.2444 283.666 48.1257C285.202 48.2324 285.968 48.4208 285.962 48.6906V49.0465C285.962 49.2289 285.721 49.4602 285.245 49.7449L280.797 49.6782L280.624 48.7885C281.839 44.5536 283.064 41.7926 284.298 40.5055C284.616 39.889 284.862 39.2383 285.032 38.5659V38.3836L281.66 38.3346L280.77 38.1433V37.614C280.922 37.2759 281.282 37.0891 281.869 37.098Z" fill="#706F6F" stroke="#706F6F" stroke-width="0.5" stroke-miterlimit="10"/>
<path d="M291.336 37.4678L291.683 37.4945C292.193 37.5301 292.431 38.3767 292.399 40.0345L292.328 41.0977C291.883 47.5836 291.425 50.8102 290.953 50.7776H290.771C290.722 50.7808 290.674 50.7727 290.629 50.754C290.585 50.7353 290.545 50.7064 290.514 50.6697C290.482 50.633 290.46 50.5895 290.448 50.5426C290.436 50.4957 290.435 50.4467 290.446 50.3994L290.521 49.3362L288.239 48.8291C287.83 48.8024 287.666 49.1717 287.755 49.9412C287.844 50.7108 287.666 50.9911 287.225 50.7909C286.785 50.5907 286.58 50.1459 286.616 49.4564C286.651 48.7668 286.687 48.1218 286.731 47.4812C287.087 42.3121 288.075 39.1789 289.694 38.0817C290.165 37.7124 290.738 37.498 291.336 37.4678V37.4678ZM287.83 47.0053L287.795 47.5346C288.092 47.5511 288.391 47.5332 288.684 47.4812C289.067 47.4305 289.456 47.4578 289.828 47.5613C290.098 47.6343 290.373 47.6908 290.651 47.7304C290.891 45.9688 291.039 44.6758 291.095 43.8513L291.336 40.2925C291.384 39.7144 291.226 39.1377 290.891 38.6644C289.209 38.9966 288.189 41.7768 287.83 47.0053Z" fill="#706F6F" stroke="#706F6F" stroke-width="0.5" stroke-miterlimit="10"/>
<path d="M87.1115 170.937L87.1724 170.593C87.7452 169.853 88.9831 169.65 90.8861 169.984L92.2794 170.233C97.5191 171.159 99.9757 172.559 99.6491 174.434L99.5838 174.778C99.3186 176.294 97.4976 176.754 94.1209 176.157C89.9207 175.412 87.6785 174.174 87.3943 172.441C87.1709 171.973 87.0734 171.454 87.1115 170.937V170.937ZM88.2258 172.755C88.1491 173.186 89.9998 173.934 93.778 175C96.5641 175.496 98.0641 175.16 98.2783 173.992C98.3871 173.373 96.3733 172.537 92.2367 171.484C89.785 171.048 88.4733 171.296 88.3017 172.229L88.2258 172.755Z" fill="#706F6F" stroke="#706F6F" stroke-width="0.5" stroke-miterlimit="10"/>
<path d="M87.5679 165.831C88.0084 164.229 89.7584 163.667 92.818 164.145C95.8999 164.869 97.3383 166.31 97.1334 168.468L97.0846 168.638C96.9501 168.77 96.8455 168.928 96.7777 169.103C98.9924 169.981 100.054 170.581 99.9624 170.903L99.8694 171.243C99.6297 171.17 99.3746 171.165 99.1322 171.228C94.7996 169.658 91.3748 168.529 88.8579 167.842C87.7503 167.411 87.3242 166.737 87.5679 165.831ZM89.7067 166.779C90.5944 167.024 92.5039 167.672 95.4353 168.724C95.439 168.7 95.4483 168.677 95.4624 168.656C95.4765 168.636 95.4951 168.62 95.5167 168.608C95.5383 168.596 95.5624 168.589 95.587 168.588C95.6116 168.587 95.6361 168.592 95.6587 168.602C96.0706 167.119 95.3038 166.109 93.3584 165.571L93.1889 165.527C91.682 165.116 90.3999 165.316 89.3428 166.126L89.2948 166.301C89.224 166.529 89.3625 166.686 89.7067 166.779Z" fill="#706F6F" stroke="#706F6F" stroke-width="0.5" stroke-miterlimit="10"/>
<path d="M89.5769 159.474C90.1606 157.921 91.9548 157.518 94.9596 158.267C97.9652 159.276 99.2736 160.841 98.8849 162.96L98.826 163.123C98.6765 163.24 98.556 163.389 98.4739 163.56C100.603 164.629 101.607 165.321 101.487 165.635L101.366 165.966C101.132 165.874 100.879 165.846 100.631 165.883C96.4349 163.936 93.1201 162.507 90.6867 161.596C89.6169 161.065 89.247 160.358 89.5769 159.474ZM91.6209 160.613C92.4855 160.937 94.3263 161.753 97.1434 163.061C97.1495 163.037 97.1608 163.016 97.1766 162.997C97.1923 162.979 97.2121 162.964 97.2344 162.954C97.2567 162.944 97.281 162.94 97.3053 162.941C97.3296 162.942 97.3534 162.948 97.3748 162.96C97.9138 161.519 97.2418 160.445 95.3588 159.738L95.1951 159.675C93.7324 159.131 92.4375 159.215 91.3104 159.929L91.2434 160.098C91.1624 160.319 91.2871 160.474 91.6209 160.613Z" fill="#706F6F" stroke="#706F6F" stroke-width="0.5" stroke-miterlimit="10"/>
<path d="M93.5459 152.038L93.6974 151.725C94.4492 151.16 95.6957 151.293 97.4371 152.126L98.7138 152.737C103.517 155.03 105.51 157.032 104.694 158.743L104.542 159.057C103.869 160.447 101.991 160.405 98.9092 158.93C95.0584 157.091 93.2272 155.299 93.4155 153.552C93.3334 153.044 93.3782 152.524 93.5459 152.038V152.038ZM94.1345 154.087C93.9467 154.482 95.5303 155.699 98.8852 157.74C101.448 158.96 102.984 159.036 103.493 157.966C103.769 157.395 102.047 156.053 98.3253 153.941C96.079 152.87 94.7522 152.76 94.3449 153.611L94.1345 154.087Z" fill="#706F6F" stroke="#706F6F" stroke-width="0.5" stroke-miterlimit="10"/>
<path d="M95.8674 146.651C96.4556 146.17 97.1453 146.16 97.9363 146.623C98.2542 147.021 98.3647 147.283 98.2772 147.437C97.8822 147.53 97.4685 147.503 97.0883 147.361L96.8472 147.843C96.9448 148.44 97.181 149.006 97.5368 149.496C97.8927 149.985 98.3583 150.385 98.8964 150.662C99.6501 150.777 100.078 150.748 100.176 150.578L100.878 149.359C101.377 148.497 102.421 148.353 104.001 148.914C105.807 150.325 106.764 151.52 106.87 152.501C106.972 153.035 106.994 153.582 106.933 154.122L106.845 154.272C106.39 155.05 105.613 155.213 104.514 154.763C103.94 154.338 103.72 153.991 103.859 153.765L104.127 153.307C104.901 153.631 105.345 153.675 105.47 153.47L105.649 153.161C105.094 151.608 104.391 150.583 103.54 150.085C102.678 149.686 102.029 149.857 101.595 150.598L100.96 151.676C100.7 152.124 99.7745 152.067 98.1826 151.505C96.7485 150.457 95.8898 149.555 95.6066 148.799C95.4611 148.449 95.4086 148.067 95.4543 147.691C95.5 147.314 95.6423 146.956 95.8674 146.651V146.651Z" fill="#706F6F" stroke="#706F6F" stroke-width="0.5" stroke-miterlimit="10"/>
<path d="M98.6607 141.584C99.2813 140.86 99.6923 140.563 99.8902 140.697C100.397 141.038 100.597 141.379 100.484 141.731L99.4954 143.21C106.095 147.606 109.262 149.998 108.999 150.387L108.946 150.784L108.609 150.979C105.674 148.881 103.492 147.358 102.062 146.409L101.323 145.912C100.812 145.545 99.9991 144.962 98.9058 144.095C98.2199 144.916 97.7766 145.263 97.5787 145.129L97.2801 144.93C97.0557 144.633 97.1035 144.238 97.4295 143.751L98.4125 142.269C98.5541 142.067 98.6397 141.83 98.6607 141.584V141.584Z" fill="#706F6F" stroke="#706F6F" stroke-width="0.5" stroke-miterlimit="10"/>
<path d="M101.871 138.647L102.077 138.365C102.911 137.952 104.11 138.319 105.675 139.466L106.813 140.302C111.099 143.458 112.685 145.798 111.57 147.321L111.364 147.603C110.449 148.843 108.613 148.449 105.855 146.419C102.42 143.89 100.958 141.786 101.47 140.106C101.478 139.594 101.616 139.092 101.871 138.647ZM102.061 140.771C101.817 141.111 103.145 142.603 106.046 145.247C108.332 146.931 109.824 147.287 110.522 146.316C110.898 145.807 109.464 144.165 106.22 141.391C104.217 139.917 102.936 139.559 102.375 140.318L102.061 140.771Z" fill="#706F6F" stroke="#706F6F" stroke-width="0.5" stroke-miterlimit="10"/>
<path d="M112.655 51.0352C112.845 53.6459 112.845 56.267 112.655 58.8778C112.462 62.1637 112.367 66.2934 112.37 71.2667L111.205 72.1297C111.127 72.1403 111.047 72.1325 110.973 72.107C110.898 72.0816 110.831 72.0391 110.775 71.983C110.72 71.9269 110.679 71.8586 110.654 71.7837C110.63 71.7088 110.623 71.6293 110.635 71.5514V69.5318H110.337C109.003 70.8664 107.962 71.5514 107.17 71.5514H106.587C105.042 70.6617 104.27 69.2175 104.27 67.2186V61.1509C104.27 56.5601 104.559 53.3825 105.137 51.6179H105.72L106.004 53.3484C106.004 56.2221 105.91 60.1723 105.72 65.199C105.821 66.6091 106.213 67.9829 106.872 69.2338H107.739C109.471 67.8073 110.337 63.8615 110.337 57.3965C110.337 53.1556 110.821 51.0352 111.787 51.0352H112.655Z" fill="#706F6F"/>
<path d="M119.919 49.5843C121.076 49.9876 121.654 50.7601 121.654 51.9019V53.3476H121.071C120.182 52.197 119.605 51.6202 119.341 51.6172C116.838 51.6172 115.586 54.1217 115.586 59.1306C115.835 66.0673 116.703 69.5341 118.189 69.5311H119.919L120.489 67.5026V66.3505C119.915 66.3505 119.626 66.1547 119.626 65.7677V65.483C119.626 64.3264 120.199 63.7481 121.356 63.7481H121.939C122.317 63.7481 122.704 64.3264 123.091 65.483C122.379 69.9137 120.935 72.129 118.758 72.129C116.19 71.5774 114.682 69.7535 114.234 66.6574C113.844 64.2616 113.618 61.842 113.558 59.4153C113.878 54.5962 114.58 51.6394 115.662 50.5451C116.744 49.4508 118.163 49.1305 119.919 49.5843Z" fill="#706F6F"/>
<path d="M132.09 51.0352C132.285 53.6457 132.285 56.2672 132.09 58.8778C131.903 62.1637 131.808 66.2934 131.805 71.2667L130.644 72.1297C130.566 72.1403 130.487 72.1325 130.412 72.107C130.338 72.0816 130.27 72.0391 130.215 71.983C130.16 71.9269 130.118 71.8586 130.094 71.7837C130.07 71.7088 130.063 71.6293 130.075 71.5514V69.5318H129.777C128.442 70.8664 127.397 71.5514 126.605 71.5514H126.027C124.485 70.6617 123.712 69.2175 123.709 67.2186V61.1509C123.709 56.5601 123.998 53.3825 124.577 51.6179H125.159L125.444 53.3484C125.444 56.2221 125.349 60.1723 125.159 65.199C125.259 66.6094 125.651 67.9835 126.312 69.2338H127.175C128.909 67.8073 129.777 63.8615 129.777 57.3965C129.777 53.1556 130.259 51.0352 131.223 51.0352H132.09Z" fill="#706F6F"/>
<path d="M139.359 50.1768H139.928C140.759 50.1768 141.242 51.5261 141.378 54.2249V55.9597C141.378 66.55 140.994 71.8452 140.226 71.8452H139.928C139.85 71.8549 139.771 71.8465 139.696 71.8204C139.622 71.7944 139.554 71.7515 139.499 71.6951C139.444 71.6386 139.403 71.5702 139.378 71.4952C139.354 71.4201 139.347 71.3405 139.359 71.2624V69.5275L135.596 68.9581C134.928 68.9581 134.706 69.5809 134.933 70.8176C135.16 72.0542 134.906 72.5347 134.168 72.2589C133.429 71.9831 133.047 71.2802 133.024 70.1548C133.002 69.0293 132.993 67.9528 132.993 66.9296C132.993 58.4954 134.249 53.2951 136.761 51.3289C137.784 50.5415 138.647 50.1768 139.359 50.1768ZM134.728 66.0622V66.9296C135.202 66.9187 135.673 66.8561 136.134 66.7428C136.75 66.6178 137.386 66.6178 138.002 66.7428C138.45 66.8351 138.903 66.8975 139.359 66.9296C139.549 64.0411 139.644 61.9236 139.644 60.5772V54.7943C139.666 53.8537 139.359 52.9349 138.776 52.1964C136.08 52.8933 134.731 57.5078 134.728 66.0399V66.0622Z" fill="#706F6F"/>
<path d="M148.358 49.5843C149.515 49.9876 150.093 50.7601 150.093 51.9019V53.3476H149.51C148.621 52.197 148.044 51.6202 147.78 51.6172C145.277 51.6172 144.025 54.1217 144.025 59.1306C144.274 66.0673 145.142 69.5341 146.628 69.5311H148.358L148.927 67.5026V66.3505C148.354 66.3505 148.064 66.1547 148.064 65.7677V65.483C148.064 64.3264 148.638 63.7481 149.795 63.7481H150.378C150.756 63.7481 151.143 64.3264 151.53 65.483C150.818 69.9137 149.374 72.129 147.197 72.129C144.632 71.5774 143.124 69.7535 142.673 66.6574C142.283 64.2616 142.057 61.842 141.997 59.4153C142.317 54.5962 143.018 51.6394 144.101 50.5451C145.183 49.4508 146.602 49.1305 148.358 49.5843Z" fill="#706F6F"/>
<path d="M153.598 50.4521H154.466C154.496 50.7586 154.593 51.0547 154.75 51.3196C154.368 58.0546 154.178 63.7367 154.181 68.3661L154.75 68.6641H157.931C158.318 68.7219 158.514 68.9132 158.514 69.2335V70.1232C158.198 70.8972 157.522 71.2887 156.481 71.2887H154.75C153.015 71.0307 152.148 70.1632 152.148 68.6864C152.148 58.6269 152.631 52.5489 153.598 50.4521Z" fill="#706F6F"/>
<path d="M160.604 46.2578H161.708C162.201 46.3379 162.451 46.587 162.451 47.0007V48.0995C162.451 48.3486 161.835 48.9684 160.604 49.9589C159.612 49.5853 159.119 49.216 159.119 48.8424V47.7436C159.119 47.3521 159.614 46.8569 160.604 46.2578ZM161.16 51.6182C161.511 52.1302 161.712 52.7291 161.743 53.3486V70.1015C161.743 70.4085 161.361 70.7955 160.591 71.267H160.293C160.106 71.267 159.817 70.8756 159.43 70.1015C159.626 67.8417 159.724 66.2047 159.724 65.2082V58.8336C159.724 54.3644 160.203 51.9592 161.16 51.6182Z" fill="#706F6F"/>
<path d="M169.435 50.1768H170C170.836 50.1768 171.319 51.5261 171.45 54.2249V55.9597C171.45 66.55 171.066 71.8452 170.298 71.8452H170C169.922 71.8551 169.842 71.8468 169.768 71.8207C169.694 71.7947 169.626 71.7517 169.571 71.6951C169.517 71.6386 169.476 71.57 169.452 71.4949C169.428 71.4198 169.422 71.3402 169.435 71.2624V69.5275L165.671 68.9359C165.004 68.9359 164.782 69.5587 165.013 70.7953C165.244 72.032 164.982 72.5124 164.243 72.2366C163.505 71.9608 163.127 71.258 163.105 70.1325C163.082 69.0071 163.073 67.9305 163.073 66.9074C163.073 58.4731 164.328 53.2729 166.837 51.3067C167.856 50.5415 168.723 50.1768 169.435 50.1768ZM164.804 66.0622V66.9296C165.276 66.9187 165.746 66.856 166.205 66.7428C166.823 66.6178 167.46 66.6178 168.078 66.7428C168.526 66.8353 168.979 66.8977 169.435 66.9296C169.622 64.0411 169.716 61.9236 169.719 60.5772V54.7943C169.735 53.851 169.421 52.9318 168.83 52.1964C166.131 52.8933 164.789 57.5078 164.804 66.0399V66.0622Z" fill="#706F6F"/>
<path d="M181.601 50.1768C181.029 63.6645 180.551 70.4083 180.169 70.4083C179.884 70.4083 179.599 70.6975 179.279 71.298C178.318 71.298 176.874 66.9637 174.946 58.2952C174.957 58.2161 174.95 58.1354 174.925 58.0597C174.899 57.9839 174.857 57.9151 174.8 57.8586C174.744 57.8021 174.675 57.7595 174.599 57.7341C174.523 57.7087 174.443 57.7013 174.364 57.7124C173.978 59.7676 173.594 64.007 173.211 70.4306L172.322 71L172.024 70.4306V65.7686C172.264 57.1682 172.747 52.3521 173.474 51.32C173.468 51.2812 173.471 51.2416 173.483 51.2043C173.495 51.1669 173.516 51.133 173.544 51.1053C173.572 51.0775 173.605 51.0567 173.643 51.0446C173.68 51.0324 173.72 51.0292 173.759 51.0353H174.924C176.653 56.9221 177.808 61.0651 178.389 63.4643H179.017V63.1662C179.017 54.5066 179.496 50.1768 180.453 50.1768H181.601Z" fill="#706F6F"/>
<path d="M183.955 50.1768H189.738C190.894 50.3013 191.472 50.5905 191.472 51.0442V51.627C191.472 52.484 189.841 55.7566 186.579 61.4447C185.23 65.3445 184.557 67.6547 184.56 68.3754C185.436 68.3919 186.31 68.2962 187.162 68.0907C189.662 68.233 190.912 68.5222 190.912 68.9581V69.5409C190.912 69.8389 190.529 70.2215 189.76 70.693H182.518L182.224 69.2428C184.095 62.3181 186.023 57.7955 188.007 55.675C188.775 53.8957 189.159 52.8354 189.159 52.4944V52.1964H183.67L182.224 51.9117V51.0442C182.42 50.457 183.02 50.1768 183.955 50.1768Z" fill="#706F6F"/>
<path d="M198.452 50.1768H199.035C199.871 50.1768 200.354 51.5261 200.485 54.2249V55.9597C200.485 66.55 200.101 71.8452 199.333 71.8452H199.035C198.956 71.8549 198.877 71.8465 198.802 71.8204C198.728 71.7944 198.661 71.7515 198.605 71.6951C198.55 71.6386 198.509 71.5702 198.485 71.4952C198.46 71.4201 198.454 71.3405 198.465 71.2624V69.5275L194.702 68.9581C194.035 68.9581 193.812 69.5809 194.039 70.8176C194.266 72.0542 194.012 72.5347 193.274 72.2589C192.536 71.9831 192.153 71.2802 192.135 70.1548C192.117 69.0293 192.104 67.9528 192.104 66.9296C192.104 58.4954 193.358 53.2951 195.867 51.3289C196.877 50.5415 197.745 50.1768 198.452 50.1768ZM193.821 66.0622V66.9296C194.295 66.919 194.767 66.8563 195.227 66.7428C195.845 66.6178 196.482 66.6178 197.1 66.7428C197.54 66.8345 197.986 66.8969 198.434 66.9296C198.624 64.0411 198.719 61.9236 198.719 60.5772V54.7943C198.74 53.8545 198.435 52.9364 197.856 52.1964C195.169 52.8933 193.824 57.5078 193.821 66.0399V66.0622Z" fill="#706F6F"/>
<path d="M111.249 79.7275C112.791 79.9203 113.562 80.2095 113.562 80.595C113.562 81.5974 113.273 82.1757 112.695 82.3299H109.799C109.799 95.2393 109.415 101.694 108.647 101.694L108.069 101.979L107.499 101.694C107.686 95.8191 107.781 91.4848 107.784 88.6912V87.2454C107.784 86.2282 107.879 84.5897 108.069 82.3299C106.334 82.1401 105.466 81.8509 105.466 81.4624V80.8708C105.666 80.2925 106.24 80.0033 107.201 80.0033H110.097C110.499 80.0134 110.896 79.9183 111.249 79.7275V79.7275Z" fill="#706F6F"/>
<path d="M115.658 80.0127H119.408C121.143 80.0127 122.009 81.2672 122.006 83.7761V90.1285C122.006 91.0182 121.429 92.4624 120.275 94.4613H120.573C121.724 94.4613 122.301 96.1947 122.304 99.6615C122.304 100.587 121.822 101.264 120.858 101.694H120.297L120.013 100.244V97.3617C120.013 96.7834 118.761 96.4942 116.258 96.4942H115.965C115.582 96.552 115.395 96.7389 115.395 97.0636V99.6615C115.395 101.204 114.817 101.976 113.66 101.979L113.362 101.396C113.926 87.1436 114.691 80.0157 115.658 80.0127ZM116.521 81.7476C116.067 81.7476 115.779 85.6963 115.658 93.5938C115.697 93.5892 115.738 93.5938 115.775 93.6073C115.813 93.6209 115.847 93.643 115.874 93.6719C115.902 93.7008 115.922 93.7357 115.934 93.7738C115.946 93.812 115.949 93.8524 115.942 93.8919C118.831 93.8919 120.275 91.5816 120.275 86.9612C120.29 83.4943 119.617 81.7609 118.256 81.7609L116.521 81.7476Z" fill="#706F6F"/>
<path d="M129.274 80.582H129.844C130.68 80.582 131.163 81.9314 131.294 84.6301V86.365C131.294 96.9583 130.91 102.253 130.142 102.25H129.844C129.765 102.26 129.686 102.252 129.612 102.226C129.537 102.2 129.47 102.157 129.414 102.1C129.359 102.044 129.318 101.975 129.294 101.9C129.269 101.825 129.263 101.746 129.274 101.668V99.9328L125.511 99.3634C124.844 99.3634 124.621 99.9862 124.848 101.223C125.075 102.46 124.821 102.94 124.083 102.664C123.345 102.388 122.962 101.685 122.944 100.56C122.926 99.4346 122.913 98.358 122.913 97.3349C122.913 88.9006 124.168 83.7004 126.676 81.7342C127.7 80.969 128.567 80.582 129.274 80.582ZM124.644 96.4675V97.3305C125.117 97.3195 125.589 97.2569 126.049 97.1436C126.666 97.0186 127.301 97.0186 127.918 97.1436C128.365 97.2359 128.818 97.2983 129.274 97.3305C129.467 94.4419 129.562 92.3245 129.559 90.9781V85.1951C129.581 84.2545 129.274 83.3357 128.692 82.5972C125.996 83.3119 124.646 87.9353 124.644 96.4675Z" fill="#706F6F"/>
<path d="M141.098 76.6855H142.201C142.695 76.7656 142.944 77.0147 142.944 77.4284V78.5272C142.944 78.7763 142.329 79.3961 141.098 80.3867C140.106 80.013 139.612 79.6438 139.612 79.2701V78.1713C139.612 77.7799 140.108 77.2846 141.098 76.6855ZM141.65 82.0459C142.002 82.557 142.204 83.1565 142.232 83.7764V100.529C142.232 100.836 141.85 101.223 141.08 101.695H140.787C140.595 101.695 140.306 101.308 139.897 100.529C140.093 98.2694 140.195 96.6324 140.195 95.636V89.2613C140.213 84.7921 140.698 82.387 141.65 82.0459Z" fill="#706F6F"/>
<path d="M154.728 80.0127C157.43 80.0127 159.068 82.5187 159.644 87.5306C159.834 92.6789 158.195 95.5675 154.728 96.1962H154.444C154.181 96.0386 153.886 95.9414 153.581 95.9115C153.157 99.7668 152.673 101.694 152.13 101.694H151.561C151.571 101.286 151.467 100.883 151.263 100.529C151.841 93.02 152.13 87.148 152.13 82.9131C152.326 80.9795 153.192 80.0127 154.728 80.0127ZM154.159 83.7761C154.159 85.2797 153.966 88.5522 153.581 93.5938C153.62 93.5892 153.66 93.5938 153.698 93.6073C153.736 93.6209 153.77 93.643 153.797 93.6719C153.825 93.7008 153.845 93.7357 153.857 93.7738C153.869 93.812 153.872 93.8524 153.865 93.8919C156.374 93.8919 157.629 92.2608 157.629 88.9986V88.7139C157.629 86.1753 156.761 84.2476 155.026 82.9309H154.728C154.35 82.9131 154.159 83.1978 154.159 83.7761Z" fill="#706F6F"/>
<path d="M166.913 81.1787H167.482C168.834 81.8845 169.512 83.8122 169.515 86.9617V89.2615C169.515 97.9331 167.971 102.267 164.884 102.264H164.337C161.828 102.264 160.572 99.4737 160.569 93.8924C160.569 86.9439 161.92 82.9952 164.622 82.0462C165.3 81.5695 166.088 81.2712 166.913 81.1787V81.1787ZM164.337 83.483C163.625 83.483 162.948 86.6637 162.304 93.0249C162.304 97.6513 163.269 99.963 165.2 99.9601C166.232 99.9601 167 96.4933 167.504 89.5596C167.504 85.5085 166.736 83.483 165.2 83.483H164.337Z" fill="#706F6F"/>
<path d="M173.585 80.0127C176.287 80.0127 177.925 82.5187 178.501 87.5306C178.691 92.6789 177.052 95.5675 173.585 96.1962H173.301C173.036 96.0378 172.74 95.9406 172.433 95.9115C172.015 99.7668 171.533 101.694 170.987 101.694H170.418C170.425 101.286 170.322 100.884 170.12 100.529C170.698 93.02 170.995 87.148 171.01 82.9131C171.19 80.9795 172.049 80.0127 173.585 80.0127ZM173.016 83.7761C173.016 85.2797 172.822 88.5522 172.433 93.5938C172.624 93.5938 172.718 93.6961 172.718 93.8919C175.227 93.8919 176.483 92.2608 176.486 88.9986V88.7139C176.486 86.1753 175.618 84.2476 173.883 82.9309H173.585C173.207 82.9131 173.016 83.1978 173.016 83.7761Z" fill="#706F6F"/>
<path d="M185.77 81.1787H186.339C187.691 81.8845 188.367 83.8122 188.367 86.9617V89.2615C188.367 97.9331 186.825 102.267 183.741 102.264H183.167C180.658 102.264 179.404 99.4737 179.404 93.8924C179.404 86.9439 180.755 82.9952 183.456 82.0462C184.142 81.566 184.938 81.2676 185.77 81.1787V81.1787ZM183.167 83.483C182.458 83.483 181.782 86.6637 181.139 93.0249C181.139 97.6513 182.104 99.963 184.035 99.9601C185.067 99.9601 185.835 96.4933 186.339 89.5596C186.339 85.5085 185.571 83.483 184.035 83.483H183.167Z" fill="#706F6F"/>
<path d="M190.422 80.8711H191.312C191.342 81.1847 191.439 81.4883 191.597 81.7608C191.217 88.4868 191.027 94.1646 191.027 98.7939L191.597 99.092H194.782C195.169 99.1498 195.36 99.3411 195.36 99.6614V100.529C195.049 101.309 194.373 101.697 193.332 101.694H191.597C189.865 101.436 188.999 100.569 188.999 99.092C188.984 89.0473 189.459 82.9737 190.422 80.8711Z" fill="#706F6F"/>
<path d="M197.433 76.6855H198.532C199.03 76.7656 199.275 77.0147 199.275 77.4284V78.5272C199.275 78.7763 198.661 79.3961 197.433 80.3867C196.441 80.013 195.948 79.6438 195.948 79.2701V78.1713C195.948 77.7799 196.443 77.2846 197.433 76.6855ZM197.989 82.0459C198.339 82.558 198.541 83.1569 198.572 83.7764V100.529C198.572 100.836 198.19 101.223 197.42 101.695H197.122C196.931 101.695 196.646 101.308 196.232 100.529C196.432 98.2694 196.53 96.6324 196.53 95.636V89.2613C196.545 84.7921 197.031 82.387 197.989 82.0459Z" fill="#706F6F"/>
</svg>
